<svg width="101" height="136" viewBox="0 0 101 136" fill="none" xmlns="http://www.w3.org/2000/svg">
<path opacity="0.55" d="M0 0.00311108C0.782956 7.33467 1.9955 15.4819 7.77297 20.0386C10.2419 21.985 13.3911 23.11 15.3704 25.5546C18.7424 29.7163 17.5946 36.2137 20.7414 40.548C22.7969 43.3796 27.6702 45.3179 30.2408 47.6849C33.331 50.5269 33.5435 54.0571 36.1926 57.3232C39.0796 60.8835 43.2866 63.3328 47.7868 64.1519C48.2488 77.6784 48.1656 93.9149 48.0178 105.166C48.0126 105.179 48.0087 105.193 48.0063 105.208C47.1979 111.824 44.0799 118.262 44.0799 118.262C41.1387 124.163 36.6476 128.199 30.7997 130.458C25.692 132.428 21.5417 134.05 20.0601 134.745C20.0323 134.758 20.01 134.781 19.9967 134.809C19.9835 134.837 19.9802 134.869 19.9873 134.899C19.9944 134.929 20.0116 134.956 20.0359 134.975C20.0602 134.994 20.0903 135.005 20.1213 135.004H81.514C81.5449 135.005 81.575 134.994 81.5993 134.975C81.6237 134.956 81.6408 134.929 81.6479 134.899C81.6551 134.869 81.6517 134.837 81.6385 134.809C81.6253 134.781 81.603 134.758 81.5752 134.745C80.0982 134.05 75.9478 132.428 70.8413 130.458C64.9911 128.199 60.4989 124.163 57.5611 118.262C57.5611 118.262 54.8358 112.635 53.8253 106.496C53.5655 95.3272 53.3738 78.4315 54.0389 63.7279C57.8691 62.6393 61.2773 60.4046 63.8086 57.322C66.4577 54.0617 66.6702 50.5257 69.7604 47.6837C72.3345 45.3167 77.2043 43.3784 79.2598 40.5468C82.4066 36.2114 81.2588 29.7151 84.6308 25.5535C86.6101 23.1089 89.7593 21.9839 92.2271 20.0374C98.0011 15.4807 99.2182 7.33351 100.001 0.00195312L0 0.00311108Z" fill="#B5DEE0"/>
<path d="M50.9175 135.002H81.5197C81.5506 135.003 81.5807 134.992 81.6051 134.973C81.6294 134.954 81.6465 134.927 81.6537 134.897C81.6608 134.867 81.6575 134.835 81.6442 134.807C81.631 134.779 81.6087 134.756 81.5809 134.743C80.1039 134.048 75.9536 132.426 70.847 130.456C64.9968 128.197 60.5046 124.161 57.5668 118.26C57.5668 118.26 54.8415 112.633 53.831 106.494C53.5712 95.3253 53.3795 78.4296 54.0447 63.7259C57.8749 62.6374 61.283 60.4027 63.8143 57.3201C66.4634 54.0598 66.6759 50.5238 69.7661 47.6818C72.3402 45.3148 77.21 43.3764 79.2655 40.5448C82.4124 36.2094 81.2645 29.7132 84.6365 25.5515C86.6158 23.1069 89.765 21.9819 92.2328 20.0355C98.0068 15.4788 99.224 7.33156 100.007 0H50.9279L50.9175 135.002Z" fill="#BAE0E1"/>
<path d="M50.0664 62.2302C55.0956 61.8826 59.9423 59.3442 63.1272 55.3818C65.6586 52.2316 65.863 48.8149 68.8169 46.069C71.2778 43.7831 75.934 41.9097 77.8995 39.1743C80.9019 34.986 79.8107 28.7099 83.0337 24.6919C84.9276 22.3296 87.937 21.2428 90.2974 19.3624C95.822 14.9598 96.9814 7.08832 97.7297 0.00585938H2.12256C2.87202 7.086 4.02682 14.9586 9.5537 19.3601C11.9141 21.2405 14.9247 22.3272 16.8174 24.6896C20.0416 28.7099 18.9434 34.986 21.9528 39.172C23.916 41.9074 28.5733 43.7808 31.0342 46.0667C33.9893 48.8126 34.1925 52.2293 36.7239 55.3795C39.9088 59.3418 44.7555 61.8826 49.7858 62.2279" fill="#E5F3F3"/>
<path opacity="0.34" d="M50.2442 62.2302C55.2745 61.8826 60.1212 59.3442 63.305 55.3818C65.8375 52.2316 66.0407 48.8149 68.9958 46.069C71.4567 43.7831 76.1117 41.9097 78.0772 39.1743C81.0866 34.986 79.9884 28.7099 83.2114 24.6919C85.1053 22.3296 88.1159 21.2428 90.4751 19.3624C95.9997 14.9598 97.1591 7.08832 97.9074 0.00585938H2.30029C3.0486 7.08832 4.20803 14.9609 9.73259 19.3624C12.0919 21.2428 15.1024 22.3296 16.9963 24.6919C20.2193 28.7122 19.1211 34.9883 22.1305 39.1743C24.0937 41.9097 28.751 43.7831 31.2119 46.069C34.167 48.8149 34.3703 52.2316 36.9028 55.3818C40.0877 59.3442 44.9332 61.8849 49.9636 62.2302" fill="#FF9900"/>
<path opacity="0.48" d="M14.9062 22.7675C15.6855 23.3115 16.3885 23.958 16.9964 24.6896C20.2195 28.7099 19.1213 34.9859 22.1307 39.1719C24.0938 41.9074 28.7512 43.7808 31.212 46.0667C34.1672 48.8126 34.3704 52.2292 36.9029 55.3794C40.0878 59.3418 44.9334 61.8826 49.9637 62.2279H50.2443C55.2746 61.8803 60.1213 59.3418 63.3051 55.3794C65.8376 52.2292 66.0408 48.8126 68.996 46.0667C71.4569 43.7808 76.1119 41.9074 78.0773 39.1719C81.0867 34.9836 79.9885 28.7075 83.2116 24.6896C83.8195 23.958 84.5225 23.3115 85.3018 22.7675H14.9062Z" fill="#F6A316"/>
<path opacity="0.48" d="M31.1509 46.0157C31.1705 46.0343 31.1936 46.0517 31.2121 46.069C34.1672 48.8149 34.3705 52.2316 36.9029 55.3818C40.0879 59.3441 44.9334 61.8849 49.9637 62.2302H50.2444C55.2747 61.8826 60.1214 59.3441 63.3052 55.3818C65.8376 52.2316 66.0409 48.8149 68.996 46.069C69.0145 46.0517 69.0376 46.0343 69.0572 46.0157H31.1509Z" fill="#F6A316"/>
<path opacity="0.18" d="M80.9942 0.00341797C80.9764 0.817024 80.9163 1.62914 80.8141 2.43645C79.6292 10.2766 69.2476 13.7941 67.2925 21.486C66.513 24.5505 67.1943 27.9741 65.7624 30.7929C63.9667 34.3289 59.6027 35.5698 56.6395 38.201C52.5191 41.8621 51.4544 47.8659 48.2464 52.3531C46.237 55.1615 43.3454 57.298 40.1143 58.4936C42.9683 60.6682 46.3886 61.9675 49.9624 62.2347H50.243C55.2733 61.8872 60.12 59.3487 63.3038 55.3863C65.8363 52.2361 66.0395 48.8194 68.9947 46.0736C71.4556 43.7877 76.1106 41.9142 78.076 39.1788C81.0854 34.9905 79.9872 28.7144 83.2103 24.6964C85.1041 22.3341 88.1147 21.2473 90.474 19.3669C95.9985 14.9643 97.158 7.09283 97.9063 0.0103692L80.9942 0.00341797Z" fill="#D6ECED"/>
<g opacity="0.69">
<path opacity="0.34" d="M29.8677 30.1542L44.34 18.1168C44.5767 17.9199 44.6095 17.5679 44.4133 17.3305L31.3561 1.52896C31.1599 1.29152 30.809 1.25861 30.5723 1.45546L16.1 13.4929C15.8633 13.6898 15.8305 14.0418 16.0267 14.2792L29.084 30.0807C29.2802 30.3182 29.6311 30.3511 29.8677 30.1542Z" fill="white"/>
<path opacity="0.41" d="M32.0549 28.3426L33.5897 27.0681C31.7258 24.7359 29.7707 22.4697 28.1725 19.9486C26.4022 17.1541 25.0741 13.9703 25.0545 10.659C25.0383 8.5307 25.6388 6.35139 26.8098 4.59729L18.2908 11.6855C17.9476 11.9709 17.6637 12.3214 17.4555 12.7168C17.2473 13.1123 17.1187 13.545 17.0772 13.9904C17.0357 14.4357 17.0821 14.8848 17.2136 15.3122C17.3452 15.7395 17.5594 16.1367 17.8439 16.4809L27.2798 27.8977C27.8548 28.591 28.6805 29.0272 29.5757 29.1106C30.4709 29.194 31.3625 28.9178 32.0549 28.3426Z" fill="white"/>
</g>
<g opacity="0.69">
<path opacity="0.34" d="M74.9599 18.0525L54.6665 13.1269C54.3677 13.0544 54.0669 13.2386 53.9946 13.5384L48.6542 35.6855C48.5819 35.9852 48.7655 36.287 49.0643 36.3596L69.3577 41.2852C69.6565 41.3577 69.9573 41.1735 70.0296 40.8737L75.37 18.7266C75.4423 18.4268 75.2587 18.125 74.9599 18.0525Z" fill="white"/>
<path opacity="0.41" d="M71.8538 17.3035L69.714 16.7833C68.8871 19.9787 68.1804 23.2123 67.0106 26.2965C65.7137 29.7143 63.7829 32.9978 60.8786 35.2072C59.0113 36.6277 56.6913 37.5337 54.3701 37.6519L66.2507 40.5356C67.2168 40.7697 68.2361 40.6092 69.0843 40.0895C69.9326 39.5698 70.5404 38.7334 70.7741 37.7642L74.6138 21.844C74.8479 20.8747 74.6886 19.8518 74.171 19.0003C73.6534 18.1489 72.8199 17.5385 71.8538 17.3035Z" fill="white"/>
</g>
<g opacity="0.47">
<path opacity="0.47" d="M40.7369 34.3105C40.6548 35.152 40.2843 35.939 39.6886 36.5372C39.0929 37.1354 38.3089 37.5078 37.4702 37.591C36.6315 37.6741 35.7899 37.4629 35.0891 36.9932C34.3882 36.5236 33.8714 35.8246 33.6266 35.0155C33.3819 34.2063 33.4245 33.3371 33.7471 32.5559C34.0696 31.7747 34.6523 31.1299 35.3956 30.7314C36.139 30.333 36.9971 30.2055 37.8237 30.3707C38.6503 30.536 39.3941 30.9837 39.9285 31.6376C40.5398 32.3862 40.8305 33.3473 40.7369 34.3105ZM40.7369 34.3105C40.8181 33.4723 40.6072 32.6318 40.1401 31.9321C39.6729 31.2324 38.9784 30.7169 38.1749 30.4733C37.3714 30.2298 36.5086 30.2732 35.7335 30.5963C34.9583 30.9194 34.3188 31.5022 33.9239 32.2453C33.5289 32.9884 33.403 33.8459 33.5676 34.6717C33.7321 35.4975 34.1769 36.2405 34.8263 36.7741C35.4756 37.3078 36.2893 37.5991 37.1287 37.5983C37.9681 37.5976 38.7812 37.3049 39.4296 36.7701C40.1721 36.1557 40.6421 35.2714 40.7369 34.3105Z" fill="white"/>
<path opacity="0.47" d="M50.7075 47.537C50.6515 48.1113 50.3988 48.6483 49.9923 49.0565C49.5859 49.4648 49.0509 49.7189 48.4785 49.7757C47.9062 49.8324 47.332 49.6882 46.8537 49.3677C46.3755 49.0472 46.0229 48.5702 45.856 48.018C45.6891 47.4658 45.7182 46.8726 45.9385 46.3396C46.1587 45.8066 46.5564 45.3667 47.0638 45.0949C47.5712 44.8232 48.1567 44.7364 48.7207 44.8494C49.2847 44.9624 49.7922 45.2681 50.1567 45.7145C50.5735 46.2249 50.7716 46.8803 50.7075 47.537ZM50.7075 47.537C50.7627 46.9668 50.6193 46.3951 50.3016 45.9191C49.9839 45.4431 49.5115 45.0923 48.965 44.9264C48.4185 44.7605 47.8315 44.7898 47.3041 45.0093C46.7767 45.2288 46.3414 45.6249 46.0724 46.1302C45.8034 46.6355 45.7172 47.2187 45.8286 47.7806C45.94 48.3424 46.242 48.8482 46.6833 49.2117C47.1245 49.5753 47.6778 49.7741 48.2487 49.7745C48.8197 49.7748 49.3732 49.5765 49.8148 49.2135C50.3218 48.7952 50.6429 48.1923 50.7075 47.537Z" fill="white"/>
<path opacity="0.47" d="M49.9797 22.9992C49.9379 23.4204 49.7519 23.814 49.4532 24.113C49.1546 24.412 48.7618 24.5979 48.3419 24.6389C47.9219 24.6799 47.5008 24.5735 47.1503 24.3379C46.7998 24.1023 46.5416 23.752 46.4196 23.3468C46.2977 22.9416 46.3196 22.5064 46.4816 22.1156C46.6436 21.7247 46.9357 21.4024 47.3081 21.2034C47.6805 21.0044 48.1101 20.9411 48.5238 21.0244C48.9375 21.1076 49.3096 21.3322 49.5767 21.6598C49.8819 22.0354 50.0268 22.5169 49.9797 22.9992ZM49.9797 22.9992C50.0072 22.7602 49.987 22.5182 49.9202 22.2872C49.8535 22.0561 49.7414 21.8408 49.5907 21.6537C49.44 21.4666 49.2537 21.3116 49.0425 21.1976C48.8314 21.0836 48.5997 21.013 48.3611 20.9899C48.1224 20.9668 47.8816 20.9917 47.6527 21.0631C47.4237 21.1344 47.2112 21.2509 47.0276 21.4056C46.8441 21.5603 46.6931 21.7502 46.5835 21.9641C46.4739 22.1781 46.4079 22.4118 46.3894 22.6516C46.3548 23.0069 46.426 23.3646 46.594 23.6793C46.762 23.994 47.0193 24.2517 47.3332 24.4197C47.6472 24.5878 48.0038 24.6586 48.3579 24.6233C48.712 24.588 49.0477 24.4482 49.3226 24.2215C49.694 23.9171 49.9302 23.4777 49.9797 22.9992Z" fill="white"/>
<path opacity="0.47" d="M45.3158 9.20846C45.2937 9.47067 45.1692 9.71349 44.9693 9.88391C44.8688 9.96986 44.7524 10.0351 44.6267 10.0758C44.501 10.1165 44.3685 10.1319 44.2369 10.1211C44.1053 10.1104 43.977 10.0736 43.8596 10.013C43.7421 9.95246 43.6377 9.8692 43.5524 9.76805C43.423 9.61392 43.3426 9.42445 43.3215 9.22406C43.3004 9.02366 43.3396 8.82151 43.434 8.64365C43.5284 8.46579 43.6737 8.32036 43.8512 8.2261C44.0288 8.13184 44.2304 8.09306 44.43 8.11475C44.6937 8.14396 44.9352 8.27636 45.1021 8.48318C45.2655 8.68744 45.3422 8.94794 45.3158 9.20846ZM45.3158 9.20846C45.328 9.07919 45.3145 8.94878 45.276 8.8248C45.2375 8.70082 45.1749 8.58574 45.0918 8.48625C45.0086 8.38676 44.9066 8.30483 44.7916 8.24524C44.6766 8.18564 44.551 8.14956 44.422 8.13908C44.1647 8.11928 43.9102 8.20261 43.7141 8.3708C43.5185 8.53585 43.3953 8.77126 43.3709 9.02646C43.3465 9.28166 43.4229 9.53628 43.5836 9.73561C43.7467 9.93758 43.983 10.0664 44.2406 10.0937C44.4982 10.1211 44.7562 10.0448 44.9578 9.8816C45.0586 9.79849 45.1421 9.69627 45.2035 9.58077C45.265 9.46527 45.3031 9.33875 45.3158 9.20846Z" fill="white"/>
</g>
</svg>
