<svg width="118" height="167" viewBox="0 0 118 167" fill="none" xmlns="http://www.w3.org/2000/svg">
<g clip-path="url(#clip0)">
<path d="M116.146 0H1.85065C0.705426 0 -0.165184 0.628007 0.0249314 1.3164L20.2044 104.31C21.9773 110.753 31.1164 115.47 41.8232 115.47H54.7828C55.851 125.02 55.934 134.315 54.2502 142.414C53.6043 145.442 51.836 148.113 49.3011 149.89C40.1605 156.365 26.1538 166.227 25.2243 166.538L95.5038 167L75.6472 152.021C71.3772 148.803 68.4711 144.057 67.6971 138.765C66.6182 131.392 66.5639 123.48 67.2007 115.47H74.9954C85.6449 115.47 94.7614 110.801 96.5886 104.4L117.971 1.32395C118.168 0.632534 117.292 0 116.146 0Z" fill="#D6ECED"/>
<path d="M116.147 0H61.2898V166.775L95.5046 167L75.648 152.021C71.378 148.803 68.4719 144.057 67.6979 138.765C66.6191 131.392 66.5647 123.48 67.2015 115.47H74.9962C85.6457 115.47 94.7622 110.801 96.5894 104.4L117.971 1.32395C118.169 0.632534 117.292 0 116.147 0Z" fill="#BAE0E1"/>
<path d="M7.40541 0H110.593C111.631 0 112.419 0.582719 112.241 1.21827L92.9349 95.9884C91.2751 101.876 83.0549 106.168 73.4404 106.168H43.4927C33.827 106.168 25.575 101.829 23.9757 95.9024L5.75623 1.21072C5.58573 0.579697 6.37184 0 7.40541 0Z" fill="white"/>
<path opacity="0.34" d="M7.40541 0H110.593C111.631 0 112.419 0.582719 112.241 1.21827L92.9349 95.9884C91.2751 101.876 83.0549 106.168 73.4404 106.168H43.4927C33.827 106.168 25.575 101.829 23.9757 95.9024L5.75623 1.21072C5.58573 0.579697 6.37184 0 7.40541 0Z" fill="#EBEA92"/>
<path opacity="0.34" d="M9.32935 19.7762L23.9758 95.9054C25.5752 101.829 33.8271 106.171 43.4928 106.171H73.4406C83.055 106.171 91.2783 101.876 92.935 95.9915L108.46 19.7792L9.32935 19.7762Z" fill="#EBEA92"/>
<path opacity="0.34" d="M19.5427 72.8608L23.9757 95.9054C25.5751 101.829 33.8271 106.171 43.4928 106.171H73.4405C83.055 106.171 91.2782 101.876 92.9349 95.9914L97.6456 72.8639L19.5427 72.8608Z" fill="#EBEA92"/>
<g opacity="0.55">
<path opacity="0.34" d="M90.1442 69.9789L64.7769 52.2074C64.4479 51.9769 63.9944 52.0569 63.764 52.3861L45.4659 78.5319C45.2356 78.8611 45.3155 79.3148 45.6445 79.5453L71.0118 97.3168C71.3408 97.5473 71.7943 97.4673 72.0247 97.1381L90.3228 70.9923C90.5532 70.6631 90.4732 70.2094 90.1442 69.9789Z" fill="white"/>
<path opacity="0.41" d="M86.2098 67.2254L83.5512 65.3625C80.8428 69.0913 78.2778 72.9364 75.159 76.33C71.7007 80.092 67.4457 83.3241 62.3941 84.6133C59.0673 85.4625 55.5656 85.3262 52.3149 84.2208L67.0776 94.5618C69.5777 96.3145 72.9531 95.8088 74.6218 93.4326L87.7277 74.7026C89.3905 72.3234 88.7115 68.9766 86.2098 67.2254Z" fill="white"/>
</g>
<g opacity="0.55">
<path opacity="0.34" d="M36.9082 51.7188L60.7865 33.2274C61.1041 32.9814 61.1623 32.5244 60.9164 32.2066L41.8768 7.595C41.6309 7.27721 41.1741 7.21899 40.8565 7.46496L16.9782 25.9563C16.6606 26.2023 16.6024 26.6593 16.8483 26.9771L35.8879 51.5888C36.1338 51.9065 36.5906 51.9648 36.9082 51.7188Z" fill="white"/>
<path opacity="0.41" d="M40.5986 48.8623L43.1048 46.9254C40.4146 43.3189 37.5734 39.8135 35.3161 35.9217C32.813 31.6072 31.0325 26.7009 31.295 21.6164C31.4666 18.2679 32.6079 15.0416 34.5798 12.3307L20.6682 23.1034C18.3114 24.9286 17.8014 28.2226 19.5381 30.4614L33.1947 48.1241C34.9269 50.3523 38.2418 50.6874 40.5986 48.8623Z" fill="white"/>
</g>
</g>
<defs>
<clipPath id="clip0">
<rect width="118" height="167" fill="white"/>
</clipPath>
</defs>
</svg>
