<svg width="102" height="163" viewBox="0 0 102 163" fill="none" xmlns="http://www.w3.org/2000/svg">
<g clip-path="url(#clip0)">
<path d="M99.4046 44.3651H2.59116C1.0981 44.3651 -0.0871631 45.8196 0.000136874 47.542L6.15591 86.3835C6.23649 87.9714 7.37251 89.2101 8.74693 89.2101H10.193L21.5688 162.036C21.6998 162.593 22.3713 163.006 23.157 163.006H81.4499C82.2334 163.006 82.9049 162.602 83.0359 162.051L92.997 89.2162H93.0787C94.4531 89.2162 95.5892 87.9774 95.6697 86.3896L101.998 47.548C102.082 45.8184 100.898 44.3651 99.4046 44.3651Z" fill="#D6ECED"/>
<path d="M99.4044 44.3651H50.5544V163H81.4452C82.2287 163 82.9002 162.596 83.0312 162.045L92.9923 89.2101H93.074C94.4484 89.2101 95.5845 87.9714 95.665 86.3835L101.993 47.542C102.082 45.8184 100.897 44.3651 99.4044 44.3651Z" fill="#BAE0E1"/>
<path d="M7.23938 44.6875H95.1124C96.066 44.6875 96.7913 45.2729 96.6245 45.9117L82.8199 142.871C82.6912 143.371 80.812 151.526 75.236 151.526H29.1808C23.8275 151.526 22.0558 143.992 21.9315 143.489L5.72506 45.9057C5.56837 45.2681 6.29027 44.6875 7.23938 44.6875Z" fill="white"/>
<path d="M96.8686 0.814024L92.0269 0.00604248L71.2766 145.839L76.1183 146.647L96.8686 0.814024Z" fill="#322F38"/>
<g opacity="0.76">
<path opacity="0.76" d="M7.23938 44.6875H95.1124C96.066 44.6875 96.7913 45.2729 96.6245 45.9117L82.8199 142.871C82.6912 143.371 80.812 151.526 75.236 151.526H29.1808C23.8275 151.526 22.0558 143.992 21.9315 143.489L5.72506 45.9057C5.56837 45.2681 6.29027 44.6875 7.23938 44.6875Z" fill="#9E6D14"/>
<path opacity="0.55" d="M14.0801 96.2148L21.9315 143.487C22.0557 143.99 23.8275 151.524 29.1807 151.524H75.236C80.812 151.524 82.6912 143.369 82.8199 142.868L89.4625 96.2124L14.0801 96.2148Z" fill="#886624"/>
<path opacity="0.47" d="M18.6533 123.75L21.9315 143.489C22.0558 143.992 23.8275 151.526 29.1808 151.526H75.236C80.812 151.526 82.6912 143.371 82.82 142.871L85.5419 123.75H18.6533Z" fill="#F8B41E"/>
<path opacity="0.72" d="M21.2207 139.209L21.9314 143.489C22.0557 143.992 23.8274 151.526 29.1807 151.526H75.2359C80.8119 151.526 82.6911 143.371 82.8198 142.871L83.3414 139.209H21.2207Z" fill="#F8B41E"/>
</g>
<g opacity="0.83">
<path opacity="0.34" d="M39.6219 147.139L55.3372 130.327C55.5491 130.1 55.5512 129.73 55.3418 129.5L38.4605 110.994C38.2511 110.764 37.9096 110.762 37.6976 110.989L21.9823 127.801C21.7704 128.028 21.7683 128.398 21.9777 128.627L38.8589 147.134C39.0683 147.364 39.4099 147.366 39.6219 147.139Z" fill="white"/>
<path opacity="0.41" d="M42.0507 144.531L43.7004 142.767C41.3064 140.051 38.8105 137.433 36.7053 134.45C34.3717 131.147 32.5115 127.31 32.1489 123.169C31.9161 120.503 32.3928 117.715 33.5748 115.393L24.4127 125.192C24.0436 125.587 23.7499 126.057 23.5484 126.574C23.3469 127.092 23.2416 127.648 23.2384 128.209C23.2351 128.771 23.3341 129.328 23.5297 129.848C23.7252 130.369 24.0135 130.842 24.378 131.242L36.4657 144.494C37.2018 145.301 38.2037 145.758 39.251 145.765C40.2984 145.772 41.3054 145.328 42.0507 144.531Z" fill="white"/>
</g>
<g opacity="0.7">
<path opacity="0.34" d="M31.8248 93.1281L54.7615 73.0921C54.9934 72.8895 55.0298 72.5217 54.8427 72.2706L36.1836 47.2185C35.9966 46.9674 35.6569 46.928 35.425 47.1306L12.4884 67.1666C12.2565 67.3692 12.2201 67.737 12.4072 67.9881L31.0662 93.0402C31.2533 93.2913 31.5929 93.3307 31.8248 93.1281Z" fill="white"/>
<path opacity="0.41" d="M35.4598 89.9459L37.8382 87.8672C35.227 84.2309 32.4726 80.7013 30.2733 76.7547C27.8356 72.3802 26.0863 67.3743 26.2855 62.1199C26.424 58.642 27.4848 55.2809 29.341 52.4389L16.1251 63.9816C13.8866 65.938 13.4389 69.35 15.1178 71.6081L28.3628 89.4005C30.0439 91.6525 33.2202 91.901 35.4598 89.9459Z" fill="white"/>
</g>
<g opacity="0.55">
<path opacity="0.34" d="M90.2128 87.2472L69.2856 67.9659C69.0587 67.7568 68.7183 67.7866 68.5252 68.0323L50.1888 91.3734C49.9957 91.6192 50.0232 91.9879 50.2501 92.197L71.1772 111.478C71.4041 111.687 71.7446 111.658 71.9377 111.412L90.2741 88.0708C90.4672 87.825 90.4397 87.4563 90.2128 87.2472Z" fill="white"/>
<path opacity="0.41" d="M86.9084 84.2115L84.7337 82.2054C82.0475 85.5011 79.4845 88.9204 76.4682 91.8622C73.125 95.1215 69.126 97.8087 64.5898 98.5796C61.6798 99.0754 58.5179 98.662 55.7859 97.3033L67.8736 108.441C69.9218 110.328 72.9236 110.15 74.5778 108.045L87.6224 91.4392C89.2755 89.335 88.9566 86.0975 86.9084 84.2115Z" fill="white"/>
</g>
<g opacity="0.5">
<path opacity="0.5" d="M54.4203 122.945C54.3115 124.164 53.7879 125.296 52.9514 126.12C52.1148 126.944 51.025 127.402 49.8941 127.404C48.7631 127.406 47.6719 126.953 46.8327 126.132C45.9934 125.311 45.4662 124.181 45.3535 122.962C45.2408 121.744 45.5508 120.523 46.2231 119.538C46.8953 118.553 47.8819 117.875 48.9908 117.634C50.0996 117.393 51.2516 117.608 52.2224 118.236C53.1933 118.864 53.9137 119.861 54.2434 121.032C54.4167 121.651 54.4768 122.301 54.4203 122.945ZM54.4203 122.945C54.5038 121.978 54.3207 121.005 53.8939 120.15C53.4672 119.296 52.8161 118.597 52.0229 118.143C51.2296 117.689 50.3299 117.5 49.4374 117.6C48.5449 117.699 47.6998 118.083 47.0087 118.703C46.4933 119.166 46.0791 119.747 45.7958 120.405C45.5125 121.062 45.3672 121.779 45.3704 122.504C45.3735 123.23 45.525 123.945 45.8139 124.6C46.1029 125.254 46.5221 125.831 47.0415 126.289C47.5609 126.747 48.1675 127.075 48.8178 127.248C49.4681 127.422 50.1458 127.438 50.8023 127.294C51.4588 127.151 52.0778 126.851 52.6147 126.417C53.1517 125.984 53.5932 125.427 53.9077 124.786C54.1876 124.215 54.3617 123.589 54.4203 122.945Z" fill="white"/>
<path opacity="0.5" d="M66.0702 139.987C66.001 140.763 65.6855 141.488 65.1775 142.04C64.6695 142.592 64.0005 142.936 63.2845 143.014C62.5685 143.091 61.8499 142.897 61.2511 142.465C60.6524 142.033 60.2106 141.389 60.001 140.644C59.7914 139.898 59.8271 139.097 60.1019 138.377C60.3768 137.657 60.8738 137.062 61.5082 136.695C62.1425 136.327 62.8751 136.209 63.5809 136.36C64.2866 136.512 64.922 136.924 65.3786 137.527C65.8999 138.216 66.1485 139.1 66.0702 139.987ZM66.0702 139.987C66.1401 139.216 65.9609 138.442 65.5633 137.798C65.1657 137.154 64.5741 136.679 63.8895 136.454C63.2048 136.229 62.4693 136.268 61.8082 136.565C61.1471 136.861 60.6013 137.396 60.2638 138.08C59.9262 138.763 59.8178 139.552 59.957 140.312C60.0961 141.072 60.4742 141.756 61.0269 142.248C61.5796 142.74 62.2728 143.01 62.9882 143.01C63.7037 143.011 64.3974 142.743 64.951 142.253C65.5863 141.688 65.9888 140.873 66.0702 139.987Z" fill="white"/>
<path opacity="0.5" d="M61.591 106.845C61.5398 107.414 61.3077 107.947 60.9345 108.351C60.5613 108.756 60.0701 109.008 59.5445 109.064C59.0189 109.121 58.4915 108.978 58.0523 108.66C57.6131 108.343 57.2892 107.87 57.1359 107.322C56.9825 106.775 57.0093 106.187 57.2115 105.659C57.4137 105.13 57.7789 104.694 58.2449 104.425C58.7108 104.155 59.2485 104.069 59.7665 104.181C60.2844 104.293 60.7505 104.596 61.0851 105.039C61.4677 105.545 61.6496 106.194 61.591 106.845ZM61.591 106.845C61.6435 106.279 61.5132 105.711 61.2224 105.238C60.9316 104.765 60.4982 104.416 59.9961 104.25C59.4941 104.084 58.9544 104.111 58.4691 104.328C57.9838 104.545 57.5829 104.937 57.3347 105.438C57.0865 105.939 57.0063 106.517 57.108 107.075C57.2096 107.633 57.4866 108.135 57.8919 108.496C58.2972 108.858 58.8056 109.055 59.3306 109.056C59.8555 109.057 60.3644 108.861 60.7706 108.501C61.2357 108.088 61.5307 107.493 61.591 106.845Z" fill="white"/>
<path opacity="0.5" d="M42.6504 90.1604C41.9873 90.4619 41.2481 90.5049 40.559 90.2823C39.8698 90.0596 39.2733 89.5851 38.871 88.9394C38.4687 88.2938 38.2857 87.5171 38.353 86.7417C38.4203 85.9662 38.7339 85.2401 39.2402 84.687C39.7465 84.1339 40.4143 83.7881 41.1297 83.7084C41.8451 83.6288 42.5639 83.8203 43.1635 84.2504C43.7631 84.6804 44.2065 85.3223 44.4181 86.0667C44.6296 86.8111 44.5962 87.6119 44.3236 88.3326C44.0109 89.1574 43.4093 89.8146 42.6504 90.1604ZM42.6504 90.1604C43.3106 89.8608 43.8545 89.3225 44.1895 88.6373C44.5244 87.9521 44.6296 87.1624 44.4871 86.4026C44.3447 85.6428 43.9634 84.96 43.4083 84.4705C42.8532 83.981 42.1585 83.7151 41.4426 83.718C40.7268 83.721 40.034 83.9926 39.4823 84.4866C38.9306 84.9806 38.5541 85.6665 38.417 86.4274C38.2798 87.1884 38.3905 87.9772 38.7302 88.6597C39.0699 89.3421 39.6175 89.8759 40.2799 90.1701C41.0402 90.506 41.8924 90.5025 42.6504 90.1604Z" fill="white"/>
<path opacity="0.5" d="M60.05 71.4227C59.5627 71.6418 59.0203 71.6711 58.5153 71.5056C58.0103 71.3401 57.5739 70.9901 57.2806 70.5151C56.9872 70.0401 56.8551 69.4697 56.9067 68.901C56.9583 68.3323 57.1904 67.8006 57.5635 67.3966C57.9366 66.9925 58.4276 66.7411 58.9527 66.6852C59.4778 66.6294 60.0045 66.7725 60.4431 67.0901C60.8817 67.4078 61.205 67.8804 61.3578 68.4273C61.5106 68.9742 61.4835 69.5616 61.2812 70.0894C61.0494 70.6924 60.6068 71.1717 60.05 71.4227ZM60.05 71.4227C60.5345 71.205 60.9342 70.8121 61.1812 70.3111C61.4283 69.81 61.5073 69.2317 61.4048 68.6746C61.3023 68.1176 61.0247 67.6162 60.6192 67.256C60.2137 66.8957 59.7054 66.6988 59.1809 66.6988C58.6564 66.6988 58.1482 66.8957 57.7427 67.256C57.3372 67.6162 57.0596 68.1176 56.9571 68.6746C56.8546 69.2317 56.9336 69.81 57.1806 70.3111C57.4276 70.8121 57.8274 71.205 58.3118 71.4227C58.8684 71.6719 59.4935 71.6719 60.05 71.4227Z" fill="white"/>
<path opacity="0.5" d="M67.0943 58.1623C66.7902 58.3012 66.4477 58.3046 66.1412 58.1719C65.8347 58.0392 65.5888 57.781 65.4569 57.4533C65.391 57.289 65.3556 57.1122 65.3529 56.9331C65.3503 56.7541 65.3803 56.5761 65.4412 56.4096C65.5336 56.158 65.6933 55.9419 65.8999 55.7893C66.1065 55.6366 66.3504 55.5542 66.6005 55.5528C66.8506 55.5514 67.0954 55.6309 67.3034 55.7812C67.5115 55.9315 67.6733 56.1457 67.7681 56.3963C67.894 56.7279 67.894 57.0999 67.7681 57.4314C67.7058 57.5953 67.6142 57.7443 67.4986 57.8697C67.3829 57.9951 67.2456 58.0946 67.0943 58.1623ZM67.0943 58.1623C67.3168 58.058 67.5058 57.8849 67.6378 57.6646C67.7697 57.4444 67.8387 57.1869 67.8361 56.9244C67.8334 56.6619 67.7593 56.4061 67.623 56.189C67.4866 55.972 67.2942 55.8033 67.0697 55.7042C66.7758 55.6077 66.4592 55.6336 66.1821 55.7769C65.9049 55.9202 65.6872 56.1705 65.5717 56.4787C65.4562 56.7869 65.4512 57.1307 65.5577 57.4426C65.6643 57.7546 65.8746 58.0121 66.1475 58.1648C66.2976 58.2321 66.4586 58.2665 66.6211 58.2661C66.7836 58.2657 66.9445 58.2304 67.0943 58.1623Z" fill="white"/>
</g>
</g>
<defs>
<clipPath id="clip0">
<rect width="102" height="163" fill="white"/>
</clipPath>
</defs>
</svg>
