<svg width="119" height="335" viewBox="0 0 119 335" fill="none" xmlns="http://www.w3.org/2000/svg">
<g clip-path="url(#clip0)">
<path opacity="0.3" d="M7.59461 335C5.57561 334.994 3.64163 334.185 2.21758 332.75C0.793538 331.316 -0.00406832 329.373 1.5606e-05 327.35V296.388C0.0068493 294.696 0.573545 293.054 1.61129 291.72C2.64903 290.386 4.09916 289.434 5.73439 289.015L10.4618 146.599C9.02637 145.941 7.83058 144.852 7.04005 143.483C6.24952 142.114 5.90338 140.532 6.04956 138.957L8.95518 108.018C9.13311 106.122 10.01 104.361 11.4145 103.079C12.8189 101.796 14.65 101.085 16.5498 101.084H21.5539C25.4393 101.089 29.2269 99.8637 32.3768 97.5839C35.5266 95.3041 37.8779 92.0857 39.0953 88.3878C39.6949 86.6524 40.0116 84.8314 40.0331 82.995L41.4398 29.1519L41.7165 17.75H77.2758L77.5526 29.1519L78.9593 82.995C78.9795 84.8322 79.2988 86.6538 79.9047 88.3878C81.1217 92.0845 83.4718 95.3019 86.6201 97.5816C89.7685 99.8613 93.5544 101.087 97.4384 101.084H102.443C104.342 101.085 106.173 101.796 107.578 103.079C108.982 104.361 109.859 106.122 110.037 108.018L112.943 138.957C113.089 140.532 112.743 142.114 111.952 143.483C111.162 144.852 109.966 145.941 108.531 146.599L113.258 289.015C114.893 289.434 116.343 290.386 117.381 291.72C118.419 293.054 118.985 294.696 118.992 296.388V327.319C118.996 329.343 118.199 331.285 116.775 332.719C115.351 334.154 113.417 334.963 111.398 334.969L7.59461 335Z" fill="#009FE3"/>
<path opacity="0.3" d="M12.4528 107.216L9.57021 137.948C9.48879 138.797 9.67389 139.65 10.0997 140.389C10.5255 141.128 11.1707 141.715 11.9454 142.069L14.067 143.04L9.14743 290.425L6.60309 291.072C5.72528 291.3 4.94754 291.813 4.39129 292.531C3.83504 293.248 3.5316 294.131 3.52835 295.039V325.979C3.52426 327.072 3.95338 328.123 4.72151 328.9C5.48965 329.677 6.53404 330.117 7.62544 330.123C25.1745 322.057 42.4699 318.144 59.527 318.121C76.5841 318.097 93.8795 322.057 111.429 330.123C112.52 330.117 113.564 329.677 114.332 328.9C115.101 328.123 115.53 327.072 115.526 325.979V295.039C115.522 294.131 115.219 293.248 114.663 292.531C114.106 291.813 113.329 291.3 112.451 291.072L109.907 290.425L104.956 143.078L107.078 142.108C107.853 141.754 108.498 141.167 108.924 140.428C109.349 139.689 109.534 138.835 109.453 137.986L106.57 107.255L12.4528 107.216Z" fill="#009FE3"/>
<path opacity="0.4" d="M49.6187 43.697C50.1875 43.697 50.6179 47.8032 50.9177 55.1837C51.0715 58.8739 51.1868 63.3884 51.2713 68.6271C51.3021 71.2567 51.3328 74.0558 51.3636 77.0244C51.4753 80.2615 51.406 83.5022 51.156 86.7315C50.8146 90.5801 49.7063 94.321 47.8968 97.7328C45.7693 101.384 42.8861 104.536 39.4413 106.978C35.9004 109.485 32.0169 111.468 27.911 112.863C26.8656 113.225 25.8125 113.564 24.7363 113.857L23.1144 114.289L22.3457 114.497C22.2614 114.559 22.1713 114.613 22.0767 114.658C21.6861 114.79 21.3421 115.033 21.0868 115.357C20.8316 115.681 20.676 116.073 20.6393 116.484C20.5664 116.668 20.5349 116.865 20.547 117.062L20.4778 117.879L20.3395 119.52C20.2472 120.621 20.1627 121.731 20.0627 122.84C19.8783 125.064 19.6887 127.313 19.4939 129.589C19.3325 131.538 19.1634 133.518 18.9943 135.513C18.9962 135.53 19.0043 135.546 19.0171 135.557C19.0299 135.569 19.0464 135.575 19.0635 135.575L18.8175 135.382C18.7714 135.344 19.0173 135.498 19.1019 135.544L19.8245 136.022C20.3077 136.331 20.7341 136.722 21.0851 137.177C21.8629 138.035 22.4499 139.049 22.807 140.151C22.9813 140.703 23.0871 141.275 23.1221 141.853C23.18 142.319 23.2056 142.787 23.199 143.256L23.1452 145.043L23.0452 148.648C22.9684 151.057 22.8966 153.486 22.83 155.936C22.666 160.826 22.5072 165.79 22.3534 170.828C21.0159 211.043 19.3556 247.429 17.7413 273.761C17.2955 280.333 16.8958 286.28 16.5422 291.519C16.4961 292.174 16.4423 292.821 16.3961 293.445C16.3701 294.206 16.2671 294.962 16.0887 295.702C15.8594 296.632 15.3932 297.487 14.7358 298.183C14.3442 298.549 13.9225 298.881 13.4751 299.177C13.2016 299.329 12.9131 299.453 12.6142 299.546L11.7302 299.885C11.6045 299.937 11.4728 299.974 11.3382 299.993C11.1768 300.163 10.8155 300.332 10.7617 300.455C10.6381 300.532 10.5368 300.64 10.468 300.769C10.3992 300.897 10.3653 301.042 10.3696 301.187L10.2851 301.542V301.711V301.804V301.865C10.3312 301.326 10.2851 301.727 10.2851 301.611L10.239 302.312C9.74701 309.685 9.20893 313.768 8.6401 313.768C8.07127 313.768 7.53321 309.685 7.04125 302.312L6.99512 301.611L7.08737 300.625C7.16448 299.907 7.39804 299.216 7.7715 298.599C8.19262 297.918 8.73757 297.322 9.37804 296.842L11.0999 295.956C11.2998 295.833 11.7072 295.694 11.7533 295.586C11.7994 295.479 11.7533 295.432 11.7533 295.409C11.7533 295.24 12.0377 295.001 11.9685 294.739C12.0228 294.261 12.0357 293.779 12.0069 293.298C12.0069 292.667 12.0069 292.027 12.0069 291.372C12.0069 286.118 12.0069 280.148 12.0069 273.568C12.1376 247.19 12.8909 210.766 14.2208 170.551C14.559 160.967 14.8895 151.607 15.2047 142.57C15.1509 142.57 15.2047 142.501 15.1586 142.508C15.1124 142.516 15.1586 142.447 15.1586 142.508C15.1201 142.508 15.2508 142.508 15.0663 142.439L14.3975 142.085C13.9115 141.812 13.4642 141.475 13.0677 141.083C12.6398 140.736 12.2734 140.32 11.9839 139.85C11.4112 138.904 11.1032 137.821 11.0922 136.715C11.0709 136.149 11.0992 135.581 11.1768 135.02L11.2767 134.034L11.4535 132.308C11.5688 131.16 11.6841 129.997 11.8071 128.888C12.0377 126.623 12.2683 124.373 12.4989 122.154L12.8448 118.842L13.0216 117.201L13.1062 116.384C13.1332 116.035 13.1924 115.69 13.283 115.352C13.5477 113.623 14.2792 112 15.3984 110.658C16.5176 109.317 17.9818 108.308 19.6323 107.74L20.8314 107.317L21.6001 107.155L23.0299 106.816C23.9754 106.585 24.9055 106.315 25.8202 106.045C29.3248 104.976 32.6626 103.421 35.7362 101.423C38.4308 99.7558 40.7147 97.4999 42.4171 94.8238C44.1195 92.1477 45.1966 89.1207 45.5677 85.9688C46.0597 83.1953 46.1058 79.8056 46.3364 76.9089C46.567 74.0122 46.7053 71.1463 46.8668 68.527C47.2204 63.296 47.574 58.7968 47.9122 55.1143C48.4041 47.7493 49.0498 43.697 49.6187 43.697Z" fill="white"/>
<path opacity="0.3" d="M112.059 289.046L107.339 146.63C108.772 145.97 109.966 144.88 110.755 143.511C111.544 142.142 111.889 140.562 111.744 138.988L108.838 108.048C108.66 106.153 107.783 104.392 106.379 103.109C104.974 101.827 103.143 101.116 101.243 101.115H96.2393C92.3552 101.118 88.5693 99.8921 85.421 97.6124C82.2727 95.3327 79.9226 92.1153 78.7056 88.4186C78.4413 87.6443 78.2357 86.8511 78.0906 86.0458C78.0215 85.6991 77.9907 85.3524 77.9523 85.0058C77.8532 84.3574 77.7891 83.7042 77.7601 83.049L77.1451 59.2745V58.8122V57.4409L76.5533 34.6756L76.4764 31.5247L76.4072 29.2135H76.5763C77.3918 29.2135 78.1738 28.8889 78.7505 28.3109C79.3271 27.733 79.6511 26.9492 79.6511 26.1319C79.6511 25.3146 79.3271 24.5308 78.7505 23.9529C78.1738 23.375 77.3918 23.0503 76.5763 23.0503H76.2535L76.192 20.7391H78.498V5.94749C78.498 2.65789 76.192 -0.00769043 73.394 -0.00769043H58.3047V335H110.206C112.225 334.994 114.159 334.185 115.583 332.75C117.007 331.316 117.805 329.373 117.801 327.35V296.388C117.787 294.7 117.216 293.065 116.177 291.737C115.138 290.409 113.69 289.462 112.059 289.046Z" fill="#009FE3"/>
<path d="M40.8404 29.229C40.0249 29.229 39.2428 28.9043 38.6662 28.3264C38.0896 27.7485 37.7656 26.9647 37.7656 26.1474C37.7656 25.3301 38.0896 24.5463 38.6662 23.9684C39.2428 23.3905 40.0249 23.0658 40.8404 23.0658H77.2991C78.1145 23.0658 78.8966 23.3905 79.4732 23.9684C80.0499 24.5463 80.3738 25.3301 80.3738 26.1474C80.3738 26.9647 80.0499 27.7485 79.4732 28.3264C78.8966 28.9043 78.1145 29.229 77.2991 29.229H40.8404Z" fill="#B3B2B2"/>
<path d="M44.0533 1.51992e-05C41.2322 1.51992e-05 38.9492 2.6656 38.9492 5.9552V20.7545H79.1975V5.94749C79.1975 2.65789 76.8915 -0.00769043 74.0935 -0.00769043L44.0533 1.51992e-05Z" fill="#3D3D3B"/>
<path d="M38.665 88.4417C39.1508 87.0607 39.4456 85.6195 39.5413 84.1583C39.5826 83.7976 39.6056 83.4351 39.6105 83.0721L39.7181 79.5282L40.2408 58.8353L40.8327 36.1394L40.9403 31.517L41.0095 29.2058H77.1377L77.2069 31.517L77.3145 36.1394L77.9064 58.8353L78.4368 79.5282L78.5367 83.0721C78.5367 83.4264 78.5751 83.7731 78.6059 84.1583C78.7016 85.6195 78.9964 87.0607 79.4822 88.4417H38.665Z" fill="#F9B233"/>
<path d="M40.8403 36.1394L40.9479 29.2289H77.2068L77.3067 36.1394H40.8403Z" fill="#F6F6F6"/>
<path d="M39.541 84.1583C39.5822 83.7976 39.6053 83.4351 39.6102 83.072L39.7178 79.5282H78.4287L78.5287 83.072C78.5287 83.4264 78.5671 83.7731 78.5978 84.1583H39.541Z" fill="#F6F6F6"/>
<path d="M39.9717 79.5282L40.5789 29.2289H77.7218L78.329 79.5282H39.9717Z" fill="#3D3D3B"/>
<path d="M24.9824 288.206C23.8955 288.209 22.8188 287.994 21.8162 287.574C20.8135 287.153 19.9052 286.535 19.1449 285.757C18.3846 284.978 17.7877 284.055 17.3895 283.041C16.9913 282.027 16.8 280.944 16.8267 279.855L18.4332 204.618L18.9636 180.343L19.5248 154.773C19.5749 152.628 20.4587 150.588 21.9879 149.087C23.5171 147.586 25.5708 146.743 27.7112 146.738H90.4282C92.5693 146.743 94.6238 147.586 96.1543 149.087C97.6848 150.588 98.5703 152.628 98.6224 154.773L99.1835 180.343L99.7062 204.618L101.313 279.855C101.339 280.943 101.148 282.026 100.751 283.039C100.353 284.052 99.7567 284.975 98.9972 285.754C98.2377 286.532 97.3303 287.15 96.3286 287.571C95.3268 287.993 94.251 288.208 93.1647 288.206H24.9824Z" fill="white"/>
<path opacity="0.5" d="M24.9899 282.96C24.5997 282.959 24.2136 282.88 23.8542 282.728C23.4947 282.575 23.1692 282.353 22.8965 282.073C22.6238 281.793 22.4095 281.462 22.2661 281.098C22.1227 280.735 22.053 280.346 22.0612 279.955L24.7516 154.873C24.7735 154.106 25.0921 153.377 25.64 152.841C26.1878 152.305 26.9222 152.003 27.688 152H90.428C91.193 152.003 91.9265 152.305 92.4732 152.842C93.0198 153.378 93.3367 154.107 93.3567 154.873L96.0624 279.955C96.0706 280.346 96.0009 280.735 95.8575 281.098C95.7141 281.462 95.4998 281.793 95.2271 282.073C94.9544 282.353 94.6289 282.575 94.2694 282.728C93.91 282.88 93.5239 282.959 93.1337 282.96H24.9899Z" fill="#F6F6F6"/>
<path d="M17.0107 273.854L17.0492 271.604L17.0876 270.132L17.4873 253.122L17.5258 251.651L17.5565 249.578H100.774L100.813 251.651L100.851 253.122L101.251 270.132L101.282 271.604L101.32 273.854H17.0107Z" fill="#F9B233"/>
<path d="M17.4878 253.122L17.5262 251.651H100.813L100.852 253.122H17.4878Z" fill="#F6F6F6"/>
<path d="M17.0493 271.604L17.0878 270.132H101.251L101.282 271.604H17.0493Z" fill="#F6F6F6"/>
<path d="M65.2228 186.429L59.6421 183.609L54.1614 186.614L55.1146 180.42L50.564 176.128L56.7365 175.119L59.4115 169.457L62.271 175.027L68.4666 175.828L64.0621 180.273L65.2228 186.429Z" fill="#F9B233" stroke="#F9B233" stroke-width="2" stroke-miterlimit="10"/>
<path d="M50.2601 177.327L46.3247 182.153L55.6988 189.831L59.6342 185.006L50.2601 177.327Z" fill="#009FE3" stroke="#F9B233" stroke-miterlimit="10"/>
<path d="M44.4537 181.205L40.9448 186.35L50.9403 193.197L54.4491 188.051L44.4537 181.205Z" fill="#009FE3" stroke="#F9B233" stroke-miterlimit="10"/>
<path d="M42.1036 187.769L39.8032 193.56L51.0512 198.048L53.3516 192.258L42.1036 187.769Z" fill="#009FE3" stroke="#F9B233" stroke-miterlimit="10"/>
<path d="M40.3814 194.437L39.793 200.641L51.8454 201.789L52.4339 195.585L40.3814 194.437Z" fill="#009FE3" stroke="#F9B233" stroke-miterlimit="10"/>
<path d="M38.8955 201.451V207.684H51.0023V201.451H38.8955Z" fill="#009FE3" stroke="#F9B233" stroke-miterlimit="10"/>
<path d="M40.4989 208.198L41.3794 214.367L53.3642 212.649L52.4837 206.48L40.4989 208.198Z" fill="#009FE3" stroke="#F9B233" stroke-miterlimit="10"/>
<path d="M43.354 214.033L45.5063 219.88L56.8648 215.681L54.7124 209.833L43.354 214.033Z" fill="#009FE3" stroke="#F9B233" stroke-miterlimit="10"/>
<path d="M47.6789 218.756L50.2241 224.443L61.2704 219.477L58.7252 213.79L47.6789 218.756Z" fill="#009FE3" stroke="#F9B233" stroke-miterlimit="10"/>
<path d="M59.341 184.381L63.2764 189.207L72.6504 181.528L68.715 176.702L59.341 184.381Z" fill="#009FE3" stroke="#F9B233" stroke-miterlimit="10"/>
<path d="M64.5688 187.465L68.0776 192.61L78.0731 185.764L74.5642 180.618L64.5688 187.465Z" fill="#009FE3" stroke="#F9B233" stroke-miterlimit="10"/>
<path d="M65.6391 191.624L67.9395 197.415L79.1875 192.927L76.8871 187.136L65.6391 191.624Z" fill="#009FE3" stroke="#F9B233" stroke-miterlimit="10"/>
<path d="M66.5668 194.96L67.1553 201.164L79.2077 200.016L78.6193 193.811L66.5668 194.96Z" fill="#009FE3" stroke="#F9B233" stroke-miterlimit="10"/>
<path d="M67.9902 200.85V207.083H80.097V200.85H67.9902Z" fill="#009FE3" stroke="#F9B233" stroke-miterlimit="10"/>
<path d="M66.5094 205.854L65.6289 212.023L77.6137 213.741L78.4942 207.572L66.5094 205.854Z" fill="#009FE3" stroke="#F9B233" stroke-miterlimit="10"/>
<path d="M64.292 209.22L62.1396 215.068L73.4981 219.267L75.6505 213.42L64.292 209.22Z" fill="#009FE3" stroke="#F9B233" stroke-miterlimit="10"/>
<path d="M60.2605 213.198L57.7153 218.885L68.7616 223.851L71.3068 218.164L60.2605 213.198Z" fill="#009FE3" stroke="#F9B233" stroke-miterlimit="10"/>
<path d="M59.5653 220.596C67.6357 220.596 74.178 211.259 74.178 199.741C74.178 188.223 67.6357 178.886 59.5653 178.886C51.495 178.886 44.9526 188.223 44.9526 199.741C44.9526 211.259 51.495 220.596 59.5653 220.596Z" fill="white" stroke="#F9B233" stroke-width="2" stroke-miterlimit="10"/>
<path d="M61.5254 230.511L60.4647 229.956C60.1864 229.808 59.8763 229.731 59.5614 229.731C59.2466 229.731 58.9365 229.808 58.6582 229.956L57.5975 230.511C57.2761 230.68 56.9139 230.756 56.5518 230.729C56.1897 230.703 55.8422 230.576 55.5487 230.362C55.2551 230.148 55.0272 229.855 54.8907 229.518C54.7542 229.181 54.7146 228.812 54.7764 228.454L54.9762 227.275C55.029 226.964 55.0063 226.645 54.91 226.345C54.8136 226.044 54.6465 225.771 54.4228 225.55L53.5619 224.741C53.3008 224.486 53.1162 224.164 53.0289 223.81C52.9417 223.456 52.9552 223.084 53.0682 222.738C53.1811 222.391 53.3888 222.083 53.6676 221.849C53.9465 221.614 54.2854 221.463 54.6457 221.412L55.8218 221.243C56.135 221.198 56.4324 221.076 56.6882 220.89C56.9441 220.703 57.1506 220.457 57.29 220.172L57.8204 219.101C57.9808 218.775 58.2292 218.5 58.5376 218.307C58.846 218.115 59.202 218.013 59.5653 218.013C59.9285 218.013 60.2845 218.115 60.5929 218.307C60.9013 218.5 61.1498 218.775 61.3102 219.101L61.8329 220.172C61.9733 220.456 62.1802 220.702 62.4358 220.888C62.6915 221.075 62.9883 221.196 63.3011 221.243L64.4849 221.412C64.8446 221.465 65.1825 221.617 65.4604 221.851C65.7383 222.086 65.9449 222.394 66.057 222.741C66.169 223.087 66.1819 223.458 66.0943 223.812C66.0066 224.165 65.8219 224.487 65.561 224.741L64.7232 225.55C64.4964 225.77 64.3268 226.042 64.229 226.343C64.1312 226.643 64.1082 226.964 64.162 227.275L64.3619 228.454C64.4257 228.815 64.3869 229.186 64.2499 229.525C64.1128 229.865 63.8831 230.159 63.5871 230.374C63.291 230.588 62.9406 230.715 62.576 230.739C62.2113 230.764 61.8472 230.684 61.5254 230.511Z" fill="#F9B233" stroke="#F9B233" stroke-width="2" stroke-miterlimit="10"/>
<path opacity="0.9" d="M59.5652 230.133C61.4713 230.133 63.0166 227.933 63.0166 225.218C63.0166 222.504 61.4713 220.303 59.5652 220.303C57.659 220.303 56.1138 222.504 56.1138 225.218C56.1138 227.933 57.659 230.133 59.5652 230.133Z" fill="#009FE3" stroke="#F9B233" stroke-width="2" stroke-miterlimit="10"/>
<path d="M65.9533 29.2289H52.9087V71.8858H65.9533V29.2289Z" fill="white"/>
</g>
<defs>
<clipPath id="clip0">
<rect width="119" height="335" fill="white"/>
</clipPath>
</defs>
</svg>
