<svg width="127" height="276" viewBox="0 0 127 276" fill="none" xmlns="http://www.w3.org/2000/svg">
<path d="M73.8302 0.26065L55.3836 0.13391C46.2681 0.0712796 38.8275 7.42654 38.7648 16.5623L38.4825 57.6509C38.4197 66.7867 45.7584 74.2435 54.874 74.3062L73.3206 74.4329C82.4361 74.4955 89.8767 67.1403 89.9394 58.0045L90.2217 16.9159C90.2845 7.78009 82.9458 0.32328 73.8302 0.26065Z" fill="#A2A2A2"/>
<path d="M86.2676 275.202L41.0366 275.201C25.4102 275.205 11.9889 262.199 11.0331 245.61L1.82735 86.1406C0.408252 62.0198 15.4131 41.7603 35.3097 41.897L92.8918 42.2926C112.701 42.4287 127.498 62.8294 126.018 86.843L116.273 245.69C115.248 262.241 101.807 275.205 86.2676 275.202Z" fill="#A2A2A2"/>
<path d="M45.0566 31.4728L43.6303 31.463C43.1391 31.4597 42.7266 30.3609 42.6967 28.947L42.4734 15.3096C42.4322 13.2444 42.9116 11.5085 43.5376 11.5128L45.3522 11.5252C45.9702 11.5295 46.4258 13.2719 46.3721 15.3205L46.0093 28.9142C45.9677 30.3514 45.54 31.4682 45.0566 31.4728Z" fill="#EDEDED"/>
<path d="M125.804 78.6454L2.01904 77.7949L1.92634 91.2873L125.712 92.1378L125.804 78.6454Z" fill="#EDEDED"/>
<path d="M90.0847 36.7853L38.6436 36.4319L38.606 41.8955L90.0471 42.249L90.0847 36.7853Z" fill="#EDEDED"/>
</svg>
