<svg width="355" height="270" viewBox="0 0 355 270" fill="none" xmlns="http://www.w3.org/2000/svg">
<g opacity="0.7">
<path opacity="0.34" d="M89.6567 191.969L193.188 108.935C194.2 108.123 194.359 106.649 193.542 105.642L109.321 1.82268C108.505 0.816029 107.022 0.658213 106.01 1.47019L2.4786 84.5042C1.46618 85.3161 1.30747 86.7904 2.12409 87.7971L86.3449 191.616C87.1615 192.623 88.6443 192.781 89.6567 191.969Z" fill="white"/>
<path opacity="0.41" d="M106.1 178.749L116.85 170.14C105.079 155.079 92.6633 140.504 82.7442 124.145C71.7453 106.038 63.8492 85.3167 64.758 63.5656C65.3789 49.1691 70.1613 35.256 78.5323 23.4933L18.9301 71.2759C8.83514 79.37 6.7927 93.5032 14.3712 102.856L74.1054 176.49C81.679 185.833 96.0055 186.843 106.1 178.749Z" fill="white"/>
</g>
<g opacity="0.55">
<path opacity="0.34" d="M353.012 167.628L258.543 87.7147C257.552 86.8766 256.066 86.9958 255.223 87.9809L172.452 184.717C171.609 185.702 171.729 187.18 172.72 188.018L267.189 267.932C268.179 268.77 269.666 268.651 270.509 267.666L353.28 170.93C354.122 169.944 354.003 168.467 353.012 167.628Z" fill="white"/>
<path opacity="0.41" d="M338.06 154.991L328.243 146.731C316.15 160.335 304.574 174.507 290.976 186.677C275.907 200.174 257.877 211.295 237.428 214.487C224.279 216.537 210.065 214.827 197.732 209.201L252.233 255.307C261.463 263.12 274.993 262.362 282.435 253.665L341.25 184.938C348.726 176.217 347.29 162.818 338.06 154.991Z" fill="white"/>
</g>
</svg>
