<svg width="249" height="251" viewBox="0 0 249 251" fill="none" xmlns="http://www.w3.org/2000/svg">
<path d="M88.1547 5.77637C21.571 26.8154 -15.2116 97.3777 6.00707 163.387C27.2257 229.397 98.4115 265.855 165 244.821L88.1547 5.77637Z" fill="#FFD840"/>
<path opacity="0.56" d="M91.9936 17.7764C29.9776 37.4178 -4.84311 101.528 14.2135 160.967C33.2702 220.406 98.989 252.663 161 233.021L91.9936 17.7764Z" fill="white"/>
<path d="M94.8941 27.7764C38.1847 45.6408 6.33985 103.947 23.7682 158.006C41.1965 212.065 101.295 241.412 158 223.538L94.8941 27.7764Z" fill="#FFD840"/>
<path opacity="0.56" d="M23 161.776L122 128.776" stroke="white" stroke-miterlimit="10"/>
<path opacity="0.56" d="M82 222.776L124 130.776" stroke="white" stroke-miterlimit="10"/>
<path opacity="0.56" d="M32 72.7764L122 127.776" stroke="white" stroke-miterlimit="10"/>
<path opacity="0.56" d="M164 244.776L88 6.77637" stroke="white" stroke-miterlimit="10"/>
<path d="M160.845 245.776C227.429 224.741 264.212 154.175 242.993 88.1614C221.774 22.1479 150.589 -14.3025 84 6.73293L160.845 245.776Z" fill="#FFD840"/>
<path opacity="0.56" d="M157.009 233.776C219.019 214.159 253.843 150.025 234.787 90.5869C215.731 31.1484 150.014 -1.11286 88 18.5333L157.009 233.776Z" fill="white"/>
<path d="M154.109 224.776C210.816 206.823 242.66 148.226 225.232 93.8986C207.804 39.5709 147.707 10.0776 91 28.0406L154.109 224.776Z" fill="#FFD840"/>
<path opacity="0.56" d="M226 90.7764L126 127.776" stroke="white" stroke-miterlimit="10"/>
<path opacity="0.56" d="M167 29.7764L125 126.776" stroke="white" stroke-miterlimit="10"/>
<path opacity="0.56" d="M217 179.776L127 131.776" stroke="white" stroke-miterlimit="10"/>
<path opacity="0.56" d="M85 6.77637L161 244.776" stroke="white" stroke-miterlimit="10"/>
</svg>
