<svg width="117" height="172" viewBox="0 0 117 172" fill="none" xmlns="http://www.w3.org/2000/svg">
<g clip-path="url(#clip0)">
<path d="M114.023 46.8137H2.97745C1.26403 46.8137 -0.0945876 48.3471 0.00516204 50.1661L7.06087 91.1531C7.15304 92.8274 8.4561 94.1356 10.0332 94.1356H11.6885L24.7368 170.982C24.8857 171.57 25.656 171.999 26.5588 171.999H93.4276C94.3254 171.999 95.0931 171.574 95.2471 170.992L106.67 94.1331H106.764C108.34 94.1331 109.644 92.8249 109.735 91.1506L116.995 50.1636C117.095 48.3471 115.74 46.8137 114.023 46.8137Z" fill="#D6ECED"/>
<path d="M114.023 46.8137H57.9888V171.999H93.4277C94.3254 171.999 95.0931 171.574 95.2471 170.992L106.67 94.1331H106.764C108.34 94.1331 109.644 92.8249 109.735 91.1506L116.995 50.1636C117.095 48.3471 115.74 46.8137 114.023 46.8137Z" fill="#BAE0E1"/>
<path d="M8.30297 47.1545H109.098C110.192 47.1545 111.021 47.7722 110.833 48.4464L94.998 150.762C94.8503 151.291 92.6962 159.896 86.2996 159.896H33.4714C27.3312 159.896 25.2983 151.946 25.1569 151.415L6.56682 48.4389C6.38626 47.7672 7.2133 47.1545 8.30297 47.1545Z" fill="white"/>
<path d="M111.115 0.858378L105.562 0.00585938L81.7598 153.891L87.313 154.743L111.115 0.858378Z" fill="#322F38"/>
<g opacity="0.76">
<path opacity="0.76" d="M8.30297 47.1545H109.098C110.192 47.1545 111.021 47.7722 110.833 48.4464L94.998 150.762C94.8503 151.291 92.6962 159.896 86.2996 159.896H33.4714C27.3312 159.896 25.2983 151.946 25.1569 151.415L6.56682 48.4389C6.38626 47.7672 7.2133 47.1545 8.30297 47.1545Z" fill="#EB5C8E"/>
<path opacity="0.55" d="M16.1504 101.527L25.1569 151.411C25.2983 151.942 27.3312 159.892 33.4715 159.892H86.2996C92.6963 159.892 94.8503 151.287 94.9981 150.759L102.618 101.527H16.1504Z" fill="#EF7EAC"/>
<path opacity="0.47" d="M21.3955 130.583L25.157 151.412C25.2984 151.942 27.3312 159.892 33.4715 159.892H86.2997C92.6963 159.892 94.8504 151.287 94.9981 150.759L98.1206 130.583H21.3955Z" fill="#EE7BA9"/>
<path opacity="0.72" d="M24.3413 146.894L25.157 151.412C25.2984 151.942 27.3313 159.892 33.4716 159.892H86.2997C92.6963 159.892 94.8504 151.287 94.9981 150.759L95.5966 146.894H24.3413Z" fill="#EB5C8E"/>
</g>
<g opacity="0.83">
<path opacity="0.34" d="M45.4417 155.27L63.4826 137.515C63.7217 137.28 63.724 136.896 63.4878 136.657L44.1096 117.114C43.8734 116.876 43.4881 116.874 43.249 117.109L25.2081 134.864C24.969 135.1 24.9667 135.483 25.2029 135.722L44.5811 155.265C44.8173 155.503 45.2026 155.505 45.4417 155.27Z" fill="white"/>
<path opacity="0.41" d="M48.2333 152.511L50.1273 150.649C47.3797 147.784 44.5173 145.019 42.1031 141.874C39.4263 138.388 37.2924 134.338 36.877 129.969C36.6093 127.16 37.156 124.214 38.5109 121.764L28.0018 132.105C27.5784 132.521 27.2416 133.017 27.0104 133.563C26.7793 134.109 26.6585 134.696 26.6549 135.288C26.6512 135.881 26.7649 136.469 26.9893 137.018C27.2137 137.567 27.5444 138.066 27.9627 138.488L41.8266 152.472C42.2446 152.894 42.742 153.23 43.2902 153.46C43.8385 153.69 44.4269 153.81 45.0218 153.814C45.6168 153.818 46.2066 153.704 46.7577 153.481C47.3087 153.257 47.8101 152.928 48.2333 152.511Z" fill="white"/>
</g>
<g opacity="0.7">
<path opacity="0.34" d="M36.4986 98.2753L62.8237 77.1208C63.0853 76.9105 63.1263 76.5288 62.9153 76.2682L41.4997 49.8175C41.2887 49.5569 40.9055 49.516 40.6439 49.7262L14.3189 70.8808C14.0573 71.091 14.0163 71.4727 14.2273 71.7334L35.6428 98.184C35.8539 98.4447 36.237 98.4855 36.4986 98.2753Z" fill="white"/>
<path opacity="0.41" d="M40.674 94.9105L43.4038 92.7166C40.4101 88.8787 37.2509 85.1552 34.7269 80.9915C31.9288 76.3762 29.9199 71.0929 30.151 65.5492C30.3087 61.879 31.5257 58.332 33.6561 55.3336L18.4955 67.5141C15.9272 69.5784 15.4083 73.1748 17.3363 75.5648L32.5311 94.3356C34.4604 96.7168 38.1057 96.9747 40.674 94.9105Z" fill="white"/>
</g>
<g opacity="0.55">
<path opacity="0.34" d="M103.486 92.0706L79.466 71.7114C79.21 71.4944 78.8259 71.5252 78.6081 71.7803L57.562 96.4255C57.3442 96.6806 57.3751 97.0632 57.6311 97.2802L81.6516 117.639C81.9076 117.856 82.2917 117.826 82.5095 117.571L103.556 92.9253C103.773 92.6703 103.742 92.2876 103.486 92.0706Z" fill="white"/>
<path opacity="0.41" d="M99.6889 88.8598L97.1914 86.744C94.113 90.2209 91.1698 93.8299 87.7101 96.9332C83.8754 100.374 79.2882 103.209 74.0861 104.022C70.7401 104.545 67.12 104.11 63.9849 102.674L77.8501 114.428C80.1986 116.42 83.6419 116.232 85.5396 114.01L100.503 96.4892C102.404 94.2664 102.037 90.8511 99.6889 88.8598Z" fill="white"/>
</g>
<g opacity="0.5">
<path opacity="0.5" d="M62.423 129.733C62.2996 131.019 61.7001 132.213 60.7414 133.084C59.7827 133.954 58.5332 134.438 57.2361 134.441C55.939 134.445 54.6872 133.967 53.7241 133.101C52.761 132.236 52.1556 131.044 52.0258 129.758C51.8959 128.473 52.2508 127.185 53.0215 126.145C53.7922 125.106 54.9234 124.389 56.1951 124.135C57.4669 123.881 58.7881 124.107 59.9016 124.769C61.0152 125.432 61.8415 126.484 62.2197 127.72C62.4184 128.371 62.4874 129.055 62.423 129.733ZM62.423 129.733C62.5038 128.883 62.3728 128.027 62.0416 127.24C61.7105 126.453 61.1895 125.76 60.5248 125.222C59.8601 124.684 59.0724 124.317 58.2315 124.155C57.3906 123.993 56.5225 124.041 55.7044 124.293C54.724 124.596 53.8554 125.181 53.2079 125.975C52.5605 126.768 52.1631 127.735 52.0659 128.753C51.9688 129.771 52.176 130.795 52.6617 131.696C53.1474 132.597 53.8897 133.334 54.7953 133.816C55.5515 134.216 56.3949 134.424 57.251 134.421C58.1071 134.419 58.9494 134.207 59.7035 133.803C60.4576 133.4 61.1003 132.817 61.5746 132.107C62.0489 131.397 62.3403 130.581 62.423 129.733Z" fill="white"/>
<path opacity="0.5" d="M75.7855 147.717C75.7056 148.535 75.3435 149.3 74.7609 149.881C74.1783 150.463 73.4112 150.825 72.5905 150.907C71.7697 150.988 70.9461 150.783 70.2599 150.327C69.5737 149.871 69.0675 149.192 68.8276 148.406C68.5876 147.62 68.6287 146.775 68.9439 146.016C69.259 145.257 69.8288 144.63 70.556 144.242C71.2832 143.854 72.1229 143.73 72.9319 143.89C73.7409 144.05 74.4692 144.484 74.9926 145.119C75.5918 145.846 75.877 146.781 75.7855 147.717ZM75.7855 147.717C75.8646 146.903 75.6581 146.088 75.2013 145.409C74.7444 144.73 74.0655 144.23 73.2802 143.994C72.4948 143.758 71.6515 143.8 70.894 144.114C70.1364 144.427 69.5114 144.993 69.1255 145.714C68.7395 146.435 68.6164 147.268 68.7772 148.069C68.938 148.871 69.3726 149.592 70.0072 150.11C70.6417 150.628 71.4369 150.911 72.2573 150.91C73.0777 150.91 73.8725 150.626 74.5065 150.107C75.2337 149.511 75.6937 148.651 75.7855 147.717Z" fill="white"/>
<path opacity="0.5" d="M70.6479 112.744C70.5885 113.344 70.3221 113.905 69.8941 114.331C69.4661 114.757 68.9031 115.022 68.3009 115.081C67.6988 115.14 67.0948 114.989 66.5918 114.654C66.0889 114.319 65.7182 113.82 65.5429 113.243C65.3675 112.666 65.3984 112.047 65.6303 111.49C65.8622 110.933 66.2807 110.474 66.8145 110.19C67.3483 109.906 67.9644 109.815 68.5577 109.933C69.151 110.052 69.6849 110.371 70.0684 110.837C70.5071 111.371 70.7155 112.057 70.6479 112.744ZM70.6479 112.744C70.7063 112.148 70.5556 111.551 70.2213 111.053C69.8871 110.555 69.3901 110.189 68.8149 110.015C68.2397 109.841 67.6219 109.872 67.0667 110.101C66.5115 110.33 66.0532 110.744 65.7699 111.272C65.4866 111.8 65.3958 112.41 65.513 112.997C65.6301 113.584 65.9479 114.113 66.4124 114.493C66.8768 114.873 67.4591 115.081 68.0601 115.081C68.6611 115.082 69.2436 114.875 69.7085 114.495C70.2415 114.058 70.5792 113.429 70.6479 112.744Z" fill="white"/>
<path opacity="0.5" d="M48.9201 95.1381C48.1593 95.4563 47.3113 95.5018 46.5206 95.2668C45.7299 95.0318 45.0455 94.531 44.584 93.8495C44.1225 93.1681 43.9125 92.3484 43.9898 91.53C44.0671 90.7116 44.4268 89.9452 45.0078 89.3615C45.5887 88.7778 46.3549 88.4128 47.1757 88.3289C47.9965 88.2449 48.8211 88.4472 49.509 88.9011C50.1969 89.355 50.7054 90.0326 50.948 90.8183C51.1906 91.6039 51.1522 92.4491 50.8393 93.2097C50.4801 94.0797 49.7902 94.7729 48.9201 95.1381ZM48.9201 95.1381C49.6771 94.8216 50.3006 94.2534 50.6843 93.5303C51.068 92.8072 51.1883 91.974 51.0245 91.1725C50.8608 90.371 50.4232 89.6508 49.7863 89.1346C49.1494 88.6185 48.3527 88.3382 47.5317 88.3417C46.7107 88.3451 45.9162 88.6319 45.2837 89.1534C44.6512 89.6748 44.2197 90.3986 44.0627 91.2014C43.9057 92.0043 44.0329 92.8365 44.4226 93.5564C44.8124 94.2762 45.4406 94.8392 46.2003 95.1494C47.0729 95.5034 48.0505 95.4993 48.9201 95.1381Z" fill="white"/>
<path opacity="0.5" d="M68.8803 75.3661C68.3223 75.6006 67.6999 75.6348 67.1193 75.4632C66.5388 75.2915 66.036 74.9245 65.6967 74.4247C65.3574 73.925 65.2027 73.3234 65.2588 72.7227C65.315 72.122 65.5786 71.5593 66.0048 71.1305C66.4309 70.7018 66.9931 70.4337 67.5955 70.3718C68.1979 70.3099 68.8032 70.4581 69.3081 70.7912C69.8131 71.1243 70.1864 71.6216 70.3645 72.1983C70.5425 72.7749 70.5142 73.3953 70.2844 73.9535C70.0221 74.5907 69.5173 75.0985 68.8803 75.3661ZM68.8803 75.3661C69.4357 75.1364 69.8939 74.7221 70.177 74.1936C70.4602 73.6651 70.5507 73.0552 70.4331 72.4677C70.3156 71.8802 69.9972 71.3515 69.5323 70.9715C69.0674 70.5916 68.4847 70.3839 67.8834 70.3839C67.2821 70.3839 66.6994 70.5916 66.2345 70.9715C65.7696 71.3515 65.4513 71.8802 65.3338 72.4677C65.2162 73.0552 65.3067 73.6651 65.5898 74.1936C65.873 74.7221 66.3312 75.1364 66.8866 75.3661C67.5249 75.6293 68.242 75.6293 68.8803 75.3661Z" fill="white"/>
<path opacity="0.5" d="M76.961 61.373C76.6137 61.5204 76.222 61.5249 75.8713 61.3856C75.6065 61.2802 75.3791 61.0987 75.218 60.8642C75.057 60.6297 74.9696 60.3528 74.9669 60.0686C74.9642 59.7845 75.0463 59.506 75.2029 59.2685C75.3595 59.031 75.5834 58.8453 75.8462 58.7349C76.1089 58.6245 76.3988 58.5944 76.6787 58.6485C76.9587 58.7026 77.2162 58.8384 77.4186 59.0387C77.6209 59.2389 77.7589 59.4946 77.815 59.7731C77.8711 60.0517 77.8429 60.3406 77.7338 60.6032C77.5885 60.9515 77.3106 61.2283 76.961 61.373ZM76.961 61.373C77.2183 61.2649 77.4375 61.083 77.5907 60.8504C77.7439 60.6178 77.8241 60.345 77.8211 60.0668C77.8181 59.7886 77.7321 59.5176 77.574 59.2883C77.4159 59.059 77.1928 58.8818 76.9332 58.7792C76.6767 58.6779 76.3959 58.654 76.1258 58.7104C75.8557 58.7668 75.6082 58.9011 75.414 59.0965C75.2199 59.2919 75.0877 59.5399 75.0338 59.8095C74.98 60.0792 75.0069 60.3587 75.1112 60.6132C75.1822 60.7844 75.2865 60.9398 75.4181 61.0705C75.5498 61.2013 75.7061 61.3047 75.8781 61.3749C76.0501 61.4451 76.2344 61.4806 76.4203 61.4794C76.6061 61.4782 76.7899 61.4403 76.961 61.368V61.373Z" fill="white"/>
</g>
</g>
<defs>
<clipPath id="clip0">
<rect width="117" height="172" fill="white"/>
</clipPath>
</defs>
</svg>
