<svg width="107" height="172" viewBox="0 0 107 172" fill="none" xmlns="http://www.w3.org/2000/svg">
<g clip-path="url(#clip0)">
<path d="M85.0878 0.598749L80.5244 0.00491333L60.9684 107.178L65.5319 107.772L85.0878 0.598749Z" fill="#322F38"/>
<path d="M18.6792 33.544H86.0076C86.7383 33.544 87.2924 34.3036 87.1665 35.1319L75.6141 170.879C75.5159 171.527 75.0277 171.999 74.4552 171.999H31.8772C31.3031 171.999 30.8134 171.522 30.7183 170.87L17.5172 35.1228C17.4021 34.2971 17.9516 33.544 18.6792 33.544Z" fill="#D6ECED"/>
<path d="M86.0079 33.544H52.7397V171.999H74.4555C75.028 171.999 75.5161 171.527 75.6144 170.879L87.1668 35.1319C87.2927 34.3036 86.7386 33.544 86.0079 33.544Z" fill="#BAE0E1"/>
<path d="M21.2934 33.6036H83.3951C84.069 33.6036 84.5786 34.3113 84.4696 35.0839L73.8136 158.832C73.4744 161.888 71.7767 162.769 69.7965 162.769H36.3703C34.7431 162.769 32.4805 162.299 32.3961 159.184L20.2235 35.0762C20.113 34.3049 20.6257 33.6036 21.2934 33.6036Z" fill="white"/>
<path d="M73.1229 8.67609C78.5244 11.1373 82.5479 15.3086 84.3095 20.2735C86.071 25.2385 85.4266 30.5909 82.5177 35.1548C79.6089 39.7187 74.6735 43.1208 68.796 44.6135C62.9185 46.1063 56.5798 45.5675 51.1724 43.1157L73.1229 8.67609Z" fill="#F6A229"/>
<path d="M72.027 10.3975C82.5372 15.1756 86.631 25.9879 81.1818 34.5434C75.7325 43.0989 62.7832 46.1711 52.2715 41.3943L72.027 10.3975Z" fill="#FFD840"/>
<path d="M71.1445 11.782C80.7168 16.1323 84.45 25.9789 79.4827 33.7734C74.5154 41.568 62.7266 44.3615 53.1543 40.0098L71.1445 11.782Z" fill="#F6A229"/>
<path d="M79.5472 34.3579C78.044 33.7262 76.5504 33.0806 75.0666 32.4213C73.5827 31.7619 72.1025 31.0947 70.6258 30.4198C69.1522 29.7419 67.6801 29.0613 66.2173 28.3678C64.7544 27.6743 63.2992 26.973 61.8486 26.2471C63.3529 26.8788 64.847 27.5248 66.3308 28.185C67.8167 28.8422 69.2949 29.5137 70.7716 30.1865C72.2483 30.8592 73.7173 31.545 75.1802 32.2385C76.643 32.932 78.1013 33.6359 79.5472 34.3579Z" fill="#FFD840"/>
<path d="M66.7832 42.006C66.3104 40.7244 65.8555 39.4385 65.4186 38.1483C64.978 36.8585 64.5559 35.5661 64.1353 34.2724C63.7147 32.9787 63.311 31.6798 62.9181 30.3835C62.5251 29.0872 62.1506 27.7806 61.7837 26.4726C62.2585 27.7534 62.7134 29.0393 63.1483 30.3304C63.5889 31.6189 64.0125 32.9126 64.4316 34.2063C64.8506 35.5 65.2559 36.7988 65.6488 38.0951C66.0418 39.3914 66.424 40.6981 66.7832 42.006Z" fill="#FFD840"/>
<path d="M80.9516 20.4722C79.4003 20.9907 77.8417 21.4923 76.276 21.9772C74.7118 22.4671 73.1415 22.9416 71.5712 23.4147C70.0009 23.8879 68.4245 24.3481 66.8449 24.7979C65.2654 25.2477 63.6813 25.6897 62.0864 26.1123C63.6388 25.5938 65.1969 25.0921 66.7605 24.6073C68.3247 24.1173 69.895 23.6429 71.4653 23.171C73.0356 22.6992 74.6121 22.2377 76.1931 21.7879C77.7742 21.3381 79.3552 20.8948 80.9516 20.4722Z" fill="#FFD840"/>
<path d="M51.2612 43.0988C52.1377 41.6574 53.0326 40.2224 53.9168 38.7848L56.6 34.4837C58.3929 31.6177 60.2088 28.7619 62.0124 25.901C63.816 23.0401 65.6504 20.1974 67.4862 17.3456L70.2493 13.0782C71.1795 11.6614 72.0913 10.2393 73.0368 8.8251C72.1603 10.2666 71.267 11.7003 70.3813 13.1391L67.6935 17.4324C65.9006 20.2985 64.0862 23.1542 62.2826 26.0151C60.4789 28.876 58.6446 31.7188 56.8072 34.5706L54.0442 38.838C53.1186 40.2574 52.1991 41.6794 51.2612 43.0988Z" fill="#FFD840"/>
<path d="M23.2046 3.00735C23.8186 5.45863 24.3927 7.91508 24.9883 10.3689L26.7259 17.737C27.3123 20.1922 27.8649 22.6525 28.4328 25.1103L30.1213 32.4861L31.7761 39.8685C32.3241 42.3314 32.8889 44.7879 33.4185 47.2573L35.0303 54.6461C35.5506 57.109 36.0879 59.572 36.5944 62.0427C35.9804 59.5914 35.4048 57.1363 34.8092 54.6824L33.0716 47.313C32.4852 44.8579 31.9342 42.3975 31.3647 39.9398L29.6762 32.5639L28.0214 25.1829C27.4734 22.7199 26.9116 20.257 26.3805 17.7941L24.7688 10.4052C24.2469 7.93842 23.7111 5.47548 23.2046 3.00735Z" fill="#DEBEA6"/>
<path d="M0.210225 26.3936L24.1041 9.59897C24.3246 9.4395 24.5892 9.32962 24.8734 9.27954C25.1575 9.22946 25.4521 9.24079 25.7297 9.3125L56.2886 18.1661C56.7153 18.2789 56.6754 18.8557 56.2364 18.9244L0.589372 27.2401C0.0567251 27.3218 -0.219576 26.6944 0.210225 26.3936Z" fill="#E4473A"/>
<g opacity="0.65">
<path opacity="0.65" d="M43.163 20.5527L56.2382 18.9245C56.6772 18.8558 56.7171 18.2764 56.2904 18.1662L26.2964 9.46167L43.163 20.5527Z" fill="#ED6A72"/>
<path opacity="0.65" d="M23.481 23.6443L34.4716 21.9176L24.9423 9.28923L24.8686 9.28534L23.481 23.6443Z" fill="#ED6A72"/>
<path opacity="0.65" d="M23.8588 9.77145L0.21054 26.3937C-0.216192 26.6944 0.0662478 27.3218 0.592754 27.2402L13.4239 25.2245C17.0142 19.9408 21.0666 13.9597 23.8588 9.77145Z" fill="#ED6A72"/>
</g>
<g opacity="0.75">
<path opacity="0.75" d="M21.0773 33.9276H83.5843C84.2627 33.9276 84.7769 34.6367 84.6588 35.4119L73.9337 159.386C73.5914 162.446 71.8829 163.33 69.8889 163.33H36.2524C34.6145 163.33 32.3366 162.859 32.2614 159.738L19.9998 35.4028C19.8877 34.6315 20.4019 33.9276 21.0773 33.9276Z" fill="#E94855"/>
<path opacity="0.75" d="M25.8574 94.0635L32.3229 159.679C32.4073 162.799 34.6852 163.269 36.3231 163.269H69.9612C71.9567 163.269 73.6621 162.387 74.0044 159.325L79.6517 94.0635H25.8574Z" fill="#0AB09F"/>
<path opacity="0.75" d="M83.5839 33.9276H21.077C20.4016 33.9276 19.8874 34.6315 20.0025 35.4028L21.7217 52.8508H83.1511L84.66 35.4119C84.7766 34.6367 84.2624 33.9276 83.5839 33.9276Z" fill="#FDCB5B"/>
</g>
<g opacity="0.77">
<path opacity="0.34" d="M56.3456 48.3297L32.8183 45.6787C32.4133 45.6331 32.0412 45.8733 31.9871 46.2154L28.57 67.8428C28.5159 68.1848 28.8005 68.4991 29.2055 68.5447L52.7328 71.1957C53.1378 71.2414 53.5099 71.0011 53.564 70.659L56.9811 49.0317C57.0352 48.6896 56.7506 48.3753 56.3456 48.3297Z" fill="white"/>
<path opacity="0.41" d="M49.2062 70.7965L46.7041 70.5152C47.1401 67.3497 47.7219 64.192 47.7464 61.0083C47.7725 57.4785 47.0649 53.8489 44.8729 50.8441C43.4638 48.9114 41.3593 47.2845 38.9263 46.3655L52.8181 47.9301C53.3778 47.993 53.9175 48.1484 54.4061 48.3875C54.8947 48.6266 55.3227 48.9446 55.6657 49.3235C56.0087 49.7023 56.2599 50.1346 56.405 50.5954C56.5501 51.0563 56.5862 51.5368 56.5113 52.0095L54.0369 67.6777C53.9624 68.1504 53.7783 68.6061 53.4952 69.0187C53.2121 69.4313 52.8355 69.7928 52.3869 70.0824C51.9382 70.3721 51.4264 70.5842 50.8807 70.7068C50.3349 70.8293 49.7659 70.8598 49.2062 70.7965Z" fill="white"/>
</g>
<g opacity="0.77">
<path opacity="0.34" d="M40.4282 95.2656L62.2869 106.818C62.6333 107.001 63.0898 106.912 63.3066 106.62L77.5949 87.3399C77.8117 87.0474 77.7067 86.6618 77.3603 86.4788L55.5016 74.9262C55.1552 74.7431 54.6987 74.8319 54.4819 75.1244L40.1935 94.4045C39.9768 94.697 40.0818 95.0825 40.4282 95.2656Z" fill="white"/>
<path opacity="0.41" d="M58.8228 76.6726L61.1361 77.895C59.1129 80.7352 56.9501 83.5118 55.3215 86.527C53.5148 89.8688 52.3789 93.5866 53.019 97.2771C53.4334 99.6998 54.6771 101.967 56.5971 103.801L43.7521 97.0113C41.5755 95.8615 40.8725 93.4958 42.1834 91.7277L52.5139 77.79C53.8202 76.0245 56.6462 75.5267 58.8228 76.6726Z" fill="white"/>
</g>
<g opacity="0.77">
<path opacity="0.34" d="M41.7726 140.812L67.0274 133.722C67.4152 133.613 67.625 133.259 67.4961 132.932L58.3608 109.727C58.2319 109.4 57.8131 109.223 57.4253 109.331L32.1706 116.422C31.7828 116.531 31.573 116.884 31.7019 117.212L40.8371 140.416C40.966 140.744 41.3849 140.921 41.7726 140.812Z" fill="white"/>
<path opacity="0.41" d="M36.0083 115.346L38.6777 114.597C40.07 117.946 41.3148 121.348 43.1292 124.547C45.1431 128.094 47.9507 131.437 51.8787 133.542C54.4069 134.896 57.4554 135.659 60.4226 135.576L45.6052 139.735C45.0084 139.903 44.3784 139.97 43.751 139.932C43.1237 139.894 42.5113 139.752 41.9489 139.514C41.3866 139.276 40.8852 138.947 40.4735 138.546C40.0619 138.144 39.7479 137.678 39.5496 137.174L32.9752 120.461C32.5744 119.443 32.6687 118.332 33.2375 117.373C33.8064 116.414 34.803 115.685 36.0083 115.346Z" fill="white"/>
</g>
<g opacity="0.56">
<path opacity="0.56" d="M52.8226 69.9319C52.8207 70.7718 52.474 71.5852 51.8415 72.2334C51.209 72.8815 50.3298 73.3244 49.3539 73.4865C48.378 73.6486 47.3658 73.5198 46.4897 73.1222C45.6137 72.7245 44.928 72.0826 44.5497 71.3058C44.1713 70.529 44.1237 69.6655 44.4149 68.8624C44.7061 68.0593 45.3182 67.3663 46.1467 66.9016C46.9752 66.4369 47.9689 66.2293 48.9584 66.314C49.9479 66.3988 50.872 66.7708 51.5731 67.3665C52.3753 68.0482 52.8247 68.9708 52.8226 69.9319ZM52.8226 69.9319C52.8244 69.0972 52.4836 68.2877 51.8581 67.6414C51.2326 66.9951 50.3612 66.5519 49.3922 66.3873C48.4232 66.2226 47.4166 66.3467 46.5437 66.7384C45.6709 67.1301 44.9859 67.7652 44.6052 68.5355C44.2246 69.3058 44.172 70.1637 44.4563 70.9632C44.7406 71.7626 45.3442 72.4541 46.1644 72.9199C46.9846 73.3857 47.9706 73.597 48.9546 73.5178C49.9385 73.4386 50.8596 73.0738 51.5608 72.4856C52.3642 71.8084 52.8178 70.8904 52.8226 69.9319Z" fill="white"/>
<path opacity="0.56" d="M40.3538 84.904C40.3549 85.3944 40.1838 85.8741 39.8621 86.2824C39.5403 86.6907 39.0825 87.0093 38.5464 87.1978C38.0102 87.3864 37.42 87.4365 36.8501 87.3417C36.2803 87.247 35.7566 87.0117 35.3451 86.6656C35.0005 86.3779 34.7453 86.0227 34.6024 85.6317C34.4596 85.2406 34.4333 84.8258 34.526 84.4242C34.6187 84.0225 34.8275 83.6464 35.1339 83.3293C35.4402 83.0122 35.8346 82.7639 36.282 82.6066C36.7293 82.4492 37.2158 82.3877 37.6981 82.4274C38.1805 82.4671 38.6437 82.6068 39.0466 82.8342C39.4496 83.0615 39.7798 83.3694 40.0078 83.7305C40.2359 84.0916 40.3547 84.4947 40.3538 84.904ZM40.3538 84.904C40.3567 84.3341 40.1254 83.7811 39.6996 83.3391C39.2737 82.8971 38.6795 82.5935 38.0183 82.48C37.357 82.3665 36.6696 82.4501 36.0732 82.7167C35.4768 82.9832 35.0083 83.4161 34.7475 83.9416C34.4867 84.4672 34.4497 85.0528 34.6429 85.5988C34.8361 86.1447 35.2475 86.6173 35.807 86.9358C36.3665 87.2543 37.0395 87.3992 37.7113 87.3456C38.383 87.2921 39.0121 87.0435 39.4911 86.6423C40.0403 86.1824 40.3506 85.5571 40.3538 84.904Z" fill="white"/>
<path opacity="0.56" d="M37.818 58.4171C37.803 58.8929 37.5687 59.345 37.1648 59.677C36.761 60.0091 36.2196 60.1949 35.656 60.1949C35.0923 60.1949 34.551 60.0091 34.1471 59.677C33.7433 59.345 33.5089 58.8929 33.4939 58.4171C33.4862 58.1732 33.5365 57.9305 33.6417 57.7033C33.7469 57.4761 33.9049 57.269 34.1064 57.0942C34.3079 56.9195 34.5489 56.7805 34.815 56.6857C35.0812 56.5908 35.3671 56.542 35.656 56.542C35.9449 56.542 36.2308 56.5908 36.497 56.6857C36.7631 56.7805 37.004 56.9195 37.2056 57.0942C37.4071 57.269 37.5651 57.4761 37.6703 57.7033C37.7755 57.9305 37.8257 58.1732 37.818 58.4171ZM37.818 58.4171C37.8166 58.1801 37.7599 57.9456 37.6511 57.7271C37.5423 57.5087 37.3836 57.3104 37.184 57.1438C36.9844 56.9772 36.7478 56.8454 36.4879 56.7561C36.2279 56.6667 35.9497 56.6215 35.669 56.623C35.3211 56.6262 34.9793 56.7015 34.6739 56.8423C34.3684 56.9831 34.1086 57.1851 33.9173 57.4306C33.7259 57.676 33.6089 57.9574 33.5766 58.25C33.5442 58.5426 33.5974 58.8375 33.7316 59.1086C33.8657 59.3798 34.0767 59.619 34.346 59.8051C34.6153 59.9913 34.9345 60.1187 35.2758 60.1763C35.6171 60.2338 35.9698 60.2197 36.3031 60.1351C36.6364 60.0506 36.94 59.8982 37.1872 59.6913C37.5881 59.3534 37.8148 58.8954 37.818 58.4171Z" fill="white"/>
<path opacity="0.56" d="M44.0563 52.3297C44.0572 52.4597 44.0277 52.5885 43.9695 52.7089C43.9113 52.8292 43.8255 52.9387 43.7171 53.031C43.497 53.2212 43.1964 53.3298 42.8816 53.3329C42.5667 53.3361 42.2632 53.2335 42.0378 53.0478C41.9246 52.9544 41.8346 52.8428 41.7732 52.7196C41.7118 52.5963 41.6802 52.464 41.6802 52.3303C41.6802 52.1966 41.7118 52.0643 41.7732 51.9411C41.8346 51.8179 41.9246 51.7063 42.0378 51.6128C42.205 51.4748 42.4166 51.3816 42.6463 51.3447C42.8759 51.3078 43.1133 51.329 43.3288 51.4055C43.5443 51.482 43.7282 51.6105 43.8576 51.7749C43.987 51.9393 44.0562 52.1323 44.0563 52.3297ZM44.0563 52.3297C44.0563 52.2007 44.026 52.0731 43.9669 51.9542C43.9079 51.8353 43.8214 51.7275 43.7125 51.6371C43.6037 51.5467 43.4746 51.4756 43.3327 51.4278C43.1909 51.38 43.0393 51.3565 42.8866 51.3587C42.584 51.364 42.2958 51.4692 42.0838 51.6517C41.8743 51.8333 41.757 52.0768 41.757 52.3303C41.757 52.5839 41.8743 52.8274 42.0838 53.0089C42.2972 53.1927 42.5881 53.2975 42.8928 53.3004C43.1975 53.3033 43.4912 53.2041 43.7094 53.0245C43.9292 52.8407 44.0539 52.5909 44.0563 52.3297Z" fill="white"/>
</g>
<g opacity="0.59">
<path opacity="0.59" d="M43.8307 112.571C43.823 111.731 44.1604 110.915 44.7855 110.261C45.4105 109.608 46.2846 109.158 47.2586 108.988C48.2326 108.818 49.2463 108.938 50.1269 109.329C51.0074 109.719 51.7004 110.356 52.0876 111.129C52.4747 111.903 52.5322 112.766 52.2502 113.572C51.9681 114.377 51.364 115.075 50.5409 115.546C49.7177 116.018 48.7264 116.233 47.7359 116.157C46.7455 116.08 45.8172 115.716 45.1094 115.126C44.2994 114.45 43.8396 113.532 43.8307 112.571ZM43.8307 112.571C43.8395 113.405 44.1907 114.212 44.8245 114.852C45.4583 115.493 46.3354 115.928 47.3065 116.084C48.2777 116.24 49.2827 116.106 50.1505 115.707C51.0182 115.307 51.6951 114.665 52.0657 113.891C52.4363 113.118 52.4778 112.259 52.1831 111.462C51.8884 110.666 51.2757 109.98 50.4494 109.522C49.6231 109.063 48.6343 108.861 47.6513 108.95C46.6684 109.038 45.7522 109.412 45.0587 110.007C44.2647 110.691 43.8233 111.613 43.8307 112.571Z" fill="white"/>
<path opacity="0.59" d="M57.5904 99.0983C57.5857 98.5254 57.8165 97.9688 58.2434 97.5235C58.6702 97.0781 59.2668 96.7716 59.9313 96.6562C60.5959 96.5407 61.2872 96.6234 61.8876 96.8903C62.488 97.1571 62.9602 97.5915 63.2238 98.1195C63.4873 98.6474 63.5259 99.2362 63.3329 99.7855C63.1399 100.335 62.7273 100.811 62.1655 101.132C61.6036 101.453 60.9273 101.599 60.2517 101.547C59.5761 101.494 58.9432 101.245 58.4607 100.842C57.9092 100.381 57.5962 99.7538 57.5904 99.0983ZM57.5904 99.0983C57.5971 99.5841 57.7744 100.057 58.0996 100.458C58.4249 100.859 58.8836 101.169 59.4177 101.349C59.9518 101.53 60.5373 101.572 61.1001 101.471C61.6628 101.371 62.1776 101.131 62.5791 100.783C63.1086 100.318 63.3991 99.6945 63.3876 99.0489C63.3761 98.4034 63.0635 97.7878 62.5177 97.3357C61.9719 96.8837 61.237 96.6317 60.4725 96.6346C59.708 96.6374 58.9757 96.8948 58.4347 97.3509C57.8911 97.8164 57.5876 98.4446 57.5904 99.0983Z" fill="white"/>
<path opacity="0.59" d="M54.9733 143.302C54.9685 142.942 55.09 142.588 55.3226 142.287C55.5552 141.985 55.8884 141.748 56.2802 141.606C56.672 141.464 57.1048 141.423 57.524 141.489C57.9433 141.554 58.3301 141.723 58.6358 141.974C58.8462 142.14 59.0152 142.341 59.1327 142.563C59.2502 142.785 59.3139 143.025 59.3201 143.268C59.3263 143.512 59.2749 143.754 59.1688 143.98C59.0627 144.206 58.9042 144.412 58.7024 144.586C58.5007 144.76 58.2598 144.898 57.994 144.992C57.7283 145.086 57.4429 145.134 57.1547 145.134C56.8664 145.134 56.5812 145.085 56.3158 144.99C56.0503 144.895 55.8099 144.757 55.6088 144.582C55.2043 144.243 54.9757 143.783 54.9733 143.302ZM54.9733 143.302C54.983 143.78 55.2164 144.237 55.6226 144.571C55.9226 144.818 56.3027 144.985 56.7149 145.049C57.127 145.114 57.5527 145.074 57.938 144.935C58.3232 144.795 58.6508 144.562 58.8791 144.265C59.1075 143.968 59.2263 143.621 59.2207 143.267C59.2174 142.793 58.9916 142.34 58.593 142.007C58.1943 141.674 57.6554 141.488 57.0947 141.491C56.8142 141.492 56.5368 141.54 56.2784 141.632C56.0199 141.724 55.7855 141.858 55.5884 142.027C55.3914 142.195 55.2357 142.395 55.1301 142.614C55.0245 142.834 54.9713 143.069 54.9733 143.305V143.302Z" fill="white"/>
</g>
<path opacity="0.18" d="M83.5978 33.8395H73.2427C71.1612 64.2451 67.5233 94.5349 62.3288 124.709C60.9212 132.866 59.3309 141.183 54.7566 148.466C50.5139 155.22 43.1904 161.018 34.3994 162.487C34.9939 162.682 35.6281 162.777 36.266 162.767H69.8995C71.895 162.767 73.6019 161.886 73.9442 158.836L84.6739 35.3211C84.789 34.5434 84.2763 33.8395 83.5978 33.8395Z" fill="#D6ECED"/>
</g>
<defs>
<clipPath id="clip0">
<rect width="107" height="172" fill="white"/>
</clipPath>
</defs>
</svg>
