<svg width="75" height="294" viewBox="0 0 75 294" fill="none" xmlns="http://www.w3.org/2000/svg">
<g clip-path="url(#clip0)">
<path opacity="0.1" d="M64.6549 98.6753L60.7518 93.0103L60.029 91.916C59.6748 91.4116 59.3496 90.8876 59.0549 90.3466C56.8287 86.912 55.0961 83.1847 53.9074 79.2729C53.5931 78.2349 53.3103 77.2032 53.0589 76.1465C52.2393 72.7109 51.8279 69.1915 51.8333 65.6606V23.2541H49.9478V20.1277H51.8333C53.3104 13.4905 53.3104 6.6122 51.8333 -0.0250244H37.9307V290.874H66.7918C67.8722 290.879 68.943 290.672 69.9423 290.263C70.9416 289.855 71.8495 289.253 72.6134 288.493C73.3774 287.733 73.9823 286.83 74.393 285.835C74.8038 284.841 75.0123 283.776 75.0064 282.701V132.009C75.0265 120.111 71.417 108.488 64.6549 98.6753Z" fill="#1E1E1C"/>
<path d="M49.1432 20.728V28.3627H25.021V20.7593L49.1432 20.728Z" fill="#B3B2B2"/>
<path d="M74.1578 135.11V285.834C74.1628 286.908 73.9538 287.972 73.5431 288.965C73.1324 289.958 72.5279 290.86 71.7647 291.619C71.0015 292.379 70.0947 292.98 69.0965 293.388C68.0984 293.797 67.0288 294.005 65.9494 294H8.22087C7.14154 294.005 6.07191 293.797 5.07377 293.388C4.07564 292.98 3.16878 292.379 2.40557 291.619C1.64236 290.86 1.03793 289.958 0.62719 288.965C0.216451 287.972 0.00754548 286.908 0.0125386 285.834V135.142C5.07217e-05 123.257 3.60928 111.648 10.3641 101.845L14.2608 96.1804L14.9836 95.0862C15.3293 94.5859 15.675 94.0857 15.9955 93.5542C18.1831 90.093 19.8952 86.3561 21.0864 82.443C21.4007 81.4113 21.6835 80.3796 21.9349 79.3166C22.7678 75.8849 23.1897 72.3673 23.192 68.8369V26.3805H51.0286V68.7869C51.0237 72.3158 51.435 75.8331 52.2542 79.2666C52.5056 80.3358 52.7884 81.3675 53.1027 82.393C54.2882 86.3048 56.0143 90.0337 58.2313 93.4729C58.5261 94.0119 58.8513 94.5338 59.2055 95.0361L59.9346 96.1304L63.8314 101.795C70.5809 111.606 74.1815 123.222 74.1578 135.11Z" fill="#EEEDED"/>
<path d="M16.5487 98.3314L12.9474 103.571C6.55019 112.852 3.13159 123.844 3.1426 135.098V285.821C3.14427 287.158 3.67852 288.438 4.62818 289.383C5.57784 290.328 6.86537 290.859 8.20839 290.861C17.8057 285.859 27.4282 283.533 37.0821 283.627C46.7297 283.533 56.3585 285.859 65.9495 290.861C67.2925 290.859 68.5801 290.328 69.5297 289.383C70.4794 288.438 71.0136 287.158 71.0153 285.821V135.129C71.0282 123.876 67.6118 112.884 61.2169 103.603L57.6092 98.3627L16.5487 98.3314Z" fill="#DADADA"/>
<path d="M51.0035 23.2917H23.1668C21.6521 16.6586 21.6521 9.77199 23.1668 3.13892H51.0035C52.4805 9.77614 52.4805 16.6544 51.0035 23.2917Z" fill="#DADADA"/>
<path d="M71.009 168.6H3.14258V235.705H71.009V168.6Z" fill="#F6F6F6"/>
<path d="M49.1494 23.2917V26.4181H51.0035V53.6428H23.1668V26.3806H24.9958V23.2542H23.1417C21.6269 16.6211 21.6269 9.73451 23.1417 3.10144H50.9783C52.4554 9.73866 52.4554 16.617 50.9783 23.2542L49.1494 23.2917Z" fill="#F6F6F6"/>
<path d="M49.1495 23.2979H25.021V26.393H49.1495V23.2979Z" fill="#1D1D1B"/>
<path opacity="0.4" d="M32.6008 55.1434C33.1099 55.1434 33.6002 58.3511 34.0401 64.1537C34.5178 69.7374 35.1526 78.9791 31.369 89.1649C30.9227 90.4529 30.4702 91.766 29.9988 93.1104L28.0379 97.0371C26.6825 99.7619 25.1324 102.387 23.3995 104.891L20.8288 108.792L18.6291 112.732L17.4978 114.733C17.1395 115.408 16.9384 116.171 16.643 116.89L14.9397 121.298C13.2742 127.601 12.7902 133.885 13.0542 141.588C13.0542 149.054 13.1045 156.783 13.1296 164.692C13.1296 196.35 12.7148 225.007 12.0486 245.747C11.3824 266.488 10.4585 279.325 9.43398 279.325C8.40951 279.325 7.49189 266.494 6.82567 245.747C6.15945 225.001 5.74463 196.35 5.74463 164.692C5.74463 156.783 5.79492 149.06 5.82006 141.588C5.82006 139.712 5.82005 137.874 5.86405 136.048C5.90804 134.222 6.12802 132.19 6.26001 130.302L6.51141 127.451C6.63711 126.513 6.91994 125.575 7.13992 124.687C7.58616 122.861 7.9947 121.048 8.47865 119.285L10.5402 114.282C10.9047 113.469 11.1687 112.619 11.6086 111.856L12.9599 109.605L15.6248 105.228L18.34 101.477C20.0675 99.2062 21.6362 96.8203 23.0349 94.3359L25.0336 90.9031C25.5238 89.7109 26.0078 88.5417 26.4854 87.3953C26.9442 86.2511 27.4722 85.1568 27.8556 84.0376L28.8801 80.7236C29.3263 78.5414 29.8731 76.4842 30.2125 74.5271C30.4388 72.5512 30.6483 70.7129 30.841 69.0121C30.9667 67.253 31.0798 65.646 31.1804 64.1912C31.6078 58.3761 32.0917 55.1434 32.6008 55.1434Z" fill="white"/>
<path d="M74.1453 153.606H0.0126953V236.831H74.1453V153.606Z" fill="#F6F6F6"/>
<path d="M74.1453 247.961H0.0126953V267.057H74.1453V247.961Z" fill="#9D9D9C"/>
<path d="M68.8155 160.528H4.66357V163.192H68.8155V160.528Z" fill="#B3B2B2"/>
<path d="M56.4715 211.745H18.9998V214.408H56.4715V211.745Z" fill="#B3B2B2"/>
<path d="M68.8155 157.264H4.66357V158.408H68.8155V157.264Z" fill="#B3B2B2"/>
<path d="M64.4725 207.83H9.6853V208.806H64.4725V207.83Z" fill="#B3B2B2"/>
<path d="M74.1578 235.155H0V236.13H74.1578V235.155Z" fill="#B3B2B2"/>
<path d="M60.934 191.373H13.2239V198.482H60.934V191.373Z" fill="#DADADA"/>
<path d="M37.8551 166.255C44.8773 166.255 50.5699 160.592 50.5699 153.606C50.5699 146.62 44.8773 140.957 37.8551 140.957C30.833 140.957 25.1404 146.62 25.1404 153.606C25.1404 160.592 30.833 166.255 37.8551 166.255Z" fill="#E30613"/>
<path d="M37.855 165.167C44.2732 165.167 49.4762 159.991 49.4762 153.606C49.4762 147.221 44.2732 142.045 37.855 142.045C31.4368 142.045 26.2339 147.221 26.2339 153.606C26.2339 159.991 31.4368 165.167 37.855 165.167Z" fill="#E30613" stroke="white" stroke-miterlimit="10"/>
<path d="M37.8551 159.665C39.8267 159.665 41.425 157.003 41.425 153.719C41.425 150.435 39.8267 147.772 37.8551 147.772C35.8835 147.772 34.2852 150.435 34.2852 153.719C34.2852 157.003 35.8835 159.665 37.8551 159.665Z" fill="#1D1D1B" stroke="#1D1D1B" stroke-miterlimit="10"/>
<path d="M41.8399 157.62L40.7085 156.27C40.6463 156.194 40.5659 156.135 40.4748 156.098C40.3837 156.061 40.2847 156.047 40.1869 156.057L38.4208 156.232C38.3103 156.236 38.2007 156.212 38.103 156.16C38.0053 156.109 37.9229 156.032 37.8643 155.939C37.8056 155.846 37.7727 155.739 37.7689 155.629C37.7651 155.519 37.7905 155.41 37.8425 155.313L38.7853 153.812C38.8355 153.728 38.865 153.633 38.8716 153.536C38.8781 153.438 38.8615 153.34 38.823 153.25L38.1128 151.63C38.0768 151.527 38.0687 151.416 38.0894 151.308C38.1101 151.2 38.1589 151.1 38.2308 151.017C38.3027 150.934 38.3953 150.872 38.4992 150.835C38.6031 150.799 38.7148 150.791 38.823 150.811L40.5514 151.236C40.647 151.257 40.7463 151.256 40.8412 151.232C40.9361 151.208 41.0241 151.162 41.0982 151.099L42.4244 149.923C42.5114 149.855 42.6149 149.811 42.7246 149.795C42.8342 149.78 42.9461 149.793 43.0488 149.834C43.1515 149.876 43.2415 149.943 43.3095 150.03C43.3776 150.117 43.4213 150.22 43.4363 150.33L43.562 152.093C43.5698 152.191 43.6007 152.285 43.652 152.369C43.7033 152.452 43.7737 152.523 43.8574 152.574L45.3909 153.469C45.4812 153.53 45.5538 153.614 45.6014 153.712C45.6491 153.81 45.6701 153.919 45.6625 154.028C45.6549 154.136 45.6188 154.241 45.558 154.332C45.4971 154.422 45.4135 154.496 45.3155 154.544L43.6374 155.188C43.5476 155.226 43.468 155.284 43.4047 155.358C43.3415 155.432 43.2963 155.519 43.2729 155.613L42.8895 157.345C42.8601 157.451 42.8035 157.546 42.7253 157.623C42.6472 157.7 42.5502 157.755 42.444 157.783C42.3379 157.81 42.2262 157.81 42.1202 157.782C42.0142 157.753 41.9176 157.698 41.8399 157.62Z" fill="#1D1D1B" stroke="#1D1D1B" stroke-miterlimit="10"/>
<path d="M33.8264 157.62L34.9766 156.27C35.0389 156.194 35.1192 156.135 35.2103 156.098C35.3014 156.06 35.4004 156.047 35.4983 156.057L37.2644 156.232C37.3748 156.236 37.4845 156.212 37.5822 156.16C37.6799 156.109 37.7622 156.032 37.8208 155.939C37.8795 155.846 37.9124 155.739 37.9162 155.629C37.92 155.519 37.8946 155.41 37.8426 155.313L36.8998 153.812C36.8497 153.728 36.8201 153.633 36.8136 153.536C36.807 153.438 36.8237 153.34 36.8621 153.25L37.5723 151.63C37.6075 151.528 37.6154 151.418 37.5952 151.312C37.575 151.206 37.5274 151.106 37.4571 151.024C37.3868 150.941 37.2962 150.878 37.1941 150.841C37.092 150.804 36.982 150.793 36.8747 150.811L35.1463 151.236C35.0507 151.257 34.9514 151.256 34.8565 151.232C34.7616 151.208 34.6736 151.162 34.5995 151.099L33.2733 149.923C33.1863 149.855 33.0828 149.811 32.9731 149.795C32.8635 149.78 32.7516 149.793 32.6489 149.834C32.5461 149.876 32.4562 149.943 32.3882 150.03C32.3201 150.117 32.2764 150.22 32.2614 150.33L32.1357 152.093C32.1278 152.191 32.097 152.285 32.0457 152.369C31.9944 152.452 31.924 152.523 31.8403 152.574L30.3068 153.469C30.2165 153.53 30.1439 153.614 30.0963 153.712C30.0486 153.81 30.0276 153.919 30.0352 154.028C30.0428 154.136 30.0789 154.241 30.1397 154.332C30.2006 154.422 30.2842 154.496 30.3822 154.544L32.0289 155.213C32.1186 155.251 32.1983 155.309 32.2616 155.383C32.3248 155.457 32.37 155.544 32.3934 155.638L32.7705 157.37C32.8024 157.475 32.8613 157.569 32.9413 157.644C33.0212 157.719 33.1195 157.772 33.2263 157.797C33.3331 157.822 33.4447 157.819 33.55 157.788C33.6553 157.757 33.7506 157.699 33.8264 157.62Z" fill="#1D1D1B" stroke="#1D1D1B" stroke-miterlimit="10"/>
<path d="M37.7545 229.884C39.7261 229.884 41.3244 227.221 41.3244 223.937C41.3244 220.653 39.7261 217.991 37.7545 217.991C35.7829 217.991 34.1846 220.653 34.1846 223.937C34.1846 227.221 35.7829 229.884 37.7545 229.884Z" fill="#C6C6C6"/>
<path d="M41.7393 227.833L40.5954 226.47C40.5304 226.396 40.4488 226.338 40.357 226.301C40.2653 226.264 40.166 226.249 40.0674 226.257L38.3013 226.432C38.1914 226.435 38.0826 226.41 37.9858 226.358C37.8889 226.306 37.8075 226.229 37.7496 226.136C37.6917 226.043 37.6594 225.937 37.6558 225.827C37.6523 225.718 37.6776 225.61 37.7294 225.513L38.6659 224.013C38.718 223.93 38.7487 223.836 38.7553 223.739C38.7619 223.642 38.7441 223.545 38.7036 223.456L37.9934 221.83C37.9568 221.728 37.9478 221.617 37.9673 221.51C37.9868 221.403 38.0342 221.302 38.1047 221.219C38.1752 221.136 38.2664 221.072 38.3692 221.034C38.4721 220.997 38.583 220.987 38.691 221.005L40.4194 221.43C40.5148 221.455 40.615 221.455 40.7106 221.431C40.8062 221.407 40.8941 221.36 40.9662 221.293L42.2986 220.123C42.3856 220.057 42.4886 220.014 42.5974 219.999C42.7062 219.984 42.817 219.998 42.9187 220.039C43.0204 220.08 43.1095 220.147 43.1772 220.233C43.2448 220.319 43.2886 220.422 43.3043 220.53L43.43 222.293C43.4395 222.39 43.4717 222.484 43.5241 222.566C43.5765 222.649 43.6476 222.718 43.7316 222.768L45.2652 223.662C45.3553 223.724 45.4274 223.809 45.4746 223.907C45.5217 224.006 45.5421 224.115 45.5339 224.223C45.5256 224.332 45.4889 224.437 45.4275 224.527C45.366 224.617 45.2819 224.69 45.1835 224.738L43.5368 225.407C43.4463 225.445 43.3662 225.505 43.3029 225.579C43.2396 225.654 43.1948 225.743 43.1723 225.838L42.7952 227.564C42.7656 227.67 42.7084 227.766 42.6295 227.843C42.5505 227.92 42.4525 227.975 42.3454 228.003C42.2383 228.03 42.1259 228.028 42.0195 227.999C41.9131 227.969 41.8164 227.912 41.7393 227.833Z" fill="#C6C6C6"/>
<path d="M33.7258 227.833L34.8759 226.482C34.9402 226.409 35.0209 226.351 35.1115 226.315C35.202 226.278 35.3 226.262 35.3976 226.27L37.17 226.445C37.2799 226.448 37.3888 226.422 37.4856 226.37C37.5824 226.318 37.6638 226.242 37.7217 226.149C37.7796 226.056 37.8119 225.949 37.8155 225.84C37.819 225.731 37.7937 225.622 37.7419 225.526L36.7992 224.025C36.75 223.941 36.721 223.848 36.7145 223.751C36.7079 223.655 36.724 223.558 36.7615 223.468L37.4717 221.843C37.5083 221.74 37.5173 221.63 37.4977 221.522C37.4782 221.415 37.4308 221.315 37.3603 221.231C37.2898 221.148 37.1986 221.084 37.0958 221.047C36.993 221.009 36.882 220.999 36.774 221.017L35.0519 221.468C34.9565 221.492 34.8565 221.492 34.761 221.468C34.6655 221.444 34.5775 221.396 34.5051 221.33L33.1664 220.136C33.0794 220.069 32.9764 220.026 32.8676 220.012C32.7588 219.997 32.6481 220.011 32.5463 220.052C32.4446 220.093 32.3555 220.16 32.2879 220.246C32.2202 220.332 32.1764 220.434 32.1608 220.542L32.0288 222.305C32.02 222.402 31.9887 222.495 31.9374 222.578C31.8861 222.66 31.8163 222.73 31.7334 222.781L30.1998 223.675C30.1095 223.736 30.037 223.82 29.9893 223.919C29.9417 224.017 29.9207 224.125 29.9283 224.234C29.9359 224.343 29.9719 224.448 30.0328 224.538C30.0936 224.629 30.1772 224.702 30.2752 224.75L31.9219 225.419C32.0124 225.458 32.0925 225.517 32.1558 225.592C32.2192 225.667 32.2639 225.756 32.2865 225.851L32.6699 227.577C32.701 227.682 32.7593 227.777 32.839 227.852C32.9186 227.928 33.0168 227.981 33.1237 228.007C33.2306 228.033 33.3424 228.031 33.4481 228C33.5538 227.969 33.6495 227.912 33.7258 227.833Z" fill="#C6C6C6"/>
<path d="M29.9296 231.872C31.9012 231.872 33.4995 229.21 33.4995 225.926C33.4995 222.642 31.9012 219.979 29.9296 219.979C27.9579 219.979 26.3596 222.642 26.3596 225.926C26.3596 229.21 27.9579 231.872 29.9296 231.872Z" fill="#C6C6C6"/>
<path d="M33.908 229.821L32.7641 228.471C32.6998 228.397 32.6191 228.34 32.5286 228.303C32.438 228.266 32.34 228.251 32.2424 228.258L30.47 228.433C30.3601 228.436 30.2513 228.411 30.1545 228.359C30.0576 228.307 29.9762 228.23 29.9183 228.137C29.8604 228.044 29.8281 227.938 29.8245 227.828C29.821 227.719 29.8464 227.611 29.8981 227.514L30.8346 226.014C30.8877 225.932 30.9195 225.838 30.9272 225.741C30.9349 225.644 30.9182 225.546 30.8786 225.457L30.1683 223.831C30.1317 223.729 30.1228 223.618 30.1423 223.511C30.1618 223.404 30.2092 223.303 30.2797 223.22C30.3502 223.137 30.4414 223.073 30.5442 223.035C30.6471 222.998 30.758 222.988 30.866 223.006L32.5944 223.431C32.6895 223.453 32.7885 223.453 32.8834 223.43C32.9783 223.407 33.0666 223.362 33.1412 223.3L34.4674 222.124C34.5543 222.058 34.6573 222.015 34.7661 222C34.8749 221.985 34.9857 221.999 35.0874 222.04C35.1891 222.081 35.2782 222.148 35.3459 222.234C35.4135 222.32 35.4573 222.423 35.473 222.531L35.605 224.294C35.6138 224.391 35.6451 224.484 35.6963 224.566C35.7476 224.649 35.8174 224.718 35.9004 224.769L37.4339 225.663C37.5242 225.725 37.5968 225.809 37.6444 225.907C37.692 226.005 37.7131 226.114 37.7055 226.223C37.6978 226.331 37.6618 226.436 37.601 226.527C37.5401 226.617 37.4565 226.69 37.3585 226.739L35.7118 227.408C35.6213 227.446 35.5412 227.505 35.4779 227.58C35.4146 227.655 35.3698 227.744 35.3473 227.839L34.9639 229.565C34.9327 229.67 34.8744 229.765 34.7948 229.841C34.7152 229.916 34.617 229.97 34.5101 229.996C34.4032 230.021 34.2913 230.019 34.1857 229.989C34.08 229.958 33.9842 229.9 33.908 229.821Z" fill="#C6C6C6"/>
<path d="M25.9009 229.821L27.0448 228.471C27.1091 228.397 27.1897 228.34 27.2803 228.303C27.3709 228.266 27.4688 228.251 27.5664 228.258L29.3388 228.433C29.4488 228.436 29.5576 228.411 29.6544 228.359C29.7512 228.307 29.8326 228.23 29.8905 228.137C29.9484 228.044 29.9808 227.938 29.9843 227.828C29.9879 227.719 29.9625 227.611 29.9108 227.514L28.9743 226.014C28.9241 225.93 28.894 225.837 28.8864 225.74C28.8788 225.644 28.8938 225.547 28.9303 225.457L29.6468 223.831C29.6838 223.728 29.6929 223.617 29.6731 223.509C29.6533 223.401 29.6054 223.3 29.5341 223.217C29.4627 223.133 29.3706 223.07 29.2668 223.033C29.1631 222.996 29.0513 222.986 28.9429 223.006L27.2207 223.431C27.1258 223.456 27.0261 223.457 26.9306 223.434C26.8352 223.411 26.7469 223.365 26.6739 223.3L25.3415 222.124C25.2545 222.058 25.1515 222.015 25.0427 222C24.9339 221.985 24.8232 221.999 24.7214 222.04C24.6197 222.081 24.5306 222.148 24.463 222.234C24.3953 222.32 24.3515 222.423 24.3359 222.531L24.2102 224.294C24.2007 224.391 24.1684 224.485 24.116 224.567C24.0637 224.65 23.9926 224.719 23.9085 224.769L22.3749 225.663C22.2849 225.725 22.2127 225.81 22.1656 225.908C22.1185 226.007 22.098 226.116 22.1063 226.224C22.1145 226.333 22.1512 226.438 22.2127 226.528C22.2741 226.618 22.3582 226.691 22.4567 226.739L24.1033 227.408C24.1926 227.447 24.2715 227.507 24.3337 227.582C24.3959 227.656 24.4397 227.745 24.4616 227.839L24.845 229.565C24.8761 229.67 24.9344 229.765 25.0141 229.841C25.0937 229.916 25.1919 229.97 25.2988 229.996C25.4057 230.021 25.5175 230.019 25.6232 229.989C25.7289 229.958 25.8246 229.9 25.9009 229.821Z" fill="#C6C6C6"/>
<path d="M45.68 231.954C47.6517 231.954 49.25 229.291 49.25 226.007C49.25 222.723 47.6517 220.061 45.68 220.061C43.7084 220.061 42.1101 222.723 42.1101 226.007C42.1101 229.291 43.7084 231.954 45.68 231.954Z" fill="#C6C6C6"/>
<path d="M49.6648 229.903L48.5209 228.552C48.4566 228.479 48.376 228.421 48.2854 228.384C48.1948 228.347 48.0969 228.332 47.9993 228.339L46.2269 228.515C46.1169 228.518 46.0081 228.492 45.9113 228.44C45.8145 228.388 45.733 228.312 45.6752 228.219C45.6173 228.126 45.5849 228.019 45.5814 227.91C45.5778 227.8 45.6032 227.692 45.6549 227.595L46.5914 226.095C46.6426 226.011 46.6732 225.916 46.6809 225.819C46.6885 225.721 46.6729 225.623 46.6354 225.532L45.9189 223.912C45.8819 223.809 45.8728 223.698 45.8926 223.59C45.9124 223.482 45.9603 223.381 46.0316 223.298C46.1029 223.214 46.1951 223.151 46.2989 223.114C46.4026 223.077 46.5144 223.068 46.6228 223.087L48.3449 223.512C48.4406 223.533 48.5398 223.532 48.6347 223.508C48.7297 223.484 48.8177 223.438 48.8917 223.375L50.2242 222.199C50.3112 222.133 50.4142 222.09 50.523 222.075C50.6318 222.06 50.7425 222.074 50.8442 222.115C50.946 222.156 51.0351 222.223 51.1027 222.309C51.1704 222.395 51.2142 222.498 51.2298 222.606L51.3618 224.375C51.3706 224.472 51.4019 224.565 51.4532 224.647C51.5044 224.73 51.5743 224.799 51.6572 224.85L53.1907 225.745C53.281 225.806 53.3536 225.89 53.4012 225.988C53.4489 226.086 53.4699 226.195 53.4623 226.304C53.4547 226.412 53.4187 226.517 53.3578 226.608C53.2969 226.698 53.2133 226.772 53.1153 226.82L51.4623 227.489C51.373 227.528 51.2942 227.588 51.232 227.663C51.1698 227.738 51.126 227.826 51.1041 227.921L50.7207 229.646C50.6896 229.751 50.6313 229.846 50.5516 229.922C50.472 229.997 50.3738 230.051 50.2669 230.077C50.16 230.103 50.0482 230.1 49.9425 230.07C49.8368 230.039 49.7411 229.982 49.6648 229.903Z" fill="#C6C6C6"/>
<path d="M41.6577 229.903L42.8016 228.552C42.8659 228.479 42.9466 228.421 43.0371 228.384C43.1277 228.347 43.2257 228.332 43.3233 228.339L45.0957 228.515C45.2056 228.518 45.3144 228.492 45.4112 228.44C45.508 228.388 45.5895 228.312 45.6473 228.219C45.7052 228.126 45.7376 228.019 45.7411 227.91C45.7447 227.8 45.7193 227.692 45.6676 227.595L44.7311 226.095C44.6799 226.011 44.6493 225.916 44.6417 225.819C44.634 225.721 44.6496 225.623 44.6871 225.532L45.4036 223.912C45.4407 223.809 45.4497 223.698 45.43 223.59C45.4102 223.482 45.3622 223.381 45.2909 223.298C45.2196 223.214 45.1274 223.151 45.0237 223.114C44.9199 223.077 44.8082 223.068 44.6997 223.087L42.9776 223.512C42.882 223.533 42.7827 223.532 42.6878 223.508C42.5929 223.484 42.5048 223.438 42.4308 223.375L41.0983 222.199C41.0113 222.133 40.9083 222.09 40.7995 222.075C40.6908 222.06 40.58 222.074 40.4783 222.115C40.3766 222.156 40.2874 222.223 40.2198 222.309C40.1522 222.395 40.1083 222.498 40.0927 222.606L39.967 224.375C39.9575 224.472 39.9253 224.566 39.8729 224.648C39.8205 224.731 39.7494 224.8 39.6653 224.85L38.1318 225.745C38.0417 225.807 37.9696 225.891 37.9224 225.99C37.8753 226.088 37.8549 226.197 37.8631 226.306C37.8714 226.414 37.908 226.519 37.9695 226.609C38.031 226.699 38.1151 226.772 38.2135 226.82L39.8602 227.489C39.9495 227.528 40.0283 227.588 40.0905 227.663C40.1527 227.738 40.1965 227.826 40.2184 227.921L40.6018 229.646C40.633 229.751 40.6913 229.846 40.7709 229.922C40.8505 229.997 40.9487 230.051 41.0556 230.077C41.1625 230.103 41.2744 230.1 41.38 230.07C41.4857 230.039 41.5814 229.982 41.6577 229.903Z" fill="#C6C6C6"/>
<path d="M53.5113 233.279C55.483 233.279 57.0813 230.617 57.0813 227.333C57.0813 224.049 55.483 221.386 53.5113 221.386C51.5397 221.386 49.9414 224.049 49.9414 227.333C49.9414 230.617 51.5397 233.279 53.5113 233.279Z" fill="#C6C6C6"/>
<path d="M57.4961 231.235L56.3459 229.884C56.2837 229.808 56.2034 229.749 56.1123 229.712C56.0211 229.675 55.9221 229.661 55.8243 229.671L54.0582 229.846C53.9482 229.849 53.8394 229.824 53.7426 229.772C53.6458 229.72 53.5644 229.644 53.5065 229.551C53.4486 229.457 53.4162 229.351 53.4127 229.242C53.4091 229.132 53.4345 229.024 53.4862 228.927L54.4227 227.427C54.4729 227.342 54.5024 227.247 54.509 227.15C54.5155 227.052 54.4989 226.954 54.4604 226.864L53.7502 225.219C53.7136 225.117 53.7046 225.006 53.7242 224.899C53.7437 224.792 53.791 224.691 53.8615 224.608C53.932 224.525 54.0232 224.461 54.1261 224.423C54.2289 224.386 54.3398 224.376 54.4478 224.394L56.1762 224.813C56.2714 224.835 56.3703 224.834 56.4652 224.812C56.5601 224.789 56.6484 224.744 56.7231 224.682L58.0555 223.506C58.1425 223.439 58.2455 223.397 58.3543 223.382C58.4631 223.367 58.5738 223.381 58.6755 223.422C58.7773 223.463 58.8664 223.53 58.934 223.616C59.0017 223.702 59.0455 223.804 59.0611 223.913L59.1868 225.676C59.1956 225.772 59.2269 225.866 59.2782 225.948C59.3294 226.031 59.3993 226.1 59.4822 226.151L61.0158 227.051C61.1061 227.113 61.1786 227.197 61.2263 227.295C61.2739 227.393 61.2949 227.502 61.2873 227.611C61.2797 227.719 61.2437 227.824 61.1828 227.915C61.122 228.005 61.0384 228.078 60.9403 228.127L59.2937 228.796C59.2039 228.834 59.1242 228.892 59.061 228.966C58.9977 229.04 58.9526 229.127 58.9291 229.221L58.552 230.947C58.5248 231.054 58.4695 231.153 58.3915 231.232C58.3136 231.311 58.2159 231.368 58.1085 231.397C58.001 231.427 57.8877 231.427 57.7801 231.398C57.6725 231.37 57.5745 231.313 57.4961 231.235Z" fill="#C6C6C6"/>
<path d="M49.5078 231.234L50.658 229.884C50.7202 229.808 50.8006 229.749 50.8917 229.712C50.9828 229.675 51.0818 229.661 51.1796 229.671L52.9458 229.846C53.0562 229.85 53.1658 229.826 53.2635 229.774C53.3612 229.723 53.4436 229.646 53.5022 229.553C53.5609 229.46 53.5938 229.353 53.5976 229.243C53.6014 229.133 53.576 229.024 53.524 228.927L52.5812 227.427C52.5311 227.342 52.5015 227.247 52.495 227.15C52.4884 227.052 52.505 226.954 52.5435 226.864L53.2537 225.244C53.2903 225.142 53.2993 225.031 53.2798 224.924C53.2602 224.817 53.2129 224.716 53.1424 224.633C53.0719 224.55 52.9807 224.486 52.8778 224.448C52.775 224.411 52.6641 224.401 52.5561 224.419L50.8277 224.838C50.7325 224.86 50.6336 224.859 50.5387 224.836C50.4438 224.814 50.3555 224.769 50.2809 224.707L48.9547 223.531C48.8677 223.464 48.7647 223.422 48.6559 223.407C48.5472 223.392 48.4364 223.406 48.3347 223.447C48.2329 223.488 48.1438 223.555 48.0762 223.641C48.0085 223.727 47.9647 223.829 47.9491 223.937L47.8171 225.701C47.8083 225.797 47.777 225.891 47.7257 225.973C47.6745 226.055 47.6046 226.125 47.5217 226.176L45.963 227.095C45.8727 227.157 45.8001 227.241 45.7525 227.339C45.7049 227.437 45.6838 227.546 45.6915 227.654C45.6991 227.763 45.7351 227.868 45.796 227.958C45.8568 228.049 45.9404 228.122 46.0384 228.171L47.6851 228.84C47.7749 228.878 47.8545 228.936 47.9178 229.009C47.9811 229.083 48.0262 229.171 48.0497 229.265L48.4331 230.991C48.4639 231.098 48.5233 231.196 48.6051 231.273C48.6868 231.35 48.788 231.404 48.8978 231.429C49.0077 231.454 49.1223 231.449 49.2296 231.415C49.3369 231.381 49.433 231.318 49.5078 231.234Z" fill="#C6C6C6"/>
<path d="M22.0983 233.998C24.0699 233.998 25.6682 231.336 25.6682 228.052C25.6682 224.768 24.0699 222.105 22.0983 222.105C20.1266 222.105 18.5283 224.768 18.5283 228.052C18.5283 231.336 20.1266 233.998 22.0983 233.998Z" fill="#C6C6C6"/>
<path d="M26.083 231.954L24.9329 230.597C24.8703 230.522 24.7897 230.463 24.6986 230.427C24.6074 230.391 24.5086 230.379 24.4112 230.39L22.6451 230.559C22.5351 230.562 22.4263 230.537 22.3295 230.485C22.2327 230.433 22.1513 230.356 22.0934 230.263C22.0355 230.17 22.0031 230.064 21.9996 229.954C21.996 229.845 22.0214 229.737 22.0731 229.64L23.0096 228.139C23.0617 228.057 23.0925 227.963 23.0991 227.866C23.1056 227.769 23.0879 227.672 23.0473 227.583L22.3371 225.957C22.3005 225.855 22.2915 225.744 22.3111 225.637C22.3306 225.53 22.378 225.429 22.4485 225.346C22.519 225.262 22.6102 225.199 22.713 225.161C22.8158 225.124 22.9268 225.114 23.0348 225.132L24.7632 225.557C24.8583 225.579 24.9572 225.578 25.0521 225.556C25.1471 225.533 25.2353 225.488 25.31 225.426L26.6424 224.25C26.7294 224.184 26.8324 224.141 26.9412 224.126C27.05 224.111 27.1607 224.125 27.2625 224.166C27.3642 224.207 27.4533 224.274 27.5209 224.36C27.5886 224.446 27.6324 224.549 27.648 224.657L27.7737 226.42C27.7801 226.518 27.8111 226.613 27.8638 226.696C27.9165 226.779 27.9892 226.847 28.0754 226.895L29.609 227.789C29.7005 227.851 29.7741 227.936 29.8222 228.035C29.8703 228.134 29.8913 228.244 29.883 228.354C29.8747 228.463 29.8375 228.569 29.775 228.66C29.7125 228.751 29.6271 228.824 29.5273 228.871L27.8806 229.534C27.7901 229.572 27.71 229.631 27.6467 229.706C27.5833 229.781 27.5386 229.87 27.516 229.965L27.1389 231.691C27.1086 231.797 27.0508 231.892 26.9715 231.968C26.8922 232.045 26.7941 232.099 26.6871 232.125C26.5801 232.152 26.468 232.15 26.362 232.12C26.2559 232.09 26.1597 232.033 26.083 231.954Z" fill="#C6C6C6"/>
<path d="M18.0823 231.954L19.2324 230.597C19.295 230.522 19.3756 230.463 19.4667 230.427C19.5579 230.391 19.6567 230.379 19.7541 230.39L21.5202 230.559C21.6307 230.563 21.7403 230.539 21.838 230.487C21.9357 230.436 22.018 230.359 22.0767 230.266C22.1353 230.173 22.1682 230.066 22.1721 229.956C22.1759 229.846 22.1505 229.737 22.0984 229.64L21.1557 228.139C21.1065 228.056 21.0775 227.962 21.071 227.866C21.0645 227.769 21.0805 227.672 21.118 227.583L21.8282 225.957C21.8648 225.855 21.8738 225.744 21.8542 225.637C21.8347 225.53 21.7873 225.429 21.7168 225.346C21.6463 225.262 21.5551 225.199 21.4523 225.161C21.3495 225.124 21.2385 225.114 21.1305 225.132L19.4021 225.557C19.307 225.579 19.2081 225.578 19.1132 225.556C19.0182 225.533 18.93 225.488 18.8553 225.426L17.5292 224.25C17.4422 224.184 17.3392 224.141 17.2304 224.126C17.1216 224.111 17.0108 224.125 16.9091 224.166C16.8074 224.207 16.7183 224.274 16.6507 224.36C16.583 224.446 16.5392 224.549 16.5236 224.657L16.3916 226.42C16.3828 226.517 16.3515 226.61 16.3002 226.692C16.2489 226.775 16.1791 226.844 16.0962 226.895L14.5626 227.789C14.4708 227.851 14.3969 227.935 14.3482 228.034C14.2996 228.132 14.278 228.242 14.2857 228.352C14.2933 228.462 14.3299 228.567 14.3918 228.659C14.4537 228.75 14.5386 228.823 14.638 228.871L16.2847 229.534C16.3752 229.572 16.4553 229.631 16.5186 229.706C16.5819 229.781 16.6267 229.87 16.6493 229.965L17.0327 231.691C17.0636 231.795 17.1213 231.89 17.2002 231.965C17.279 232.04 17.3762 232.094 17.4821 232.12C17.5881 232.147 17.6992 232.145 17.8044 232.116C17.9097 232.087 18.0054 232.031 18.0823 231.954Z" fill="#C6C6C6"/>
</g>
<defs>
<clipPath id="clip0">
<rect width="75" height="294" fill="white"/>
</clipPath>
</defs>
</svg>
