<svg width="100" height="135" viewBox="0 0 100 135" fill="none" xmlns="http://www.w3.org/2000/svg">
<g clip-path="url(#clip0)">
<path opacity="0.55" d="M0 -0.000337408C0.782956 7.33122 1.9955 15.4784 7.77297 20.0352C10.2419 21.9816 13.3911 23.1066 15.3704 25.5512C18.7424 29.7129 17.5946 36.2102 20.7414 40.5445C22.7969 43.3761 27.6702 45.3144 30.2408 47.6814C33.331 50.5234 33.5435 54.0537 36.1926 57.3197C39.0796 60.8801 43.2866 63.3293 47.7868 64.1485C48.2488 77.675 48.1656 93.9115 48.0178 105.163C48.0126 105.176 48.0087 105.19 48.0063 105.204C47.1979 111.821 44.0799 118.258 44.0799 118.258C41.1387 124.16 36.6476 128.195 30.7997 130.455C25.692 132.424 21.5417 134.046 20.0601 134.741C20.0323 134.755 20.01 134.778 19.9967 134.806C19.9835 134.834 19.9802 134.865 19.9873 134.896C19.9944 134.926 20.0116 134.953 20.0359 134.972C20.0602 134.991 20.0903 135.001 20.1213 135.001H81.514C81.5449 135.001 81.575 134.991 81.5993 134.972C81.6237 134.953 81.6408 134.926 81.6479 134.896C81.6551 134.865 81.6517 134.834 81.6385 134.806C81.6253 134.778 81.603 134.755 81.5752 134.741C80.0982 134.046 75.9478 132.424 70.8413 130.455C64.9911 128.195 60.4989 124.16 57.5611 118.258C57.5611 118.258 54.8358 112.632 53.8253 106.493C53.5655 95.3238 53.3738 78.4281 54.0389 63.7244C57.8691 62.6359 61.2773 60.4012 63.8086 57.3186C66.4577 54.0583 66.6702 50.5223 69.7604 47.6803C72.3345 45.3133 77.2043 43.3749 79.2598 40.5434C82.4066 36.2079 81.2588 29.7117 84.6308 25.55C86.6101 23.1054 89.7593 21.9804 92.2271 20.034C98.0011 15.4773 99.2182 7.33006 100.001 -0.00149536L0 -0.000337408Z" fill="#B5DEE0"/>
<path d="M50.9175 134.999H81.5197C81.5506 134.999 81.5807 134.989 81.6051 134.97C81.6294 134.951 81.6465 134.924 81.6537 134.894C81.6608 134.863 81.6575 134.832 81.6442 134.804C81.631 134.776 81.6087 134.753 81.5809 134.739C80.1039 134.044 75.9536 132.422 70.847 130.453C64.9968 128.193 60.5046 124.158 57.5668 118.256C57.5668 118.256 54.8415 112.63 53.831 106.491C53.5712 95.3218 53.3795 78.4261 54.0447 63.7224C57.8749 62.6339 61.283 60.3992 63.8143 57.3166C66.4634 54.0563 66.6759 50.5203 69.7661 47.6783C72.3402 45.3113 77.21 43.373 79.2655 40.5414C82.4124 36.2059 81.2645 29.7097 84.6365 25.5481C86.6158 23.1034 89.765 21.9784 92.2328 20.032C98.0068 15.4753 99.224 7.32808 100.007 -0.003479H50.9279L50.9175 134.999Z" fill="#BAE0E1"/>
<path d="M50.0664 62.2267C55.0956 61.8791 59.9423 59.3406 63.1272 55.3782C65.6586 52.228 65.863 48.8114 68.8169 46.0655C71.2778 43.7796 75.934 41.9062 77.8995 39.1707C80.9019 34.9824 79.8107 28.7064 83.0337 24.6884C84.9276 22.326 87.937 21.2393 90.2974 19.3589C95.822 14.9562 96.9814 7.08478 97.7297 0.00231934H2.12256C2.87202 7.08246 4.02682 14.9551 9.5537 19.3566C11.9141 21.2369 14.9247 22.3237 16.8174 24.6861C20.0416 28.7064 18.9434 34.9824 21.9528 39.1684C23.916 41.9039 28.5733 43.7773 31.0342 46.0632C33.9893 48.809 34.1925 52.2257 36.7239 55.3759C39.9088 59.3383 44.7555 61.8791 49.7858 62.2244" fill="#E5F3F3"/>
<path opacity="0.34" d="M50.2442 62.2267C55.2745 61.8791 60.1212 59.3406 63.305 55.3782C65.8375 52.228 66.0407 48.8114 68.9958 46.0655C71.4567 43.7796 76.1117 41.9062 78.0772 39.1707C81.0866 34.9824 79.9884 28.7064 83.2114 24.6884C85.1053 22.326 88.1159 21.2393 90.4751 19.3589C95.9997 14.9562 97.1591 7.08478 97.9074 0.00231934H2.30029C3.0486 7.08478 4.20803 14.9574 9.73259 19.3589C12.0919 21.2393 15.1024 22.326 16.9963 24.6884C20.2193 28.7087 19.1211 34.9848 22.1305 39.1707C24.0937 41.9062 28.751 43.7796 31.2119 46.0655C34.167 48.8114 34.3703 52.228 36.9028 55.3782C40.0877 59.3406 44.9332 61.8814 49.9636 62.2267" fill="#E4473A"/>
<path opacity="0.48" d="M14.9062 22.764C15.6855 23.308 16.3885 23.9545 16.9964 24.6861C20.2195 28.7064 19.1213 34.9825 22.1307 39.1685C24.0938 41.9039 28.7512 43.7773 31.212 46.0632C34.1672 48.8091 34.3704 52.2258 36.9029 55.376C40.0878 59.3383 44.9334 61.8791 49.9637 62.2244H50.2443C55.2746 61.8768 60.1213 59.3383 63.3051 55.376C65.8376 52.2258 66.0408 48.8091 68.996 46.0632C71.4569 43.7773 76.1119 41.9039 78.0773 39.1685C81.0867 34.9802 79.9885 28.7041 83.2116 24.6861C83.8195 23.9545 84.5225 23.308 85.3018 22.764H14.9062Z" fill="#E4473A"/>
<path opacity="0.48" d="M31.1509 46.0122C31.1705 46.0308 31.1936 46.0482 31.2121 46.0655C34.1672 48.8114 34.3705 52.2281 36.9029 55.3782C40.0879 59.3406 44.9334 61.8814 49.9637 62.2266H50.2444C55.2747 61.8791 60.1214 59.3406 63.3052 55.3782C65.8376 52.2281 66.0409 48.8114 68.996 46.0655C69.0145 46.0482 69.0376 46.0308 69.0572 46.0122H31.1509Z" fill="#E4473A"/>
<path opacity="0.18" d="M80.9942 0C80.9764 0.813606 80.9163 1.62572 80.8141 2.43304C79.6292 10.2732 69.2476 13.7907 67.2925 21.4826C66.513 24.547 67.1943 27.9707 65.7624 30.7895C63.9667 34.3255 59.6027 35.5664 56.6395 38.1975C52.5191 41.8587 51.4544 47.8625 48.2464 52.3497C46.237 55.1581 43.3454 57.2946 40.1143 58.4902C42.9683 60.6648 46.3886 61.9641 49.9624 62.2313H50.243C55.2733 61.8837 60.12 59.3453 63.3038 55.3829C65.8363 52.2327 66.0395 48.816 68.9947 46.0701C71.4556 43.7843 76.1106 41.9108 78.076 39.1754C81.0854 34.9871 79.9872 28.711 83.2103 24.693C85.1041 22.3307 88.1147 21.2439 90.474 19.3635C95.9985 14.9609 97.158 7.08941 97.9063 0.00695125L80.9942 0Z" fill="#D6ECED"/>
<g opacity="0.69">
<path opacity="0.34" d="M29.8677 30.1508L44.34 18.1133C44.5767 17.9165 44.6095 17.5644 44.4133 17.327L31.3561 1.52548C31.1599 1.28804 30.809 1.25513 30.5723 1.45198L16.1 13.4894C15.8633 13.6863 15.8305 14.0383 16.0267 14.2758L29.084 30.0773C29.2802 30.3147 29.6311 30.3476 29.8677 30.1508Z" fill="white"/>
<path opacity="0.41" d="M32.0549 28.3391L33.5897 27.0647C31.7258 24.7324 29.7707 22.4662 28.1725 19.9451C26.4022 17.1506 25.0741 13.9668 25.0545 10.6555C25.0383 8.52722 25.6388 6.34792 26.8098 4.59381L18.2908 11.6821C17.9476 11.9674 17.6637 12.3179 17.4555 12.7133C17.2473 13.1088 17.1187 13.5416 17.0772 13.9869C17.0357 14.4322 17.0821 14.8813 17.2136 15.3087C17.3452 15.736 17.5594 16.1332 17.8439 16.4775L27.2798 27.8942C27.8548 28.5875 28.6805 29.0238 29.5757 29.1072C30.4709 29.1906 31.3625 28.9144 32.0549 28.3391Z" fill="white"/>
</g>
<g opacity="0.69">
<path opacity="0.34" d="M74.9599 18.049L54.6665 13.1234C54.3677 13.0509 54.0669 13.2351 53.9946 13.5349L48.6542 35.682C48.5819 35.9818 48.7655 36.2836 49.0643 36.3561L69.3577 41.2817C69.6565 41.3542 69.9573 41.17 70.0296 40.8702L75.37 18.7231C75.4423 18.4234 75.2587 18.1216 74.9599 18.049Z" fill="white"/>
<path opacity="0.41" d="M71.8538 17.3001L69.714 16.7798C68.8871 19.9752 68.1804 23.2089 67.0106 26.293C65.7137 29.7109 63.7829 32.9943 60.8786 35.2037C59.0113 36.6242 56.6913 37.5302 54.3701 37.6484L66.2507 40.5321C67.2168 40.7662 68.2361 40.6057 69.0843 40.0861C69.9326 39.5664 70.5404 38.73 70.7741 37.7608L74.6138 21.8406C74.8479 20.8713 74.6886 19.8484 74.171 18.9969C73.6534 18.1454 72.8199 17.535 71.8538 17.3001Z" fill="white"/>
</g>
<g opacity="0.47">
<path opacity="0.47" d="M40.7369 34.307C40.6548 35.1485 40.2843 35.9355 39.6886 36.5337C39.0929 37.1319 38.3089 37.5043 37.4702 37.5875C36.6315 37.6706 35.7899 37.4594 35.0891 36.9898C34.3882 36.5201 33.8714 35.8212 33.6266 35.012C33.3819 34.2029 33.4245 33.3336 33.7471 32.5524C34.0696 31.7712 34.6523 31.1264 35.3956 30.728C36.139 30.3295 36.9971 30.202 37.8237 30.3673C38.6503 30.5325 39.3941 30.9802 39.9285 31.6341C40.5398 32.3827 40.8305 33.3438 40.7369 34.307ZM40.7369 34.307C40.8181 33.4688 40.6072 32.6283 40.1401 31.9286C39.6729 31.229 38.9784 30.7134 38.1749 30.4699C37.3714 30.2263 36.5086 30.2698 35.7335 30.5929C34.9583 30.916 34.3188 31.4987 33.9239 32.2418C33.5289 32.9849 33.403 33.8424 33.5676 34.6682C33.7321 35.494 34.1769 36.237 34.8263 36.7707C35.4756 37.3043 36.2893 37.5956 37.1287 37.5949C37.9681 37.5941 38.7812 37.3014 39.4296 36.7667C40.1721 36.1522 40.6421 35.2679 40.7369 34.307Z" fill="white"/>
<path opacity="0.47" d="M50.7075 47.5334C50.6515 48.1077 50.3988 48.6448 49.9923 49.053C49.5859 49.4612 49.0509 49.7154 48.4785 49.7721C47.9062 49.8289 47.332 49.6847 46.8537 49.3642C46.3755 49.0436 46.0229 48.5666 45.856 48.0144C45.6891 47.4623 45.7182 46.8691 45.9385 46.3361C46.1587 45.803 46.5564 45.3632 47.0638 45.0914C47.5712 44.8197 48.1567 44.7329 48.7207 44.8459C49.2847 44.9589 49.7922 45.2646 50.1567 45.711C50.5735 46.2214 50.7716 46.8767 50.7075 47.5334ZM50.7075 47.5334C50.7627 46.9633 50.6193 46.3915 50.3016 45.9155C49.9839 45.4395 49.5115 45.0887 48.965 44.9229C48.4185 44.757 47.8315 44.7863 47.3041 45.0058C46.7767 45.2253 46.3414 45.6214 46.0724 46.1267C45.8034 46.632 45.7172 47.2152 45.8286 47.777C45.94 48.3389 46.242 48.8446 46.6833 49.2082C47.1245 49.5717 47.6778 49.7706 48.2487 49.7709C48.8197 49.7712 49.3732 49.573 49.8148 49.2099C50.3218 48.7917 50.6429 48.1888 50.7075 47.5334Z" fill="white"/>
<path opacity="0.47" d="M49.9797 22.9957C49.9379 23.4169 49.7519 23.8105 49.4532 24.1095C49.1546 24.4085 48.7618 24.5944 48.3419 24.6354C47.9219 24.6764 47.5008 24.57 47.1503 24.3344C46.7998 24.0988 46.5416 23.7485 46.4196 23.3433C46.2977 22.9381 46.3196 22.5029 46.4816 22.1121C46.6436 21.7212 46.9357 21.3988 47.3081 21.1999C47.6805 21.0009 48.1101 20.9376 48.5238 21.0208C48.9375 21.1041 49.3096 21.3287 49.5767 21.6563C49.8819 22.0319 50.0268 22.5133 49.9797 22.9957ZM49.9797 22.9957C50.0072 22.7567 49.987 22.5147 49.9202 22.2836C49.8535 22.0526 49.7414 21.8373 49.5907 21.6502C49.44 21.4631 49.2537 21.3081 49.0425 21.1941C48.8314 21.0801 48.5997 21.0095 48.3611 20.9864C48.1224 20.9633 47.8816 20.9882 47.6527 21.0595C47.4237 21.1309 47.2112 21.2474 47.0276 21.4021C46.8441 21.5568 46.6931 21.7467 46.5835 21.9606C46.4739 22.1745 46.4079 22.4083 46.3894 22.6481C46.3548 23.0034 46.426 23.361 46.594 23.6758C46.762 23.9905 47.0193 24.2482 47.3332 24.4162C47.6472 24.5842 48.0038 24.6551 48.3579 24.6198C48.712 24.5845 49.0477 24.4447 49.3226 24.218C49.694 23.9136 49.9302 23.4742 49.9797 22.9957Z" fill="white"/>
<path opacity="0.47" d="M45.3158 9.20498C45.2937 9.4672 45.1692 9.71001 44.9693 9.88043C44.8688 9.96638 44.7524 10.0316 44.6267 10.0723C44.501 10.113 44.3685 10.1284 44.2369 10.1176C44.1053 10.1069 43.977 10.0702 43.8596 10.0096C43.7421 9.94898 43.6377 9.86572 43.5524 9.76458C43.423 9.61044 43.3426 9.42097 43.3215 9.22058C43.3004 9.02018 43.3396 8.81803 43.434 8.64017C43.5284 8.46231 43.6737 8.31688 43.8512 8.22262C44.0288 8.12836 44.2304 8.08958 44.43 8.11127C44.6937 8.14048 44.9352 8.27288 45.1021 8.4797C45.2655 8.68396 45.3422 8.94446 45.3158 9.20498ZM45.3158 9.20498C45.328 9.07571 45.3145 8.9453 45.276 8.82132C45.2375 8.69734 45.1749 8.58227 45.0918 8.48277C45.0086 8.38328 44.9066 8.30135 44.7916 8.24176C44.6766 8.18216 44.551 8.14608 44.422 8.1356C44.1647 8.1158 43.9102 8.19913 43.7141 8.36732C43.5185 8.53237 43.3953 8.76779 43.3709 9.02299C43.3465 9.27819 43.4229 9.5328 43.5836 9.73214C43.7467 9.9341 43.983 10.0629 44.2406 10.0903C44.4982 10.1176 44.7562 10.0413 44.9578 9.87812C45.0586 9.79501 45.1421 9.69279 45.2035 9.57729C45.265 9.46179 45.3031 9.33527 45.3158 9.20498Z" fill="white"/>
</g>
</g>
<defs>
<clipPath id="clip0">
<rect width="100" height="135" fill="white"/>
</clipPath>
</defs>
</svg>
