<svg width="185" height="184" viewBox="0 0 185 184" fill="none" xmlns="http://www.w3.org/2000/svg">
<g opacity="0.55">
<path opacity="0.34" d="M183.012 81.6285L88.5428 1.71468C87.5521 0.876625 86.0658 0.995815 85.2229 1.98087L2.45183 98.7174C1.60898 99.7025 1.72881 101.18 2.71951 102.018L97.1886 181.932C98.1793 182.77 99.6657 182.651 100.509 181.666L183.28 84.9295C184.122 83.9445 184.003 82.4665 183.012 81.6285Z" fill="white"/>
<path opacity="0.41" d="M168.06 68.9906L158.243 60.7313C146.15 74.3349 134.574 88.5069 120.976 100.677C105.907 114.174 87.8767 125.295 67.4279 128.487C54.279 130.537 40.065 128.827 27.7322 123.201L82.2331 169.307C91.4632 177.12 104.993 176.362 112.435 167.665L171.25 98.9379C178.726 90.2171 177.29 76.8175 168.06 68.9906Z" fill="white"/>
</g>
</svg>
