<svg width="153" height="179" viewBox="0 0 153 179" fill="none" xmlns="http://www.w3.org/2000/svg">
<path opacity="0.55" d="M80.3421 91.4192C85.5795 90.4982 90.268 87.5977 93.4464 83.3122L152.524 3.81064C152.787 3.45629 152.947 3.0354 152.986 2.59499C153.025 2.15458 152.941 1.71199 152.744 1.31666C152.547 0.921337 152.245 0.588845 151.871 0.356336C151.497 0.123826 151.066 0.00045315 150.626 3.84827e-08H2.3741C1.93465 -7.93552e-05 1.50383 0.122691 1.12977 0.354589C0.755714 0.586487 0.453152 0.918382 0.255881 1.3132C0.05861 1.70801 -0.0255998 2.1502 0.0126644 2.59036C0.0509286 3.03051 0.21016 3.45131 0.472564 3.80573L58.6639 82.4242C60.0365 84.2766 61.7027 85.8894 63.5959 87.1981L64.8338 88.0534C67.134 89.6405 69.7277 90.7472 72.4611 91.308C73.2061 112.759 72.8645 139.814 72.6237 152.955C72.5893 154.8 72.1241 156.611 71.2658 158.242C70.4074 159.873 69.1798 161.278 67.682 162.344L45.8851 177.881C45.7787 177.956 45.6989 178.064 45.6574 178.187C45.6158 178.311 45.6147 178.445 45.6541 178.569C45.6935 178.694 45.7713 178.802 45.8764 178.879C45.9814 178.956 46.1081 178.997 46.238 178.997H105.643C105.772 178.997 105.898 178.956 106.003 178.88C106.107 178.804 106.185 178.697 106.225 178.573C106.265 178.45 106.265 178.317 106.225 178.193C106.185 178.07 106.107 177.962 106.002 177.886L85.1228 162.621C83.6774 161.565 82.4913 160.191 81.6554 158.604C80.8194 157.016 80.3558 155.258 80.2999 153.462C79.9127 140.789 79.3271 114.064 80.3421 91.4192Z" fill="white"/>
<path opacity="0.55" d="M80.3421 91.4192C85.5795 90.4982 90.268 87.5977 93.4464 83.3122L152.524 3.81064C152.787 3.45629 152.947 3.0354 152.986 2.59499C153.025 2.15458 152.941 1.71199 152.744 1.31666C152.547 0.921337 152.245 0.588845 151.871 0.356336C151.497 0.123826 151.066 0.00045315 150.626 3.84827e-08H2.3741C1.93465 -7.93552e-05 1.50383 0.122691 1.12977 0.354589C0.755714 0.586487 0.453152 0.918382 0.255881 1.3132C0.05861 1.70801 -0.0255998 2.1502 0.0126644 2.59036C0.0509286 3.03051 0.21016 3.45131 0.472564 3.80573L58.6639 82.4242C60.0365 84.2766 61.7027 85.8894 63.5959 87.1981L64.8338 88.0534C67.134 89.6405 69.7277 90.7472 72.4611 91.308C73.2061 112.759 72.8645 139.814 72.6237 152.955C72.5893 154.8 72.1241 156.611 71.2658 158.242C70.4074 159.873 69.1798 161.278 67.682 162.344L45.8851 177.881C45.7787 177.956 45.6989 178.064 45.6574 178.187C45.6158 178.311 45.6147 178.445 45.6541 178.569C45.6935 178.694 45.7713 178.802 45.8764 178.879C45.9814 178.956 46.1081 178.997 46.238 178.997H105.643C105.772 178.997 105.898 178.956 106.003 178.88C106.107 178.804 106.185 178.697 106.225 178.573C106.265 178.45 106.265 178.317 106.225 178.193C106.185 178.07 106.107 177.962 106.002 177.886L85.1228 162.621C83.6774 161.565 82.4913 160.191 81.6554 158.604C80.8194 157.016 80.3558 155.258 80.2999 153.462C79.9127 140.789 79.3271 114.064 80.3421 91.4192Z" fill="#B5DEE0"/>
<path d="M150.627 0H76.6392V179H105.644C105.773 179 105.899 178.96 106.004 178.884C106.108 178.808 106.186 178.7 106.226 178.576C106.266 178.453 106.266 178.32 106.226 178.197C106.186 178.073 106.108 177.966 106.003 177.89L85.1237 162.621C83.6783 161.565 82.4922 160.191 81.6563 158.604C80.8203 157.016 80.3566 155.258 80.3007 153.462C79.9136 140.792 79.3247 114.067 80.343 91.4225C85.5804 90.5015 90.2689 87.6009 93.4472 83.3155L152.525 3.81391C152.789 3.45957 152.95 3.03835 152.989 2.59743C153.028 2.1565 152.945 1.71328 152.748 1.3174C152.551 0.921507 152.248 0.588584 151.873 0.355911C151.499 0.123239 151.067 -1.3009e-07 150.627 0Z" fill="#BAE0E1"/>
<path d="M3.66479 0.140625H149.347L92.1556 77.8628C90.8401 79.6513 89.2297 81.2001 87.3944 82.4421C84.1873 84.6161 80.4011 85.7638 76.5333 85.7346C72.6655 85.7055 68.897 84.5007 65.7227 82.2786L64.2799 81.2711C62.7273 80.1861 61.3627 78.8518 60.2409 77.3215L3.66479 0.140625Z" fill="#C2E3E4"/>
<path opacity="0.31" d="M3.45508 0.0605469H149.132L91.9458 78.0477C90.6305 79.8423 89.0197 81.3977 87.183 82.6466C83.9788 84.8272 80.1919 85.9789 76.3227 85.9497C72.4536 85.9205 68.6843 84.7117 65.513 82.4831L64.0701 81.474C62.5168 80.3847 61.1522 79.0459 60.0312 77.5113L3.45508 0.0605469Z" fill="#F7ED88"/>
<path opacity="0.31" d="M22.7649 26.4962L60.0312 77.5227C60.2182 77.7778 60.4199 78.0133 60.6184 78.2619H91.7815C91.8336 78.1915 91.8938 78.1261 91.9442 78.0558L129.749 26.5043L22.7649 26.4962Z" fill="#F7ED88"/>
<path d="M42.2356 53.0169L60.031 77.5161C61.1525 79.049 62.517 80.3862 64.07 81.4739L65.5128 82.4847C68.684 84.7138 72.4533 85.9228 76.3225 85.952C80.1918 85.9812 83.9787 84.8292 87.1829 82.6482C89.0198 81.4003 90.6307 79.8454 91.9457 78.0509L110.621 52.8533L42.2356 53.0169Z" fill="#F7ED88"/>
<g opacity="0.56">
<path opacity="0.56" d="M93.9708 37.3704C93.9703 38.9779 93.3751 40.5278 92.3009 41.7184C91.2268 42.9091 89.7505 43.6555 88.1592 43.8123C86.568 43.9691 84.9757 43.5252 83.692 42.5669C82.4083 41.6086 81.525 40.2045 81.2141 38.6277C80.9031 37.0509 81.1866 35.4141 82.0095 34.0359C82.8325 32.6576 84.1359 31.6364 85.6662 31.1709C87.1966 30.7055 88.8444 30.829 90.2892 31.5175C91.734 32.206 92.8723 33.4102 93.4829 34.8959C93.8052 35.6806 93.971 36.5214 93.9708 37.3704ZM93.9708 37.3704C93.9698 36.3102 93.7085 35.2667 93.2102 34.3323C92.712 33.3979 91.9921 32.6016 91.1145 32.0139C90.2368 31.4262 89.2285 31.0654 88.1789 30.9633C87.1293 30.8612 86.0709 31.0211 85.0975 31.4288C84.1267 31.8363 83.2708 32.478 82.6052 33.2971C81.9397 34.1163 81.4852 35.0877 81.2817 36.1254C81.0783 37.1631 81.1323 38.2353 81.4389 39.2471C81.7455 40.2588 82.2953 41.1791 83.0397 41.9265C83.784 42.6739 84.7001 43.2254 85.7068 43.5323C86.7136 43.8392 87.78 43.892 88.8119 43.6861C89.8437 43.4801 90.8092 43.0218 91.6231 42.3516C92.4369 41.6813 93.074 40.8198 93.478 39.8432C93.8014 39.0593 93.9688 38.2191 93.9708 37.3704Z" fill="white"/>
<path opacity="0.56" d="M75.2824 64.0923C75.2803 65.1141 74.9258 66.1035 74.2793 66.8919C73.6329 67.6803 72.7345 68.219 71.7373 68.416C70.7401 68.613 69.7057 68.4562 68.8106 67.9723C67.9155 67.4884 67.215 66.7074 66.8285 65.7624C66.442 64.8174 66.3935 63.7669 66.6911 62.7899C66.9887 61.8129 67.6141 60.9699 68.4607 60.4046C69.3073 59.8393 70.3226 59.5867 71.3337 59.6899C72.3448 59.793 73.289 60.2455 74.0055 60.9702C74.8247 61.8004 75.2837 62.9228 75.2824 64.0923ZM75.2824 64.0923C75.2846 63.0758 74.9363 62.0899 74.2968 61.3026C73.6572 60.5153 72.766 59.9753 71.7748 59.7746C70.7837 59.5738 69.754 59.7247 68.8612 60.2016C67.9683 60.6785 67.2675 61.4518 66.8781 62.3899C66.4886 63.328 66.4347 64.3728 66.7255 65.3464C67.0163 66.3199 67.6337 67.162 68.4727 67.7292C69.3117 68.2965 70.3203 68.5537 71.3268 68.4571C72.3333 68.3606 73.2753 67.9162 73.9925 67.1997C74.8138 66.3758 75.2775 65.2587 75.2824 64.0923Z" fill="white"/>
<path opacity="0.56" d="M71.4827 16.8142C71.4807 17.5644 71.2201 18.2908 70.7451 18.8694C70.2701 19.448 69.6102 19.843 68.8779 19.9871C68.1456 20.1312 67.3863 20.0154 66.7294 19.6596C66.0725 19.3037 65.5587 18.7298 65.2757 18.0356C64.9926 17.3415 64.9578 16.5701 65.1771 15.853C65.3965 15.1359 65.8565 14.5176 66.4786 14.1033C67.1007 13.6891 67.8465 13.5047 68.5888 13.5815C69.331 13.6583 70.0238 13.9916 70.549 14.5246C71.1488 15.1338 71.4845 15.957 71.4827 16.8142ZM71.4827 16.8142C71.485 16.0698 71.2306 15.3476 70.7628 14.7706C70.295 14.1936 69.6427 13.7974 68.917 13.6496C68.1914 13.5018 67.4372 13.6115 66.7829 13.96C66.1287 14.3084 65.6148 14.8742 65.3287 15.5608C65.0427 16.2474 65.0022 17.0125 65.2142 17.7257C65.4262 18.439 65.8776 19.0563 66.4914 19.4726C67.1053 19.8888 67.8436 20.0783 68.5808 20.0087C69.3179 19.939 70.0083 19.6147 70.5343 19.0908C71.1371 18.4877 71.478 17.6692 71.4827 16.8142Z" fill="white"/>
<path opacity="0.56" d="M80.8278 5.94821C80.829 6.18019 80.7847 6.41013 80.6973 6.62484C80.6099 6.83954 80.4812 7.03478 80.3186 7.19934C80.0717 7.45208 79.7556 7.6252 79.4104 7.69665C79.0653 7.7681 78.7069 7.73465 78.3807 7.60055C78.0546 7.46645 77.7756 7.23777 77.5791 6.94366C77.3827 6.64954 77.2778 6.30329 77.2778 5.94903C77.2778 5.59476 77.3827 5.24852 77.5791 4.9544C77.7756 4.66028 78.0546 4.43161 78.3807 4.29751C78.7069 4.16341 79.0653 4.12995 79.4104 4.2014C79.7556 4.27285 80.0717 4.44597 80.3186 4.69871C80.4812 4.86297 80.6099 5.05792 80.6973 5.27236C80.7846 5.48679 80.829 5.71648 80.8278 5.94821ZM80.8278 5.94821C80.8282 5.60234 80.7261 5.26419 80.5345 4.97692C80.343 4.68965 80.0706 4.46629 79.7522 4.33536C79.4338 4.20443 79.0838 4.17187 78.7469 4.24183C78.41 4.31179 78.1015 4.4811 77.8607 4.72815C77.5515 5.05788 77.3823 5.49579 77.389 5.94892C77.3957 6.40204 77.5778 6.83469 77.8967 7.15503C78.2155 7.47536 78.6459 7.65815 79.0966 7.6646C79.5473 7.67104 79.9827 7.50062 80.3105 7.18953C80.4736 7.02697 80.6033 6.83366 80.6921 6.62065C80.7808 6.40765 80.8269 6.17915 80.8278 5.94821Z" fill="white"/>
</g>
<path opacity="0.18" d="M111.633 0.0605469C104.812 13.8541 99.9212 28.5814 93.4667 42.5826C86.5762 57.5259 77.4443 72.0913 64.075 81.474L65.5129 82.4814C68.6844 84.7105 72.454 85.9195 76.3235 85.9487C80.193 85.9779 83.9802 84.8259 87.1846 82.645C89.0207 81.3966 90.631 79.8418 91.9458 78.0477L149.132 0.0605469H111.633Z" fill="#D6ECED"/>
</svg>
