<svg width="122" height="179" viewBox="0 0 122 179" fill="none" xmlns="http://www.w3.org/2000/svg">
<g clip-path="url(#clip0)">
<path d="M37.1502 14.9192C19.5207 20.5066 9.78172 39.2461 15.3998 56.7765C21.0179 74.307 39.8659 83.9893 57.4967 78.4032L37.1502 14.9192Z" fill="#FFD840"/>
<path opacity="0.56" d="M38.1679 18.0938C21.7116 23.3074 12.4717 40.3249 17.5285 56.1024C22.5853 71.88 40.0242 80.4422 56.4793 75.2286L38.1679 18.0938Z" fill="white"/>
<path d="M38.9844 20.6445C23.9981 25.3929 15.5826 40.8907 20.1883 55.2595C24.794 69.6283 40.6761 77.4288 55.6612 72.6779L38.9844 20.6445Z" fill="#FFD840"/>
<path opacity="0.56" d="M19.9109 56.2223L46.1827 47.642" stroke="white" stroke-miterlimit="10"/>
<path opacity="0.56" d="M35.6492 72.4084L46.6559 48.048" stroke="white" stroke-miterlimit="10"/>
<path opacity="0.56" d="M22.304 32.5991L46.1517 47.2051" stroke="white" stroke-miterlimit="10"/>
<path opacity="0.56" d="M57.3801 78.3439L37.2358 15.1847" stroke="white" stroke-miterlimit="10"/>
<path d="M56.4923 78.6802C74.1217 73.0941 83.8607 54.3546 78.2426 36.8241C72.6245 19.2937 53.7765 9.61397 36.1458 15.2001L56.4923 78.6802Z" fill="#FFD840"/>
<path opacity="0.56" d="M55.4745 75.5095C71.9296 70.3023 81.1708 53.2784 76.114 37.5008C71.0572 21.7233 53.6182 13.1598 37.1619 18.3747L55.4745 75.5095Z" fill="white"/>
<path d="M54.6566 72.9587C69.6429 68.2104 78.0584 52.7125 73.4527 38.3437C68.847 23.975 52.9649 16.1745 37.9785 20.9254L54.6566 72.9587Z" fill="#FFD840"/>
<path opacity="0.56" d="M73.7314 37.3823L47.2146 47.2154" stroke="white" stroke-miterlimit="10"/>
<path opacity="0.56" d="M57.9944 21.1948L47.0317 47.1406" stroke="white" stroke-miterlimit="10"/>
<path opacity="0.56" d="M71.3385 61.0041L47.3857 48.347" stroke="white" stroke-miterlimit="10"/>
<path opacity="0.56" d="M36.2622 15.2607L56.4078 78.4199" stroke="white" stroke-miterlimit="10"/>
<path d="M116.896 49.7137H1.1036C-0.681383 49.7137 -2.09952 51.3094 -1.99452 53.2015L5.36191 95.8568C5.45783 97.5994 6.81764 98.9605 8.46133 98.9605H10.1932L23.8042 178.936C23.9597 179.546 24.7634 179.993 25.7032 179.993H95.4305C96.3664 179.993 97.1662 179.551 97.3283 178.944L109.229 98.9605H109.327C110.972 98.9605 112.33 97.5994 112.426 95.8568L119.996 53.2015C120.099 51.3094 118.681 49.7137 116.896 49.7137Z" fill="#D6ECED"/>
<path d="M116.896 49.7137H58.4668V179.993H95.42C96.3559 179.993 97.1557 179.551 97.3178 178.944L109.229 98.9605H109.327C110.972 98.9605 112.33 97.5994 112.426 95.8568L119.996 53.2015C120.099 51.3094 118.681 49.7137 116.896 49.7137Z" fill="#BAE0E1"/>
<path d="M6.65815 50.0669H111.761C112.902 50.0669 113.766 50.7114 113.576 51.4125L97.065 157.888C96.9108 158.437 94.6643 167.394 87.991 167.394H32.8989C26.4965 167.394 24.3771 159.12 24.2293 158.567L4.84723 51.4048C4.65927 50.7049 5.52649 50.0669 6.65815 50.0669Z" fill="white"/>
<path d="M113.862 1.88726L108.071 1L83.2524 161.148L89.0432 162.035L113.862 1.88726Z" fill="#322F38"/>
<g opacity="0.76">
<path opacity="0.76" d="M6.65815 49.9381H111.761C112.902 49.9381 113.766 50.5826 113.576 51.2837L97.065 157.759C96.9108 158.308 94.6643 167.265 87.991 167.265H32.8989C26.4965 167.265 24.3771 158.992 24.2293 158.439L4.84723 51.276C4.65927 50.5761 5.52649 49.9381 6.65815 49.9381Z" fill="#F7CE7C"/>
<path opacity="0.55" d="M14.8403 106.524L24.2319 158.439C24.3797 158.992 26.4991 167.265 32.9015 167.265H87.9936C94.663 167.265 96.9095 158.308 97.0676 157.759L105.013 106.524H14.8403Z" fill="#F7CE7C"/>
<path opacity="0.47" d="M20.3105 136.762L24.2318 158.439C24.3796 158.992 26.499 167.265 32.9014 167.265H87.9935C94.6629 167.265 96.9094 158.308 97.0676 157.759L100.324 136.762H20.3105Z" fill="#F7CE7C"/>
<path opacity="0.72" d="M23.3816 153.738L24.232 158.439C24.3797 158.992 26.4992 167.265 32.9015 167.265H87.9937C94.6631 167.265 96.9096 158.308 97.0677 157.759L97.6912 153.738H23.3816Z" fill="#F7CE7C"/>
</g>
<g opacity="0.83">
<path opacity="0.34" d="M45.3756 162.59L64.2013 144.098C64.4467 143.857 64.4492 143.464 64.2067 143.22L43.9871 122.868C43.7446 122.624 43.349 122.622 43.1035 122.863L24.2778 141.354C24.0323 141.595 24.0299 141.988 24.2724 142.233L44.492 162.584C44.7345 162.828 45.1301 162.831 45.3756 162.59Z" fill="white"/>
<path opacity="0.41" d="M48.295 159.716L50.2692 157.782C47.4044 154.801 44.4204 151.923 41.9017 148.65C39.1108 145.023 36.8851 140.809 36.4573 136.261C36.1786 133.338 36.749 130.272 38.1619 127.721L27.2044 138.484C26.7628 138.917 26.4113 139.433 26.1702 140.001C25.9291 140.569 25.803 141.18 25.7992 141.796C25.7953 142.413 25.9138 143.025 26.1478 143.596C26.3818 144.168 26.7267 144.688 27.1629 145.127L41.6191 159.68C42.4998 160.564 43.6977 161.065 44.9495 161.072C46.2014 161.078 47.4047 160.591 48.295 159.716Z" fill="white"/>
</g>
<g opacity="0.7">
<path opacity="0.34" d="M36.0497 103.276L63.5159 81.2474C63.7845 81.032 63.8266 80.6409 63.6099 80.3738L41.2667 52.8312C41.05 52.5641 40.6566 52.5223 40.3881 52.7377L12.9219 74.7661C12.6533 74.9815 12.6112 75.3726 12.8279 75.6397L35.1711 103.182C35.3878 103.449 35.7812 103.491 36.0497 103.276Z" fill="white"/>
<path opacity="0.41" d="M40.412 99.7686L43.2639 97.4847C40.1411 93.4891 36.8472 89.6223 34.2158 85.2826C31.2978 80.4788 29.203 74.9816 29.4441 69.2111C29.6088 65.3918 30.8776 61.7008 33.0984 58.5802L17.2863 71.2566C14.6081 73.404 14.0663 77.1534 16.0768 79.6346L31.9239 99.1693C33.9332 101.648 37.7339 101.916 40.412 99.7686Z" fill="white"/>
</g>
<g opacity="0.55">
<path opacity="0.34" d="M105.916 96.8187L80.8541 75.618C80.5912 75.3957 80.1969 75.4273 79.9733 75.6886L58.0146 101.352C57.791 101.614 57.8228 102.006 58.0856 102.228L83.1477 123.429C83.4106 123.651 83.8049 123.619 84.0285 123.358L105.987 97.6944C106.211 97.4331 106.179 97.041 105.916 96.8187Z" fill="white"/>
<path opacity="0.41" d="M101.949 93.4659L99.3452 91.2747C96.1369 94.8837 93.066 98.6434 89.4585 101.872C85.4607 105.453 80.6774 108.403 75.2525 109.25C71.7642 109.794 67.9933 109.34 64.7214 107.848L79.1802 120.079C81.6289 122.152 85.2183 121.951 87.1926 119.644L102.796 101.411C104.779 99.0971 104.398 95.5423 101.949 93.4659Z" fill="white"/>
</g>
<g opacity="0.5">
<path opacity="0.5" d="M63.0907 136.006C62.9618 137.348 62.3353 138.595 61.3332 139.503C60.3312 140.411 59.0252 140.915 57.6694 140.919C56.3136 140.922 55.0051 140.424 53.9984 139.521C52.9917 138.618 52.3588 137.375 52.223 136.034C52.0872 134.692 52.4582 133.349 53.2636 132.265C54.0691 131.18 55.2515 130.433 56.5808 130.167C57.91 129.902 59.291 130.138 60.455 130.829C61.619 131.52 62.4828 132.617 62.8782 133.907C63.0861 134.586 63.1583 135.299 63.0907 136.006ZM63.0907 136.006C63.2211 134.671 62.8472 133.335 62.0417 132.258C61.2362 131.181 60.0568 130.441 58.7327 130.181C57.4087 129.921 56.0347 130.16 54.8781 130.851C53.7215 131.543 52.8648 132.637 52.4749 133.922C52.0849 135.207 52.1894 136.59 52.7681 137.802C53.3467 139.014 54.3582 139.969 55.6058 140.481C56.8534 140.993 58.2478 141.025 59.5179 140.571C60.788 140.118 61.843 139.21 62.4776 138.026C62.8132 137.399 63.0216 136.713 63.0907 136.006Z" fill="white"/>
<path opacity="0.5" d="M77.0245 154.723C76.9405 155.573 76.5625 156.369 75.9547 156.974C75.347 157.578 74.5471 157.955 73.6915 158.039C72.8359 158.123 71.9774 157.91 71.2623 157.435C70.5472 156.96 70.0198 156.254 69.7699 155.436C69.5199 154.618 69.563 153.739 69.8916 152.949C70.2203 152.159 70.8143 151.507 71.5724 151.103C72.3305 150.7 73.2057 150.571 74.0491 150.737C74.8924 150.903 75.6517 151.355 76.1975 152.016C76.8232 152.773 77.1207 153.747 77.0245 154.723ZM77.0245 154.723C77.1069 153.876 76.8916 153.027 76.4152 152.321C75.9389 151.614 75.231 151.094 74.412 150.848C73.5931 150.602 72.7138 150.646 71.9239 150.973C71.1341 151.299 70.4824 151.888 70.0799 152.638C69.6775 153.389 69.5492 154.255 69.7168 155.089C69.8844 155.923 70.3376 156.674 70.9992 157.213C71.6609 157.752 72.49 158.046 73.3454 158.046C74.2008 158.045 75.0296 157.75 75.6906 157.21C76.4487 156.589 76.9284 155.695 77.0245 154.723Z" fill="white"/>
<path opacity="0.5" d="M71.667 118.326C71.6165 118.861 71.4078 119.369 71.0672 119.786C70.7266 120.202 70.2695 120.509 69.7535 120.668C69.2376 120.827 68.6859 120.83 68.1682 120.677C67.6505 120.524 67.19 120.222 66.8449 119.809C66.5554 119.465 66.356 119.055 66.2642 118.616C66.1725 118.177 66.1913 117.722 66.319 117.292C66.4467 116.862 66.6794 116.47 66.9962 116.151C67.3131 115.832 67.7044 115.595 68.1353 115.463C68.5662 115.331 69.0233 115.306 69.466 115.392C69.9087 115.477 70.3232 115.67 70.6728 115.954C71.0223 116.237 71.296 116.602 71.4694 117.016C71.6429 117.43 71.7108 117.88 71.667 118.326ZM71.667 118.326C71.7286 117.706 71.572 117.084 71.224 116.566C70.876 116.048 70.3581 115.666 69.7585 115.484C69.1589 115.303 68.5146 115.334 67.9355 115.573C67.3564 115.811 66.8783 116.241 66.5825 116.79C66.2867 117.34 66.1915 117.974 66.3133 118.585C66.435 119.196 66.7661 119.747 67.2502 120.143C67.7342 120.538 68.3413 120.755 68.9679 120.756C69.5946 120.756 70.2021 120.541 70.6871 120.146C71.2427 119.692 71.595 119.038 71.667 118.326Z" fill="white"/>
<path opacity="0.5" d="M49.0105 100.003C48.2175 100.334 47.3336 100.381 46.5095 100.137C45.6854 99.8926 44.9721 99.3715 44.4911 98.6626C44.0101 97.9538 43.7912 97.101 43.8718 96.2497C43.9524 95.3983 44.3274 94.6011 44.933 93.9939C45.5386 93.3868 46.3371 93.0072 47.1927 92.9199C48.0482 92.8327 48.9076 93.0431 49.6246 93.5154C50.3415 93.9877 50.8715 94.6926 51.1242 95.5099C51.377 96.3272 51.3368 97.2064 51.0106 97.9976C50.6369 98.9029 49.9177 99.624 49.0105 100.003ZM49.0105 100.003C49.7994 99.6736 50.449 99.0822 50.8487 98.3298C51.2484 97.5774 51.3733 96.7105 51.2023 95.8768C51.0313 95.0431 50.5749 94.2941 49.9109 93.7574C49.2468 93.2207 48.4162 92.9295 47.5604 92.9333C46.7047 92.9372 45.8767 93.236 45.2177 93.7787C44.5586 94.3214 44.1091 95.0745 43.9458 95.9098C43.7824 96.745 43.9154 97.6107 44.3219 98.3595C44.7285 99.1082 45.3835 99.6936 46.1755 100.016C47.0851 100.384 48.1043 100.38 49.0105 100.003Z" fill="white"/>
<path opacity="0.5" d="M69.8224 79.4271C69.3251 79.6363 68.7766 79.6945 68.2462 79.594C67.7157 79.4936 67.2271 79.2392 66.8419 78.8629C66.4568 78.4865 66.1924 78.0052 66.0822 77.4795C65.972 76.9539 66.0208 76.4076 66.2226 75.9096C66.3898 75.4931 66.6578 75.1241 67.003 74.8354C67.3482 74.5468 67.7598 74.3474 68.2012 74.2551C68.6426 74.1628 69.1 74.1805 69.5329 74.3064C69.9658 74.4324 70.3606 74.6628 70.6823 74.9771C71.004 75.2915 71.2426 75.68 71.3768 76.1081C71.511 76.5363 71.5367 76.9908 71.4516 77.4312C71.3665 77.8716 71.1732 78.2843 70.889 78.6325C70.6048 78.9807 70.2384 79.2536 69.8224 79.4271ZM69.8224 79.4271C70.4006 79.1863 70.8769 78.7538 71.1702 78.203C71.4636 77.6523 71.5558 77.0175 71.4312 76.4067C71.3065 75.7959 70.9728 75.247 70.4868 74.8535C70.0008 74.4599 69.3926 74.2461 68.7658 74.2485C68.1391 74.2508 67.5325 74.4691 67.0495 74.8663C66.5665 75.2634 66.2369 75.8148 66.1169 76.4265C65.9969 77.0382 66.0939 77.6723 66.3914 78.2208C66.6889 78.7694 67.1684 79.1984 67.7484 79.4348C68.4137 79.7044 69.1592 79.7017 69.8224 79.4271Z" fill="white"/>
<path opacity="0.5" d="M78.2481 64.8649C78.0687 64.9411 77.876 64.9814 77.6809 64.9834C77.4858 64.9854 77.2922 64.9491 77.1113 64.8765C76.7888 64.7489 76.5208 64.5138 76.3532 64.2116C76.1856 63.9093 76.1288 63.5585 76.1924 63.2192C76.256 62.8798 76.4361 62.573 76.702 62.351C76.9679 62.1291 77.303 62.0058 77.6501 62.0023C77.9972 61.9987 78.3349 62.1151 78.6053 62.3316C78.8757 62.5481 79.0621 62.8512 79.1327 63.1892C79.2033 63.5271 79.1537 63.879 78.9924 64.1846C78.831 64.4903 78.568 64.7307 78.2481 64.8649ZM78.2481 64.8649C78.6089 64.7111 78.8937 64.4215 79.0402 64.0594C79.1465 63.7923 79.1711 63.4999 79.1109 63.219C79.0507 62.938 78.9083 62.6811 78.7017 62.4803C78.4951 62.2795 78.2335 62.1439 77.9496 62.0905C77.6658 62.0371 77.3724 62.0682 77.1063 62.1801C76.8402 62.2919 76.6132 62.4794 76.4539 62.719C76.2946 62.9586 76.2101 63.2397 76.2109 63.527C76.2117 63.8142 76.2979 64.0948 76.4585 64.3335C76.6192 64.5723 76.8472 64.7585 77.1139 64.8688C77.4777 65.0165 77.8854 65.0151 78.2481 64.8649Z" fill="white"/>
</g>
</g>
<defs>
<clipPath id="clip0">
<rect width="122" height="179" fill="white"/>
</clipPath>
</defs>
</svg>
