<svg width="116" height="181" viewBox="0 0 116 181" fill="none" xmlns="http://www.w3.org/2000/svg">
<g clip-path="url(#clip0)">
<path opacity="0.55" d="M60.9131 115.127C64.8834 114.433 68.4375 112.251 70.848 109.029L115.639 49.2373C115.838 48.9708 115.96 48.6542 115.989 48.3229C116.018 47.9916 115.955 47.6586 115.806 47.3612C115.656 47.0639 115.427 46.8138 115.143 46.6389C114.86 46.4641 114.533 46.3713 114.199 46.3711H1.79772C1.46448 46.3712 1.13783 46.4637 0.854233 46.6382C0.570638 46.8128 0.341262 47.0625 0.191709 47.3596C0.042156 47.6566 -0.0216876 47.9892 0.00730739 48.3204C0.0363024 48.6515 0.156991 48.9681 0.355906 49.2347L44.4712 108.361C45.5136 109.754 46.7787 110.967 48.2159 111.95L49.1539 112.594C50.8985 113.787 52.8651 114.619 54.9376 115.042C55.5032 131.176 55.2431 151.526 55.0639 161.409C55.038 162.797 54.6854 164.159 54.0348 165.385C53.3841 166.612 52.4534 167.669 51.3179 168.471L34.7901 180.158C34.7102 180.214 34.6504 180.295 34.6193 180.388C34.5882 180.481 34.5875 180.581 34.6173 180.674C34.6471 180.768 34.7058 180.849 34.7849 180.907C34.8641 180.965 34.9597 180.996 35.0578 180.996H80.0948C80.1923 180.996 80.2874 180.965 80.3662 180.908C80.4451 180.85 80.5039 180.77 80.5341 180.677C80.5643 180.585 80.5645 180.485 80.5346 180.392C80.5046 180.3 80.4462 180.219 80.3675 180.161L64.5366 168.682C63.4391 167.888 62.5384 166.854 61.9037 165.659C61.269 164.465 60.9172 163.141 60.8753 161.789C60.5874 152.26 60.143 132.159 60.9131 115.127Z" fill="white"/>
<path opacity="0.55" d="M60.9131 115.127C64.8834 114.433 68.4375 112.251 70.848 109.029L115.639 49.2373C115.838 48.9708 115.96 48.6542 115.989 48.3229C116.018 47.9916 115.955 47.6586 115.806 47.3612C115.656 47.0639 115.427 46.8138 115.143 46.6389C114.86 46.4641 114.533 46.3713 114.199 46.3711H1.79772C1.46448 46.3712 1.13783 46.4637 0.854233 46.6382C0.570638 46.8128 0.341262 47.0625 0.191709 47.3596C0.042156 47.6566 -0.0216876 47.9892 0.00730739 48.3204C0.0363024 48.6515 0.156991 48.9681 0.355906 49.2347L44.4712 108.361C45.5136 109.754 46.7787 110.967 48.2159 111.95L49.1539 112.594C50.8985 113.787 52.8651 114.619 54.9376 115.042C55.5032 131.176 55.2431 151.526 55.0639 161.409C55.038 162.797 54.6854 164.159 54.0348 165.385C53.3841 166.612 52.4534 167.669 51.3179 168.471L34.7901 180.158C34.7102 180.214 34.6504 180.295 34.6193 180.388C34.5882 180.481 34.5875 180.581 34.6173 180.674C34.6471 180.768 34.7058 180.849 34.7849 180.907C34.8641 180.965 34.9597 180.996 35.0578 180.996H80.0948C80.1923 180.996 80.2874 180.965 80.3662 180.908C80.4451 180.85 80.5039 180.77 80.5341 180.677C80.5643 180.585 80.5645 180.485 80.5346 180.392C80.5046 180.3 80.4462 180.219 80.3675 180.161L64.5366 168.682C63.4391 167.888 62.5384 166.854 61.9037 165.659C61.269 164.465 60.9172 163.141 60.8753 161.789C60.5874 152.26 60.143 132.159 60.9131 115.127Z" fill="#B5DEE0"/>
<path d="M114.2 46.3661H58.1067V181H80.0949C80.1925 181 80.2875 180.969 80.3664 180.912C80.4453 180.854 80.504 180.774 80.5343 180.681C80.5645 180.589 80.5646 180.489 80.5347 180.396C80.5048 180.304 80.4463 180.223 80.3676 180.165L64.5368 168.682C63.4392 167.888 62.5385 166.854 61.9038 165.66C61.2691 164.465 60.9173 163.141 60.8754 161.789C60.5825 152.26 60.1381 132.159 60.9082 115.127C64.8785 114.433 68.4326 112.251 70.8431 109.029L115.639 49.2373C115.84 48.9708 115.962 48.6537 115.993 48.3216C116.023 47.9895 115.96 47.6556 115.81 47.3574C115.661 47.0591 115.431 46.8083 115.146 46.6332C114.862 46.4581 114.534 46.3656 114.2 46.3661Z" fill="#BAE0E1"/>
<path d="M2.77759 46.4668H113.229L69.8684 104.93C68.8714 106.276 67.6506 107.442 66.2589 108.378C63.8277 110.013 60.9575 110.877 58.0252 110.856C55.0929 110.835 52.2355 109.929 49.8283 108.259L48.7337 107.504C47.5563 106.688 46.5219 105.684 45.672 104.533L2.77759 46.4668Z" fill="#C2E3E4"/>
<path d="M11.7466 -0.00128174C13.0091 3.50712 14.2413 7.02308 15.49 10.534L19.1968 21.0831C20.4366 24.5978 21.6511 28.1213 22.8783 31.6398L26.551 42.2003L33.8219 63.3464L37.4277 73.9245C38.617 77.4505 39.8189 80.9854 40.9969 84.5202C39.7343 81.0131 38.5009 77.4971 37.2522 73.9849L33.5467 63.4421L26.1925 42.3249L22.5526 31.7469C21.3418 28.2208 20.1197 24.7023 18.9215 21.1688L15.3158 10.5907C14.1265 7.06337 12.9245 3.53608 11.7466 -0.00128174Z" fill="#DEBEA6"/>
<path d="M29.5053 59.6781C35.4789 59.6781 40.3214 54.7876 40.3214 48.7549C40.3214 42.7222 35.4789 37.8318 29.5053 37.8318C23.5317 37.8318 18.6892 42.7222 18.6892 48.7549C18.6892 54.7876 23.5317 59.6781 29.5053 59.6781Z" fill="#322F38"/>
<path d="M29.3209 49.7888C29.2862 50.7845 28.8626 51.7273 28.1404 52.4157C27.7809 52.7601 27.356 53.0294 26.8906 53.2076C26.4252 53.3858 25.9288 53.4693 25.4306 53.4532C24.9323 53.4371 24.4424 53.3218 23.9895 53.114C23.5366 52.9062 23.13 52.6101 22.7936 52.2432C22.108 51.4977 21.745 50.5125 21.7835 49.5016C21.8221 48.4908 22.259 47.5359 22.9994 46.8445C23.3629 46.5041 23.791 46.2396 24.2585 46.0667C24.726 45.8938 25.2235 45.816 25.7217 45.8378C26.2198 45.8596 26.7086 45.9807 27.1591 46.1938C27.6096 46.4069 28.0128 46.7078 28.345 47.0788C29.012 47.8207 29.3622 48.7931 29.3209 49.7888ZM29.3209 49.7888C29.3542 48.7955 28.9972 47.8285 28.326 47.0939C27.9952 46.7331 27.5954 46.442 27.1501 46.2377C26.7048 46.0334 26.223 45.9201 25.7331 45.9044C25.2432 45.8887 24.7551 45.9709 24.2975 46.1462C23.84 46.3215 23.4222 46.5863 23.0688 46.9251C22.3624 47.6049 21.9481 48.5316 21.9132 49.51C21.8784 50.4884 22.2257 51.4421 22.882 52.1701C23.2084 52.5348 23.6047 52.8307 24.0475 53.0403C24.4903 53.2498 24.9707 53.3689 25.4604 53.3905C25.95 53.4121 26.4391 53.3358 26.8987 53.166C27.3583 52.9962 27.7792 52.7364 28.1366 52.4018C28.858 51.7182 29.283 50.7805 29.3209 49.7888Z" fill="#1C1A22"/>
<path d="M36.5541 40.4788C37.2902 44.4532 37.1639 48.6643 34.1705 52.2847C31.9813 54.9355 27.5952 57.1292 22.8342 57.3395C24.618 58.7662 26.8142 59.5833 29.0989 59.6705C35.0694 59.8972 40.0829 55.1924 40.314 49.1642C40.3777 47.5283 40.073 45.8989 39.4224 44.3959C38.7717 42.8928 37.7916 41.5543 36.5541 40.4788Z" fill="#1C1A22"/>
<path d="M29.6872 27.0321C29.263 32.2821 24.7053 36.191 19.5074 35.7628C14.3096 35.3346 10.4374 30.7319 10.8616 25.4819C11.2858 20.2319 15.8423 16.323 21.0414 16.7512C26.2405 17.1793 30.1102 21.7846 29.6872 27.0321Z" fill="#71B04E"/>
<path opacity="0.39" d="M20.0793 27.1517C20.0184 27.7911 19.7694 28.3984 19.3636 28.8971C18.9577 29.3959 18.4131 29.7638 17.7982 29.9546C17.1833 30.1455 16.5255 30.1508 15.9076 29.9699C15.2897 29.7889 14.7392 29.4298 14.3253 28.9377C13.9115 28.4455 13.6527 27.8423 13.5815 27.2039C13.5104 26.5655 13.63 25.9204 13.9254 25.3496C14.2208 24.7788 14.6788 24.3079 15.2418 23.996C15.8048 23.6841 16.4477 23.5452 17.0896 23.5967C17.5202 23.6334 17.9394 23.7546 18.323 23.9534C18.7065 24.1521 19.047 24.4244 19.3248 24.7547C19.6025 25.085 19.8122 25.4668 19.9417 25.8782C20.0711 26.2895 20.1179 26.7223 20.0793 27.1517V27.1517Z" stroke="#4E9A34" stroke-miterlimit="10"/>
<path d="M26.7379 19.3101C27.229 22.8059 26.9589 26.4717 24.2129 29.5167C22.2029 31.7444 18.2928 33.4885 14.1328 33.4885C15.6342 34.8007 17.518 35.5979 19.5074 35.7628C24.7052 36.1909 29.263 32.2821 29.6872 27.0321C29.8044 25.607 29.6003 24.1738 29.09 22.8377C28.5796 21.5015 27.776 20.2962 26.7379 19.3101Z" fill="#4E9A34"/>
<path opacity="0.31" d="M3.39746 46.7791H113.849L70.4883 105.436C69.4915 106.786 68.2702 107.956 66.8775 108.895C64.4487 110.536 61.5779 111.403 58.6444 111.382C55.7109 111.361 52.8529 110.453 50.4482 108.777L49.3536 108.021C48.1759 107.202 47.1415 106.195 46.2919 105.04L3.39746 46.7791Z" fill="#CADFA2"/>
<path opacity="0.31" d="M18.0378 66.6622L46.292 105.035C46.4334 105.227 46.5862 105.413 46.7377 105.591H70.3634C70.4038 105.539 70.4493 105.49 70.4897 105.436L99.1491 66.6622H18.0378Z" fill="#CADFA2"/>
<path d="M32.8005 86.6094L46.2919 105.035C47.1415 106.19 48.1759 107.197 49.3536 108.016L50.4482 108.772C52.853 110.448 55.7109 111.356 58.6444 111.377C61.5779 111.398 64.4487 110.531 66.8775 108.89C68.27 107.951 69.4912 106.781 70.4883 105.431L84.6476 86.4885L32.8005 86.6094Z" fill="#CADFA2"/>
<g opacity="0.56">
<path opacity="0.56" d="M71.2444 74.4736C71.2424 75.6826 70.7896 76.8477 69.9741 77.7421C69.1585 78.6365 68.0386 79.1964 66.8321 79.3128C65.6256 79.4291 64.4188 79.0936 63.4466 78.3716C62.4743 77.6496 61.8061 76.5926 61.572 75.4064C61.3378 74.2201 61.5544 72.9894 62.1797 71.9537C62.805 70.9179 63.7942 70.1512 64.9548 69.8027C66.1155 69.4541 67.3647 69.5487 68.4593 70.0681C69.5539 70.5874 70.4157 71.4943 70.877 72.6123C71.1206 73.2027 71.2455 73.8351 71.2444 74.4736ZM71.2444 74.4736C71.2493 73.2692 70.8049 72.106 69.9977 71.2103C69.1905 70.3145 68.0781 69.7503 66.877 69.6272C65.6758 69.5041 64.4716 69.8311 63.4987 70.5444C62.5258 71.2578 61.8536 72.3066 61.613 73.4868C61.3723 74.667 61.5803 75.8944 62.1966 76.9301C62.8128 77.9659 63.7933 78.736 64.9472 79.0907C66.1012 79.4454 67.3461 79.3594 68.44 78.8493C69.5339 78.3393 70.3985 77.4417 70.8657 76.331C71.1127 75.7426 71.2414 75.1115 71.2444 74.4736Z" fill="white"/>
<path opacity="0.56" d="M57.0726 94.5719C57.0707 95.3403 56.8016 96.0842 56.3113 96.6769C55.821 97.2696 55.1398 97.6743 54.3838 97.8222C53.6278 97.97 52.8439 97.8517 52.1655 97.4876C51.4871 97.1234 50.9564 96.5359 50.6637 95.8251C50.371 95.1143 50.3345 94.3243 50.5604 93.5897C50.7863 92.855 51.2606 92.2213 51.9026 91.7964C52.5445 91.3716 53.3142 91.1819 54.0806 91.2598C54.847 91.3376 55.5627 91.6781 56.1055 92.2233C56.4135 92.5323 56.6573 92.8987 56.8233 93.3017C56.9892 93.7046 57.0739 94.1363 57.0726 94.5719ZM57.0726 94.5719C57.0743 93.8076 56.8104 93.0663 56.3257 92.4743C55.841 91.8824 55.1655 91.4763 54.4143 91.3253C53.6632 91.1742 52.8827 91.2876 52.206 91.6461C51.5292 92.0046 50.998 92.586 50.7027 93.2913C50.4074 93.9966 50.3664 94.7821 50.5867 95.5142C50.8069 96.2463 51.2747 96.8795 51.9105 97.3062C52.5463 97.7328 53.3107 97.9264 54.0735 97.854C54.8364 97.7816 55.5504 97.4477 56.0942 96.9092C56.7178 96.2901 57.0697 95.4495 57.0726 94.5719Z" fill="white"/>
<path opacity="0.56" d="M54.1928 59.0119C54.1908 59.5755 53.9928 60.1209 53.6328 60.5552C53.2727 60.9895 52.7728 61.2859 52.2182 61.3937C51.6636 61.5015 51.0886 61.4141 50.5914 61.1465C50.0942 60.8788 49.7054 60.4474 49.4913 59.9258C49.2773 59.4043 49.2512 58.8248 49.4175 58.2862C49.5839 57.7476 49.9323 57.2832 50.4035 56.9722C50.8747 56.6611 51.4395 56.5227 52.0015 56.5805C52.5636 56.6383 53.0881 56.8888 53.4858 57.2892C53.9401 57.7479 54.1943 58.3671 54.1928 59.0119ZM54.1928 59.0119C54.1921 58.5336 54.0491 58.0663 53.7819 57.6692C53.5148 57.272 53.1355 56.9628 52.6921 56.7808C52.2487 56.5988 51.7611 56.5521 51.2911 56.6466C50.8211 56.7411 50.3897 56.9726 50.0517 57.3118C49.6129 57.7676 49.3708 58.3768 49.3773 59.0086C49.3838 59.6404 49.6383 60.2445 50.0863 60.6912C50.5344 61.1379 51.1401 61.3916 51.7736 61.3978C52.407 61.4041 53.0176 61.1623 53.4744 60.7245C53.9316 60.271 54.19 59.6551 54.1928 59.0119Z" fill="white"/>
<path opacity="0.56" d="M61.2805 50.8403C61.2805 51.1932 61.1411 51.5319 60.8925 51.7829C60.6439 52.034 60.3061 52.1772 59.9523 52.1815C59.7301 52.1842 59.5106 52.1319 59.3136 52.0293C59.1166 51.9267 58.9481 51.777 58.8233 51.5935C58.6985 51.4101 58.6212 51.1986 58.5984 50.9781C58.5756 50.7576 58.6079 50.5348 58.6926 50.3298C58.7772 50.1248 58.9114 49.944 59.0833 49.8034C59.2552 49.6628 59.4593 49.5669 59.6774 49.5243C59.8955 49.4817 60.1208 49.4936 60.3332 49.5591C60.5455 49.6246 60.7383 49.7416 60.8942 49.8996C61.1427 50.1499 61.2816 50.4881 61.2805 50.8403ZM61.2805 50.8403C61.2805 50.6671 61.2461 50.4955 61.1791 50.3356C61.1122 50.1757 61.0141 50.0307 60.8906 49.9089C60.7671 49.787 60.6205 49.6909 60.4595 49.626C60.2984 49.5611 60.126 49.5286 59.9523 49.5306C59.6058 49.535 59.275 49.6758 59.0319 49.9223C58.7903 50.1671 58.6549 50.4968 58.6549 50.8403C58.6549 51.1838 58.7903 51.5136 59.0319 51.7583C59.1528 51.8811 59.2967 51.9789 59.4554 52.0461C59.6142 52.1134 59.7847 52.1488 59.9571 52.1503C60.1296 52.1518 60.3007 52.1194 60.4606 52.055C60.6205 51.9905 60.7661 51.8953 60.8891 51.7747C61.1383 51.5271 61.279 51.1911 61.2805 50.8403Z" fill="white"/>
</g>
<path opacity="0.18" d="M84.6348 46.4114C79.4648 56.793 75.753 67.8635 70.8581 78.39C65.6338 89.6342 58.7113 100.589 48.5745 107.651L49.6653 108.407C52.0701 110.082 54.928 110.991 57.8615 111.012C60.795 111.033 63.6658 110.166 66.0946 108.525C67.4873 107.586 68.7086 106.417 69.7054 105.067L113.066 46.4089L84.6348 46.4114Z" fill="#D6ECED"/>
</g>
<defs>
<clipPath id="clip0">
<rect width="116" height="181" fill="white"/>
</clipPath>
</defs>
</svg>
