<svg width="124" height="187" viewBox="0 0 124 187" fill="none" xmlns="http://www.w3.org/2000/svg">
<path opacity="0.55" d="M65.1143 116.356C69.3584 115.611 73.1575 113.271 75.7343 109.815L123.614 45.6932C123.827 45.4074 123.957 45.0679 123.989 44.7126C124.02 44.3573 123.952 44.0002 123.793 43.6813C123.633 43.3624 123.388 43.0942 123.085 42.9067C122.781 42.7191 122.432 42.6197 122.076 42.6194H1.92191C1.56569 42.6196 1.21651 42.7188 0.913356 42.906C0.610203 43.0931 0.365008 43.361 0.205141 43.6795C0.0452738 43.9981 -0.0229729 44.3548 0.00802181 44.7099C0.0390165 45.065 0.168029 45.4045 0.380661 45.6905L47.5384 109.1C48.6526 110.594 50.005 111.894 51.5413 112.949L52.5441 113.639C54.409 114.918 56.5112 115.811 58.7266 116.264C59.3312 133.567 59.0532 155.391 58.8616 165.99C58.8339 167.478 58.4571 168.939 57.7615 170.254C57.066 171.57 56.0711 172.704 54.8573 173.564L37.1897 186.096C37.1042 186.157 37.0403 186.244 37.007 186.343C36.9738 186.443 36.9731 186.551 37.0049 186.651C37.0367 186.751 37.0995 186.838 37.1841 186.9C37.2688 186.962 37.3709 186.996 37.4758 186.996H85.6188C85.7231 186.996 85.8246 186.962 85.909 186.901C85.9933 186.84 86.0561 186.753 86.0884 186.654C86.1207 186.555 86.1209 186.448 86.0889 186.348C86.0569 186.249 85.9944 186.162 85.9103 186.1L68.9876 173.789C67.8144 172.938 66.8516 171.83 66.1731 170.548C65.4947 169.267 65.1186 167.847 65.0738 166.398C64.7661 156.179 64.291 134.622 65.1143 116.356Z" fill="white"/>
<path opacity="0.55" d="M65.1143 116.356C69.3584 115.611 73.1575 113.271 75.7343 109.815L123.614 45.6932C123.827 45.4074 123.957 45.0679 123.989 44.7126C124.02 44.3573 123.952 44.0002 123.793 43.6813C123.633 43.3624 123.388 43.0942 123.085 42.9067C122.781 42.7191 122.432 42.6197 122.076 42.6194H1.92191C1.56569 42.6196 1.21651 42.7188 0.913356 42.906C0.610203 43.0931 0.365008 43.361 0.205141 43.6795C0.0452738 43.9981 -0.0229729 44.3548 0.00802181 44.7099C0.0390165 45.065 0.168029 45.4045 0.380661 45.6905L47.5384 109.1C48.6526 110.594 50.005 111.894 51.5413 112.949L52.5441 113.639C54.409 114.918 56.5112 115.811 58.7266 116.264C59.3312 133.567 59.0532 155.391 58.8616 165.99C58.8339 167.478 58.4571 168.939 57.7615 170.254C57.066 171.57 56.0711 172.704 54.8573 173.564L37.1897 186.096C37.1042 186.157 37.0403 186.244 37.007 186.343C36.9738 186.443 36.9731 186.551 37.0049 186.651C37.0367 186.751 37.0995 186.838 37.1841 186.9C37.2688 186.962 37.3709 186.996 37.4758 186.996H85.6188C85.7231 186.996 85.8246 186.962 85.909 186.901C85.9933 186.84 86.0561 186.753 86.0884 186.654C86.1207 186.555 86.1209 186.448 86.0889 186.348C86.0569 186.249 85.9944 186.162 85.9103 186.1L68.9876 173.789C67.8144 172.938 66.8516 171.83 66.1731 170.548C65.4947 169.267 65.1186 167.847 65.0738 166.398C64.7661 156.179 64.291 134.622 65.1143 116.356Z" fill="#B5DEE0"/>
<path d="M122.075 42.6141H62.114V187H85.6187C85.723 187 85.8245 186.967 85.9089 186.905C85.9932 186.844 86.056 186.757 86.0883 186.658C86.1206 186.559 86.1208 186.452 86.0888 186.352C86.0568 186.253 85.9943 186.166 85.9102 186.105L68.9875 173.789C67.8143 172.938 66.8515 171.83 66.173 170.548C65.4946 169.267 65.1185 167.847 65.0737 166.398C64.7606 156.179 64.2855 134.622 65.1088 116.356C69.3529 115.611 73.152 113.271 75.7288 109.816L123.614 45.6932C123.829 45.4075 123.96 45.0674 123.992 44.7113C124.024 44.3551 123.957 43.997 123.797 43.6772C123.637 43.3573 123.392 43.0884 123.087 42.9006C122.783 42.7128 122.433 42.6136 122.075 42.6141Z" fill="#BAE0E1"/>
<path d="M2.96924 42.7221H121.038L74.687 105.42C73.6213 106.864 72.3163 108.114 70.8285 109.117C68.2297 110.871 65.1616 111.798 62.027 111.775C58.8925 111.752 55.8381 110.782 53.2648 108.99L52.0947 108.18C50.8362 107.305 49.7304 106.229 48.8219 104.994L2.96924 42.7221Z" fill="#C2E3E4"/>
<path opacity="0.31" d="M3.63184 43.057H121.7L75.3497 105.962C74.2841 107.411 72.9786 108.665 71.4898 109.672C68.8935 111.432 65.8247 112.362 62.6889 112.34C59.5531 112.317 56.498 111.343 53.9274 109.545L52.7573 108.735C51.4984 107.857 50.3927 106.777 49.4845 105.538L3.63184 43.057Z" fill="#E9455C"/>
<path opacity="0.31" d="M19.2817 64.3802L49.4845 105.533C49.6356 105.738 49.7989 105.938 49.9609 106.129H75.216C75.2591 106.073 75.3077 106.021 75.3509 105.963L105.987 64.3802H19.2817Z" fill="#E9455C"/>
<path d="M35.0627 85.7724L49.4846 105.533C50.3928 106.771 51.4985 107.851 52.7574 108.73L53.9275 109.54C56.4981 111.337 59.5532 112.311 62.6889 112.334C65.8247 112.357 68.8935 111.427 71.4898 109.667C72.9783 108.66 74.2838 107.405 75.3497 105.957L90.4855 85.6427L35.0627 85.7724Z" fill="#E9455C"/>
<g opacity="0.56">
<path opacity="0.56" d="M76.1578 72.7575C76.1557 74.0541 75.6717 75.3035 74.7999 76.2627C73.9281 77.222 72.7309 77.8224 71.4412 77.9472C70.1515 78.0719 68.8615 77.7122 67.8222 76.9378C66.7829 76.1635 66.0686 75.03 65.8183 73.7578C65.568 72.4857 65.7995 71.1658 66.4679 70.055C67.1363 68.9443 68.1937 68.122 69.4345 67.7482C70.6752 67.3745 72.0105 67.4759 73.1806 68.0329C74.3507 68.5898 75.272 69.5624 75.7651 70.7614C76.0255 71.3946 76.1589 72.0728 76.1578 72.7575ZM76.1578 72.7575C76.1631 71.4658 75.6881 70.2184 74.8252 69.2578C73.9623 68.2972 72.7732 67.692 71.4892 67.5601C70.2051 67.4281 68.918 67.7787 67.8779 68.5437C66.8379 69.3087 66.1194 70.4335 65.8621 71.6992C65.6049 72.965 65.8272 74.2812 66.486 75.392C67.1448 76.5027 68.1928 77.3286 69.4263 77.709C70.6599 78.0895 71.9907 77.9972 73.16 77.4502C74.3293 76.9032 75.2536 75.9405 75.7529 74.7495C76.0171 74.1184 76.1546 73.4416 76.1578 72.7575Z" fill="white"/>
<path opacity="0.56" d="M61.0087 94.3117C61.0065 95.1357 60.7189 95.9336 60.1948 96.5692C59.6707 97.2048 58.9425 97.6388 58.1344 97.7974C57.3263 97.9559 56.4882 97.8291 55.7631 97.4385C55.038 97.048 54.4706 96.4179 54.1577 95.6556C53.8449 94.8933 53.8058 94.0461 54.0473 93.2583C54.2888 92.4704 54.7958 91.7908 55.482 91.3352C56.1682 90.8795 56.991 90.6761 57.8103 90.7596C58.6296 90.8431 59.3945 91.2083 59.9749 91.793C60.304 92.1243 60.5647 92.5173 60.7421 92.9494C60.9195 93.3816 61.0101 93.8445 61.0087 94.3117ZM61.0087 94.3117C61.0105 93.492 60.7283 92.697 60.2102 92.0622C59.6921 91.4273 58.97 90.9918 58.167 90.8298C57.3641 90.6679 56.5298 90.7895 55.8064 91.1739C55.0829 91.5584 54.515 92.1819 54.1994 92.9383C53.8838 93.6946 53.8399 94.5371 54.0754 95.3222C54.3108 96.1073 54.8109 96.7865 55.4905 97.244C56.1702 97.7015 56.9873 97.9092 57.8027 97.8315C58.6182 97.7539 59.3815 97.3958 59.9627 96.8182C60.6293 96.1543 61.0055 95.2528 61.0087 94.3117Z" fill="white"/>
<path opacity="0.56" d="M57.9302 56.1759C57.928 56.7803 57.7165 57.3652 57.3316 57.831C56.9467 58.2968 56.4122 58.6146 55.8194 58.7302C55.2266 58.8458 54.612 58.7521 54.0805 58.465C53.5489 58.178 53.1333 57.7154 52.9045 57.156C52.6757 56.5967 52.6478 55.9752 52.8256 55.3976C53.0034 54.82 53.3759 54.322 53.8796 53.9884C54.3833 53.6548 54.987 53.5064 55.5878 53.5684C56.1886 53.6304 56.7494 53.899 57.1744 54.3284C57.6601 54.8203 57.9318 55.4844 57.9302 56.1759ZM57.9302 56.1759C57.9294 55.663 57.7766 55.1618 57.491 54.7359C57.2055 54.31 56.8 53.9784 56.326 53.7832C55.8521 53.5879 55.3309 53.5379 54.8284 53.6392C54.3259 53.7406 53.8649 53.9889 53.5035 54.3527C53.0345 54.8415 52.7757 55.4947 52.7826 56.1723C52.7895 56.8499 53.0617 57.4978 53.5406 57.9768C54.0195 58.4559 54.667 58.728 55.3441 58.7346C56.0213 58.7413 56.674 58.4821 57.1623 58.0126C57.651 57.5261 57.9272 56.8657 57.9302 56.1759Z" fill="white"/>
<path opacity="0.56" d="M65.5068 47.4124C65.5068 47.7909 65.3578 48.1541 65.092 48.4233C64.8262 48.6925 64.4651 48.8461 64.087 48.8507C63.8494 48.8536 63.6148 48.7976 63.4042 48.6875C63.1936 48.5775 63.0135 48.4169 62.8801 48.2202C62.7467 48.0235 62.6641 47.7967 62.6397 47.5602C62.6153 47.3237 62.6499 47.0848 62.7403 46.865C62.8308 46.6451 62.9743 46.4511 63.158 46.3004C63.3417 46.1496 63.5599 46.0468 63.7931 46.0011C64.0262 45.9554 64.2671 45.9682 64.4941 46.0385C64.7211 46.1087 64.9271 46.2342 65.0938 46.4036C65.3594 46.672 65.5079 47.0347 65.5068 47.4124ZM65.5068 47.4124C65.5068 47.2266 65.4699 47.0426 65.3984 46.8712C65.3268 46.6997 65.222 46.5441 65.0899 46.4135C64.9579 46.2829 64.8012 46.1797 64.6291 46.1101C64.4569 46.0405 64.2726 46.0058 64.087 46.0079C63.7165 46.0126 63.3629 46.1636 63.1031 46.4279C62.8448 46.6904 62.7 47.044 62.7 47.4124C62.7 47.7808 62.8448 48.1345 63.1031 48.397C63.2323 48.5286 63.3861 48.6335 63.5558 48.7056C63.7255 48.7777 63.9077 48.8157 64.0921 48.8173C64.2765 48.8189 64.4593 48.7842 64.6303 48.7151C64.8012 48.646 64.9569 48.5438 65.0884 48.4145C65.3547 48.1489 65.5051 47.7887 65.5068 47.4124Z" fill="white"/>
</g>
<path opacity="0.18" d="M90.4719 42.6627C84.9452 53.7963 80.9774 65.6686 75.745 76.9576C70.1604 89.0163 62.7605 100.764 51.9246 108.338L53.0906 109.148C55.6612 110.946 58.7163 111.92 61.8521 111.942C64.9878 111.965 68.0567 111.035 70.653 109.275C72.1418 108.269 73.4473 107.014 74.5128 105.567L120.864 42.66L90.4719 42.6627Z" fill="#D6ECED"/>
<path d="M15.2371 0C16.5718 3.99346 17.8823 7.99503 19.2049 11.9912L23.1336 23.9959L30.9262 48.0242L38.631 72.0809L42.4518 84.1207C43.7109 88.1371 44.9836 92.1508 46.2307 96.1727C44.8959 92.1792 43.5854 88.1776 42.2628 84.1815L38.3328 72.1768L30.5415 48.1485L22.8407 24.085L19.0173 12.052C17.7581 8.0342 16.4854 4.02182 15.2371 0Z" fill="#DEBEA6"/>
<path d="M19.4207 18.6317C21.3053 17.7656 23.4043 17.4782 25.4522 17.806C27.5001 18.1337 29.4048 19.0618 30.9255 20.4729C32.4463 21.884 33.5146 23.7146 33.9956 25.7334C34.4765 27.7521 34.3484 29.8682 33.6274 31.814C32.9064 33.7599 31.6249 35.4481 29.9451 36.6651C28.2652 37.8821 26.2624 38.5733 24.19 38.6512C22.1176 38.7291 20.0686 38.1902 18.3022 37.1028C16.5358 36.0154 15.1314 34.4281 14.2665 32.5419C13.1071 30.0133 12.9988 27.1274 13.9653 24.5189C14.9318 21.9103 16.8941 19.7927 19.4207 18.6317Z" fill="#ED6A72"/>
<g opacity="0.48">
<path opacity="0.48" d="M24.7597 27.8745C25.416 27.5735 26.1466 27.4735 26.8597 27.587C27.5727 27.7005 28.2362 28.0225 28.7668 28.5124C29.2974 29.0024 29.6713 29.6384 29.8416 30.3405C30.0118 31.0426 29.9707 31.7794 29.7235 32.4582C29.5627 32.9173 29.3121 33.3397 28.9863 33.7008C28.6605 34.0619 28.2662 34.3544 27.8262 34.5613C27.3862 34.7682 26.9095 34.8853 26.4237 34.9058C25.938 34.9263 25.4531 34.8498 24.9973 34.6807C24.5415 34.5116 24.1239 34.2534 23.7689 33.921C23.4139 33.5886 23.1286 33.1888 22.9297 32.745C22.7308 32.3011 22.6223 31.822 22.6105 31.3357C22.5986 30.8493 22.6837 30.3655 22.8608 29.9125C23.1992 29.0084 23.8821 28.2755 24.7597 27.8745ZM24.7597 27.8745C24.112 28.1716 23.5673 28.6547 23.1948 29.2625C22.8223 29.8702 22.6388 30.575 22.6678 31.2874C22.6967 31.9997 22.9367 32.6874 23.3573 33.2628C23.7779 33.8383 24.36 34.2756 25.0296 34.5191C25.6927 34.7598 26.4119 34.7999 27.0976 34.6343C27.7833 34.4687 28.4052 34.1048 28.8856 33.5879C29.366 33.0711 29.6837 32.4241 29.7991 31.7278C29.9145 31.0314 29.8225 30.3165 29.5346 29.6721C29.3407 29.2386 29.0629 28.8478 28.7172 28.5224C28.3714 28.1969 27.9647 27.9433 27.5204 27.7762C27.0762 27.609 26.6032 27.5317 26.1289 27.5485C25.6545 27.5654 25.1883 27.6762 24.757 27.8745H24.7597Z" fill="#D15054"/>
</g>
<path opacity="0.48" d="M13.6243 25.6489C16.7068 23.2895 20.3723 21.5771 24.7801 22.5981C28.0083 23.3463 31.798 26.1932 34.0667 30.2231C34.6131 27.5332 34.0833 24.7362 32.5913 22.433C31.0992 20.1297 28.7639 18.5039 26.087 17.905C23.4101 17.306 20.6052 17.7816 18.2749 19.2295C15.9446 20.6775 14.2748 22.9823 13.6243 25.6489Z" fill="#D15054"/>
<path d="M28.4185 45.9809C30.3031 45.1148 32.4021 44.8275 34.45 45.1552C36.4979 45.483 38.4026 46.4111 39.9233 47.8221C41.4441 49.2332 42.5125 51.0639 42.9934 53.0826C43.4743 55.1013 43.3462 57.2174 42.6252 59.1633C41.9042 61.1091 40.6227 62.7973 38.9429 64.0143C37.263 65.2313 35.2602 65.9225 33.1878 66.0004C31.1154 66.0784 29.0664 65.5395 27.3 64.4521C25.5336 63.3646 24.1292 61.7774 23.2643 59.8912C22.1049 57.3626 21.9966 54.4767 22.9631 51.8681C23.9296 49.2596 25.8919 47.1419 28.4185 45.9809Z" fill="#ED6A72"/>
<g opacity="0.48">
<path opacity="0.48" d="M33.7577 55.2224C34.4136 54.9214 35.1438 54.8211 35.8565 54.9341C36.5692 55.0472 37.2326 55.3685 37.7634 55.8578C38.2941 56.347 38.6685 56.9823 38.8394 57.6839C39.0104 58.3854 38.9703 59.1219 38.7242 59.8007C38.5634 60.2597 38.3128 60.6822 37.987 61.0433C37.6613 61.4043 37.2669 61.6969 36.8269 61.9038C36.3869 62.1107 35.9102 62.2278 35.4245 62.2483C34.9388 62.2688 34.4538 62.1923 33.998 62.0232C33.5422 61.8541 33.1246 61.5958 32.7696 61.2635C32.4146 60.9311 32.1293 60.5313 31.9305 60.0874C31.7316 59.6435 31.623 59.1645 31.6112 58.6781C31.5994 58.1918 31.6845 57.708 31.8615 57.2549C32.2005 56.3534 32.8822 55.6227 33.7577 55.2224ZM33.7577 55.2224C33.11 55.5195 32.5653 56.0026 32.1928 56.6103C31.8203 57.2181 31.6369 57.9229 31.6658 58.6353C31.6947 59.3476 31.9347 60.0353 32.3553 60.6107C32.7759 61.1862 33.358 61.6235 34.0276 61.867C34.9191 62.1914 35.9027 62.1498 36.7635 61.7511C37.6244 61.3524 38.2927 60.629 38.6225 59.7389C38.9522 58.8489 38.9167 57.8644 38.5236 57.0005C38.1305 56.1366 37.4118 55.4634 36.5244 55.1279C35.6259 54.7922 34.6312 54.8262 33.7577 55.2224Z" fill="#D15054"/>
</g>
<path opacity="0.48" d="M22.6221 52.9968C25.7046 50.6388 29.3701 48.925 33.7779 49.9473C37.0115 50.6901 40.8025 53.5424 43.0645 57.5777C43.6133 54.887 43.085 52.0882 41.5932 49.7832C40.1014 47.4782 37.7653 45.851 35.0871 45.2515C32.4089 44.6521 29.6026 45.1283 27.2716 46.5776C24.9407 48.027 23.2711 50.3339 22.6221 53.0022V52.9968Z" fill="#D15054"/>
</svg>
