<svg width="111" height="439" viewBox="0 0 111 439" fill="none" xmlns="http://www.w3.org/2000/svg">
<g clip-path="url(#clip0)">
<path d="M73.8001 26.55V38.0801H37.5601V26.6L73.8001 26.55Z" fill="#B3B2B2"/>
<path d="M111.37 199.24V426.79C111.373 430.056 110.079 433.189 107.772 435.501C105.466 437.813 102.336 439.115 99.0701 439.12H12.3701C10.7501 439.123 9.14562 438.806 7.64848 438.187C6.15135 437.568 4.79106 436.66 3.64558 435.514C2.50011 434.369 1.59199 433.009 0.973282 431.512C0.354574 430.014 0.0374508 428.41 0.0400849 426.79V199.24C0.0218581 181.297 5.44361 163.769 15.5901 148.97L21.4501 140.42L22.5301 138.77C23.0501 138.01 23.5301 137.25 24.0401 136.45C27.3295 131.226 29.9056 125.586 31.7001 119.68C32.1701 118.12 32.6001 116.56 32.9701 114.95C34.2051 109.764 34.8261 104.451 34.8201 99.12V35.12H76.6301V99.12C76.6208 104.451 77.2384 109.764 78.4701 114.95C78.8501 116.56 79.2801 118.12 79.7501 119.68C81.5264 125.584 84.1181 131.212 87.4501 136.4C87.896 137.216 88.3868 138.008 88.9201 138.77L90.0001 140.42L95.8601 148.97C105.992 163.774 111.4 181.301 111.37 199.24Z" fill="#EEEDED"/>
<path d="M24.84 143.71L19.43 151.63C9.81975 165.638 4.68689 182.232 4.71004 199.22V426.77C4.71004 428.788 5.5118 430.724 6.93895 432.151C8.3661 433.578 10.3017 434.38 12.32 434.38C26.72 426.83 41.18 423.32 55.68 423.46C70.17 423.32 84.63 426.83 99.04 434.38C101.057 434.377 102.99 433.574 104.415 432.148C105.84 430.721 106.64 428.787 106.64 426.77V199.22C106.661 182.234 101.532 165.641 91.93 151.63L86.51 143.71H24.84Z" fill="#DADADA"/>
<path d="M76.5901 30.4H34.7801C32.5102 20.3836 32.5102 9.98631 34.7801 -0.0300293H76.5901C78.8101 9.99183 78.8101 20.3781 76.5901 30.4Z" fill="#DADADA"/>
<path d="M73.8001 30.4V35.1H76.5901V76.21H34.7801V35.1H37.5601V30.4H34.7801C32.5102 20.3836 32.5102 9.98631 34.7801 -0.0300293H76.5901C78.8101 9.99183 78.8101 20.3781 76.5901 30.4H73.8001Z" fill="#E30613"/>
<path d="M73.8001 30.4301H37.5601V35.1101H73.8001V30.4301Z" fill="#E30613"/>
<path opacity="0.4" d="M48.9499 78.55C49.7199 78.55 50.4499 83.3901 51.1099 92.1501C51.8299 100.58 52.7799 114.53 47.1099 129.91C46.4399 131.85 45.7599 133.84 45.0499 135.91L42.0699 141.74C40.0208 145.851 37.6816 149.811 35.0699 153.59L31.1999 159.49L27.8999 165.43L26.2099 168.43C25.6699 169.43 25.3599 170.6 24.9199 171.69L22.4599 178.4C19.9599 187.91 19.2299 197.4 19.6099 209.03C19.6099 220.3 19.6799 231.96 19.7199 243.91C19.7199 291.7 19.0999 334.97 18.0999 366.28C17.0999 397.59 15.7099 416.97 14.1799 416.97C12.6499 416.97 11.2599 397.6 10.2499 366.28C9.23988 334.96 8.62988 291.7 8.62988 243.91C8.62988 231.96 8.70988 220.3 8.73988 209.03C8.73988 206.22 8.78989 203.43 8.80989 200.66C8.82989 197.89 9.20988 194.84 9.40988 191.99L9.77989 187.69C9.96989 186.27 10.3999 184.89 10.6999 183.51C11.3699 180.75 11.9799 178.01 12.6999 175.35C13.6999 172.79 14.7799 170.26 15.7899 167.77C16.3399 166.54 16.7899 165.26 17.3999 164.1L19.3999 160.71L23.3999 154.14L27.4799 148.45C30.0677 145.021 32.423 141.423 34.5299 137.68L37.5299 132.49C38.2699 130.677 38.9966 128.913 39.7099 127.2C40.3999 125.46 41.1999 123.81 41.7699 122.12C42.3399 120.43 42.7699 118.74 43.3099 117.12C43.9799 113.82 44.7999 110.72 45.3099 107.77C45.6499 104.77 45.9599 102 46.2499 99.44C46.5399 96.88 46.5999 94.36 46.7499 92.16C47.4599 83.4 48.1899 78.55 48.9499 78.55Z" fill="white"/>
<path d="M106.65 249.8H4.70996V351.11H106.65V249.8Z" fill="#F6F6F6"/>
<path d="M111.35 232.98H0V249.8H111.35V232.98Z" fill="#E30613"/>
<path d="M111.35 349.92H0V366.74H111.35V349.92Z" fill="#E30613"/>
<path d="M96.8198 258.09H14.5298V261.63H96.8198V258.09Z" fill="#B3B2B2"/>
<path d="M96.8198 253.37H14.5298V254.85H96.8198V253.37Z" fill="#B3B2B2"/>
<path d="M96.8198 339.89H14.5298V341.37H96.8198V339.89Z" fill="#B3B2B2"/>
<path d="M96.8198 344.62H14.5298V346.1H96.8198V344.62Z" fill="#B3B2B2"/>
<path d="M34.89 337.2C38.1209 337.2 40.74 334.581 40.74 331.35C40.74 328.119 38.1209 325.5 34.89 325.5C31.6592 325.5 29.04 328.119 29.04 331.35C29.04 334.581 31.6592 337.2 34.89 337.2Z" fill="#E30613"/>
<path d="M76.4501 337.2C79.681 337.2 82.3001 334.581 82.3001 331.35C82.3001 328.119 79.681 325.5 76.4501 325.5C73.2192 325.5 70.6001 328.119 70.6001 331.35C70.6001 334.581 73.2192 337.2 76.4501 337.2Z" fill="#E30613"/>
<path d="M54.51 331.4C54.51 332.559 54.1664 333.692 53.5225 334.656C52.8785 335.619 51.9633 336.37 50.8926 336.814C49.8218 337.258 48.6435 337.374 47.5068 337.147C46.3701 336.921 45.3259 336.363 44.5064 335.544C43.6869 334.724 43.1287 333.68 42.9026 332.543C42.6765 331.407 42.7926 330.228 43.2361 329.158C43.6796 328.087 44.4307 327.172 45.3944 326.528C46.3581 325.884 47.491 325.54 48.65 325.54C49.42 325.539 50.1826 325.689 50.8941 325.983C51.6057 326.277 52.2522 326.709 52.7966 327.253C53.341 327.798 53.7726 328.444 54.0667 329.156C54.3607 329.868 54.5114 330.63 54.51 331.4Z" fill="#E30613"/>
<path d="M62.7001 337.2C65.931 337.2 68.5501 334.581 68.5501 331.35C68.5501 328.119 65.931 325.5 62.7001 325.5C59.4692 325.5 56.8501 328.119 56.8501 331.35C56.8501 334.581 59.4692 337.2 62.7001 337.2Z" fill="#E30613"/>
<path d="M31.08 296.69H4.70996L11.97 287.61L4.70996 278.52H31.08V296.69Z" fill="#E30613"/>
<path d="M80.27 296.69H106.64L99.38 287.61L106.64 278.52H80.27V296.69Z" fill="#E30613"/>
<path d="M92.8802 286.75H18.4702V304.33H92.8802V286.75Z" fill="#E30613"/>
<path opacity="0.03" d="M95.8202 148.97L89.9602 140.4L88.8802 138.75C88.3469 137.988 87.8561 137.196 87.4102 136.38C84.0782 131.192 81.4865 125.564 79.7102 119.66C79.2402 118.1 78.8102 116.54 78.4302 114.93C77.1985 109.744 76.5809 104.431 76.5902 99.1V35.1H73.8002V30.4H76.5902C78.8102 20.3781 78.8102 9.99183 76.5902 -0.0300293H55.6802V439.12H99.0702C100.691 439.123 102.296 438.806 103.793 438.187C105.291 437.568 106.652 436.66 107.798 435.515C108.944 434.37 109.854 433.01 110.473 431.512C111.093 430.015 111.411 428.41 111.41 426.79V199.24C111.417 181.292 105.981 163.765 95.8202 148.97Z" fill="#1E1E1C"/>
</g>
<defs>
<clipPath id="clip0">
<rect width="111" height="439" fill="white"/>
</clipPath>
</defs>
</svg>
