<svg width="104" height="294" viewBox="0 0 104 294" fill="none" xmlns="http://www.w3.org/2000/svg">
<path d="M6.63433 293.227C4.87019 293.221 3.18083 292.51 1.93702 291.252C0.693215 289.993 -0.00341951 288.29 1.2622e-05 286.515V259.382C1.1905e-05 257.893 0.492934 256.447 1.40097 255.271C2.309 254.096 3.58041 253.258 5.01446 252.89L9.14478 127.984C7.88662 127.407 6.83789 126.452 6.14405 125.249C5.45022 124.046 5.14566 122.656 5.27261 121.271L7.80888 94.1376C7.96922 92.4778 8.73808 90.9375 9.9657 89.8167C11.1933 88.6959 12.7918 88.0749 14.4497 88.0747H18.8252C22.2192 88.0748 25.5268 86.9984 28.2775 84.9985C31.0281 82.9986 33.0817 80.1771 34.1461 76.9355C34.6709 75.4216 34.9498 73.8325 34.9721 72.2293L36.1983 24.9982L36.4694 15.0339H67.5435L67.7888 25.0306L69.015 72.2617C69.0373 73.8649 69.3162 75.454 69.841 76.968C70.9057 80.2107 72.9603 83.0329 75.7122 85.0329C78.4642 87.0328 81.7732 88.1087 85.1684 88.1071H89.5375C91.1954 88.1074 92.7938 88.7284 94.0214 89.8492C95.249 90.97 96.0179 92.5103 96.1782 94.1701L98.7145 121.304C98.8415 122.689 98.5369 124.079 97.843 125.281C97.1492 126.484 96.1005 127.44 94.8423 128.016L98.9726 252.929C100.407 253.296 101.679 254.133 102.588 255.309C103.496 256.485 103.988 257.932 103.987 259.421V286.554C103.991 288.329 103.294 290.032 102.05 291.291C100.806 292.549 99.1169 293.26 97.3528 293.266L6.63433 293.227Z" fill="#F9B333"/>
<path d="M10.8551 94.631L8.33817 121.583C8.26825 122.328 8.43078 123.077 8.80318 123.725C9.17559 124.373 9.73938 124.888 10.4162 125.199L12.2684 126.036L7.99613 255.312L5.77608 255.876C5.0025 256.071 4.31545 256.519 3.82344 257.151C3.33143 257.782 3.06249 258.56 3.05911 259.362V286.496C3.05567 287.454 3.43001 288.375 4.10015 289.057C4.77028 289.738 5.68158 290.124 6.63441 290.131C21.9747 283.056 37.089 279.622 52.0033 279.602C66.9176 279.583 82.0255 283.056 97.3658 290.131C97.8378 290.129 98.3048 290.033 98.7399 289.849C99.1751 289.664 99.5699 289.396 99.9019 289.058C100.234 288.721 100.497 288.321 100.675 287.881C100.853 287.442 100.944 286.971 100.941 286.496V259.362C100.938 258.561 100.67 257.783 100.179 257.152C99.6885 256.521 99.003 256.072 98.2306 255.876L96.0041 255.312L91.7318 126.036L93.584 125.179C94.2614 124.869 94.8258 124.354 95.1983 123.706C95.5708 123.058 95.7329 122.309 95.662 121.564L93.1451 94.6116L10.8551 94.631Z" fill="#CA6515"/>
<path d="M36.1918 25.6408C35.4815 25.6408 34.8003 25.357 34.298 24.8518C33.7957 24.3466 33.5136 23.6614 33.5136 22.9469C33.5101 22.591 33.5769 22.2379 33.71 21.908C33.843 21.5782 34.0398 21.2781 34.2888 21.0252C34.5379 20.7723 34.8342 20.5716 35.1609 20.4346C35.4875 20.2976 35.8379 20.227 36.1918 20.2271H68.092C68.4434 20.227 68.7914 20.2968 69.116 20.4322C69.4405 20.5677 69.7354 20.7662 69.9836 21.0165C70.2317 21.2667 70.4284 21.5637 70.5623 21.8905C70.6962 22.2173 70.7647 22.5675 70.7638 22.921C70.7681 23.2766 70.7021 23.6296 70.5698 23.9594C70.4374 24.2892 70.2413 24.5893 69.9928 24.8423C69.7442 25.0953 69.4483 25.2961 69.122 25.4332C68.7957 25.5703 68.4456 25.6409 68.092 25.6408H36.1918Z" fill="#B3B2B2"/>
<path d="M38.9991 0C36.5338 0 34.5332 2.33689 34.5332 5.19308V18.1758H69.7119V5.19308C69.7119 2.30443 67.7177 0 65.2524 0H38.9991Z" fill="#3D3D3B"/>
<path d="M34.2944 77.5781C34.717 76.3682 34.9733 75.1059 35.056 73.8261C35.0882 73.4821 35.1205 73.177 35.1205 72.8719L35.2108 69.7626L35.669 51.5868L36.1853 31.6843L36.2821 27.6531L36.3402 25.6213H67.9113L67.9694 27.6531L68.0598 31.6843L68.5825 51.5868L69.0407 69.7626L69.131 72.8719C69.131 73.177 69.1633 73.4821 69.1956 73.8261C69.2783 75.1059 69.5345 76.3682 69.9571 77.5781H34.2944Z" fill="#1D1D1B"/>
<path d="M36.1919 31.7037L36.2822 27.6726H67.9695L68.0663 31.7037H36.1919Z" fill="#F6F6F6"/>
<path d="M35.0562 73.8262C35.0884 73.4821 35.1207 73.177 35.1207 72.8719L35.211 69.7626H69.0409L69.1312 72.8719C69.1312 73.177 69.1635 73.4821 69.1958 73.8262H35.0562Z" fill="#F6F6F6"/>
<path d="M35.6692 51.6062L36.1919 31.7037H68.0663L68.5826 51.6062H35.6692Z" fill="#3D3D3B"/>
<path d="M22.3295 252.799C21.3819 252.8 20.4438 252.609 19.5705 252.239C18.6972 251.869 17.9065 251.327 17.2448 250.644C16.5832 249.962 16.0641 249.153 15.7182 248.266C15.3722 247.378 15.2064 246.43 15.2306 245.477L16.6375 179.48L17.0957 158.188L17.5603 135.773C17.6041 133.892 18.3768 132.102 19.7137 130.785C21.0507 129.468 22.8461 128.728 24.7174 128.724H79.5344C81.4056 128.728 83.2011 129.468 84.538 130.785C85.875 132.102 86.6477 133.892 86.6915 135.773L87.1819 158.201L87.6401 179.493L89.047 245.477C89.0712 246.433 88.9044 247.384 88.5565 248.273C88.2085 249.163 87.6866 249.973 87.0215 250.656C86.3565 251.339 85.5618 251.88 84.6848 252.249C83.8078 252.617 82.8661 252.804 81.9158 252.799H22.3295Z" fill="#3D3D3B"/>
<path opacity="0.5" d="M22.3425 248.197C22.0002 248.197 21.6613 248.129 21.3456 247.996C21.0298 247.863 20.7435 247.668 20.5033 247.423C20.2631 247.177 20.0737 246.887 19.9463 246.567C19.8189 246.248 19.7559 245.906 19.761 245.561L22.1295 135.858C22.1497 135.182 22.4305 134.542 22.9124 134.072C23.3944 133.601 24.0395 133.339 24.711 133.339H79.5667C80.2381 133.339 80.8832 133.601 81.3652 134.072C81.8471 134.542 82.128 135.182 82.1481 135.858L84.5166 245.561C84.5217 245.906 84.4587 246.248 84.3313 246.567C84.2039 246.887 84.0146 247.177 83.7744 247.423C83.5341 247.668 83.2478 247.863 82.9321 247.996C82.6163 248.129 82.2775 248.197 81.9352 248.197H22.3425Z" fill="#F6F6F6"/>
<path d="M22.8523 245.12L25.195 136.403H79.0568L81.3995 245.12H22.8523Z" fill="#3D3D3B"/>
<path d="M27.2148 140.914L27.2407 139.623H77.0109L77.0303 140.914H27.2148Z" fill="#F6F6F6"/>
<path d="M31.5129 237.954L31.5258 236.662H72.7257L72.7451 237.954H31.5129Z" fill="#F6F6F6"/>
<path d="M31.5129 232.358L31.5258 231.06H72.7257L72.7451 232.358H31.5129Z" fill="#F6F6F6"/>
<path d="M31.5129 213.572L31.5258 212.28H72.7257L72.7451 213.572H31.5129Z" fill="#F6F6F6"/>
<path d="M34.8752 224.426L34.8882 220.44H69.3634L69.3763 224.426H34.8752Z" fill="#F6F6F6"/>
<path d="M32.9585 218.999L32.9779 215.013H71.2736L71.293 218.999H32.9585Z" fill="#F6F6F6"/>
<path d="M33.0037 210.846L33.023 206.854H71.3188L71.3317 210.846H33.0037Z" fill="#F6F6F6"/>
<path d="M32.8555 164.718L32.8684 160.726H71.1641L71.1835 164.718H32.8555Z" fill="#F6F6F6"/>
<path d="M32.8555 164.069L32.8684 160.077H71.1641L71.1835 164.069H32.8555Z" fill="#F6F6F6"/>
<path d="M32.8555 165.64L32.8684 159.428H71.1641L71.1835 165.64H32.8555Z" fill="#F6F6F6"/>
<path d="M29.6543 235.156L29.6737 233.864H74.5779L74.5973 235.156H29.6543Z" fill="#F6F6F6"/>
<path d="M24.782 242.511L24.8078 241.219H79.4441L79.4699 242.511H24.782Z" fill="#F6F6F6"/>
<path d="M27.5311 142.699L28.8154 142.764L27.0858 239.356L25.8015 239.375L27.5311 142.699Z" fill="#F6F6F6"/>
<path d="M76.8109 142.699L75.5266 142.764L77.2562 239.356L78.5405 239.375L76.8109 142.699Z" fill="#F6F6F6"/>
<path opacity="0.4" d="M45.1882 38.3315C45.6851 38.3315 46.0659 41.9342 46.3241 48.406C46.4596 51.6517 46.5628 55.605 46.6338 60.2008C46.6338 62.4988 46.6855 64.959 46.7177 67.562C46.8132 70.4022 46.7507 73.2455 46.5306 76.0787C46.234 79.4554 45.2661 82.7379 43.6845 85.7313C41.8357 88.9404 39.3248 91.7139 36.321 93.865C33.2206 96.0683 29.8184 97.8067 26.221 99.0256C25.3111 99.3437 24.3882 99.6748 23.4524 99.902L22.0327 100.278L21.3357 100.46C21.2605 100.515 21.1806 100.563 21.0969 100.603C20.7545 100.717 20.4532 100.93 20.2305 101.215C20.0078 101.5 19.8736 101.845 19.8449 102.206C19.7801 102.365 19.7514 102.535 19.761 102.706L19.7029 103.427L19.5803 104.868C19.5028 105.829 19.4254 106.815 19.3415 107.776C19.1823 109.728 19.0167 111.701 18.8446 113.696C18.7026 115.427 18.5563 117.158 18.4057 118.889C18.4073 118.905 18.4148 118.92 18.4268 118.931C18.4387 118.942 18.4542 118.948 18.4703 118.948L18.2508 118.779C18.2121 118.779 18.4251 118.883 18.5025 118.922L19.1479 119.337C19.57 119.609 19.9432 119.952 20.2514 120.35C20.9312 121.097 21.444 121.983 21.7551 122.946C21.907 123.431 22.0001 123.932 22.0327 124.439C22.0881 124.846 22.1097 125.256 22.0972 125.666L22.052 127.237L21.9617 130.392C21.8971 132.508 21.839 134.637 21.7745 136.786C21.6411 141.083 21.5034 145.437 21.3615 149.846C20.1934 185.12 18.7349 217.045 17.3215 240.135C16.9343 245.899 16.5858 251.118 16.276 255.714C16.2309 256.292 16.1921 256.85 16.1469 257.408C16.1207 258.065 16.0299 258.717 15.8759 259.356C15.6775 260.172 15.2704 260.921 14.6949 261.53C14.3549 261.852 13.9878 262.143 13.5978 262.4C13.3587 262.537 13.1055 262.648 12.8427 262.731L12.0683 263.03C11.9576 263.071 11.843 263.102 11.7262 263.121C11.5842 263.27 11.2745 263.419 11.2228 263.53C11.1712 263.64 10.9389 263.601 10.8808 264.179L10.8034 264.49V264.64V264.718V264.776C10.8421 264.302 10.8034 264.653 10.8034 264.555L10.7646 265.172C10.3322 271.663 9.86113 275.214 9.3642 275.214C8.86727 275.214 8.39616 271.637 7.97022 265.172L7.92505 264.555L8.00894 263.685C8.07667 263.057 8.28163 262.452 8.60913 261.913C8.9593 261.333 9.41206 260.823 9.94502 260.407L11.4487 259.635C11.6294 259.524 11.9844 259.401 12.0166 259.304C12.0489 259.206 12.0166 259.174 12.0166 259.154C12.0166 259.005 12.2683 258.791 12.2038 258.564C12.2528 258.146 12.2636 257.724 12.2361 257.304C12.2361 256.746 12.2361 256.181 12.2361 255.61C12.2361 251.001 12.2361 245.769 12.2361 239.992C12.3522 216.857 13.004 184.906 14.1721 149.632C14.469 141.226 14.753 133.014 15.0305 125.088C14.9853 125.088 15.0305 125.03 14.9918 125.037C14.953 125.043 14.9918 124.985 14.9918 125.037C14.953 125.037 15.0756 125.069 14.9079 124.978L14.3206 124.673C13.8983 124.429 13.508 124.132 13.1589 123.79C12.7855 123.486 12.4668 123.119 12.2167 122.706C11.7156 121.878 11.4458 120.93 11.4358 119.96C11.4169 119.463 11.4428 118.966 11.5133 118.474L11.5972 117.61L11.752 116.098C11.8553 115.092 11.9586 114.092 12.0554 113.092C12.2619 111.106 12.4684 109.133 12.6684 107.185C12.7717 106.212 12.8685 105.238 12.9718 104.284L13.1202 102.843L13.1977 102.129C13.2196 101.822 13.2693 101.517 13.3461 101.22C13.5803 99.7041 14.2209 98.2814 15.1987 97.1045C16.1766 95.9276 17.4549 95.041 18.8962 94.5401L19.9481 94.1766L20.5935 94.0273L21.839 93.7287C22.6651 93.5275 23.4783 93.2938 24.2785 93.0406C27.3449 92.1138 30.2652 90.7544 32.9522 89.003C35.3036 87.5302 37.2939 85.5422 38.7746 83.1874C40.2553 80.8326 41.188 78.1718 41.5032 75.4036C41.9356 72.9693 41.9679 70.0093 42.1486 67.4582C42.3293 64.9071 42.4648 62.4014 42.6132 60.1035C42.923 55.5141 43.2263 51.5673 43.5296 48.3411C44.1298 41.8822 44.6977 38.3185 45.1882 38.3315Z" fill="white"/>
<path opacity="0.1" d="M98.9855 253.695L94.8552 128.775C96.1134 128.201 97.1625 127.247 97.8564 126.045C98.5504 124.843 98.8548 123.454 98.7273 122.07L96.1911 94.9295C96.0306 93.2704 95.2615 91.7308 94.0338 90.6111C92.806 89.4913 91.2076 88.8717 89.5503 88.8731H85.1812C81.7861 88.8746 78.477 87.7988 75.7251 85.7988C72.9731 83.7988 70.9186 80.9766 69.8539 77.7339C69.6196 77.0546 69.4384 76.3579 69.3118 75.6502C69.2601 75.3516 69.2279 75.0465 69.1892 74.7349C69.1057 74.1669 69.0519 73.5949 69.0278 73.0212L68.4857 52.171V51.762L68.4534 50.5611L67.9113 30.6132L67.8468 27.8479L67.7822 25.8161H67.9307C68.641 25.8161 69.3222 25.5322 69.8245 25.027C70.3268 24.5218 70.6089 23.8366 70.6089 23.1221C70.6089 22.4077 70.3268 21.7225 69.8245 21.2173C69.3222 20.7121 68.641 20.4282 67.9307 20.4282H67.6532L67.6015 18.377H69.5893V5.39426C69.5893 2.51209 67.5951 0.201172 65.1298 0.201172H52.0032V294H97.3656C99.1292 293.995 100.819 293.286 102.063 292.028C103.307 290.771 104.003 289.068 104 287.294V260.154C103.995 258.67 103.5 257.231 102.592 256.061C101.684 254.892 100.415 254.06 98.9855 253.695Z" fill="#1E1E1C"/>
<path d="M54.5783 187.912L53.0488 186.795C52.9434 186.725 52.82 186.688 52.6938 186.688C52.5676 186.688 52.4442 186.725 52.3389 186.795L50.8158 187.912C50.7151 187.985 50.5944 188.024 50.4704 188.025C50.3463 188.026 50.225 187.989 50.1232 187.917C50.0213 187.846 49.9438 187.745 49.9014 187.628C49.8591 187.51 49.8538 187.383 49.8865 187.263L50.4673 185.458C50.5079 185.336 50.5085 185.204 50.469 185.081C50.4295 184.958 50.352 184.852 50.2479 184.776L48.7313 183.634C48.6306 183.557 48.5561 183.451 48.5182 183.33C48.4803 183.209 48.4809 183.079 48.52 182.958C48.5591 182.837 48.6346 182.732 48.7361 182.656C48.8376 182.581 48.96 182.539 49.0862 182.537H50.9772C51.1049 182.536 51.2291 182.495 51.3323 182.419C51.4354 182.344 51.5121 182.237 51.5515 182.115L52.1324 180.31C52.1731 180.19 52.2504 180.085 52.3535 180.011C52.4565 179.936 52.58 179.896 52.7067 179.896C52.8334 179.896 52.957 179.936 53.06 180.011C53.163 180.085 53.2403 180.19 53.2811 180.31L53.8684 182.115C53.9057 182.237 53.981 182.344 54.0832 182.42C54.1854 182.496 54.3092 182.537 54.4363 182.537H56.3272C56.4554 182.535 56.5809 182.574 56.6853 182.649C56.7896 182.724 56.8674 182.831 56.9071 182.954C56.9467 183.076 56.9463 183.209 56.9059 183.331C56.8654 183.453 56.787 183.56 56.6822 183.634L55.1527 184.75C55.0536 184.83 54.98 184.937 54.941 185.058C54.902 185.179 54.8993 185.309 54.9332 185.432L55.5205 187.237C55.5654 187.361 55.5686 187.496 55.5296 187.622C55.4906 187.748 55.4116 187.858 55.3047 187.935C55.1978 188.011 55.0688 188.05 54.9376 188.046C54.8064 188.042 54.6802 187.995 54.5783 187.912Z" fill="#3C3C3B" stroke="white" stroke-width="2" stroke-miterlimit="10"/>
<path d="M48.2215 187.321L47.0986 185.796C47.0189 185.697 46.9122 185.624 46.7917 185.586C46.6713 185.548 46.5424 185.547 46.421 185.581L44.6269 186.185C44.5082 186.216 44.3828 186.21 44.2676 186.168C44.1524 186.125 44.0529 186.048 43.9826 185.947C43.9123 185.846 43.8745 185.726 43.8743 185.602C43.8741 185.479 43.9115 185.358 43.9815 185.257L45.0722 183.712C45.1477 183.608 45.1884 183.483 45.1884 183.355C45.1884 183.226 45.1477 183.101 45.0722 182.998L43.9492 181.472C43.8784 181.37 43.8402 181.249 43.8398 181.125C43.8395 181 43.8769 180.879 43.9471 180.776C44.0173 180.674 44.1169 180.596 44.2327 180.552C44.3484 180.508 44.4747 180.501 44.5946 180.531L46.3952 181.102C46.513 181.134 46.6376 181.129 46.7527 181.089C46.8678 181.048 46.9681 180.974 47.0405 180.875L48.1376 179.33C48.2109 179.226 48.3153 179.147 48.4357 179.106C48.5561 179.065 48.6864 179.064 48.8077 179.102C48.929 179.14 49.0351 179.216 49.1107 179.319C49.1863 179.422 49.2275 179.546 49.2283 179.674V181.576C49.2292 181.704 49.2703 181.828 49.3457 181.93C49.4211 182.033 49.5268 182.109 49.6478 182.147L51.4483 182.719C51.5716 182.756 51.6795 182.833 51.7562 182.937C51.833 183.041 51.8744 183.167 51.8744 183.296C51.8744 183.426 51.833 183.552 51.7562 183.656C51.6795 183.76 51.5716 183.837 51.4483 183.874L49.6542 184.478C49.5341 184.518 49.4298 184.596 49.3567 184.7C49.2835 184.804 49.2453 184.928 49.2477 185.056V186.958C49.2365 187.072 49.1931 187.181 49.1226 187.271C49.0522 187.362 48.9575 187.43 48.8497 187.468C48.7419 187.506 48.6256 187.513 48.5143 187.487C48.403 187.461 48.3015 187.403 48.2215 187.321Z" fill="white" stroke="white" stroke-width="2" stroke-miterlimit="10"/>
<path d="M43.1231 185.698L42.2776 183.991C42.2206 183.873 42.1267 183.776 42.0102 183.716C41.8937 183.657 41.761 183.637 41.6323 183.66L39.7607 183.92C39.635 183.936 39.5075 183.912 39.396 183.851C39.2846 183.79 39.1948 183.696 39.1392 183.582C39.0837 183.467 39.0652 183.338 39.0864 183.212C39.1076 183.087 39.1674 182.971 39.2574 182.881L40.6191 181.583C40.7107 181.494 40.772 181.378 40.794 181.252C40.8161 181.126 40.7977 180.996 40.7417 180.882L39.9156 179.174C39.8609 179.059 39.8435 178.929 39.866 178.803C39.8885 178.678 39.9497 178.562 40.041 178.473C40.1322 178.384 40.249 178.326 40.3747 178.308C40.5004 178.289 40.6288 178.311 40.7417 178.369L42.4067 179.265C42.5193 179.325 42.6478 179.348 42.7741 179.331C42.9004 179.313 43.0179 179.256 43.1102 179.168L44.4719 177.87C44.5644 177.782 44.6818 177.727 44.8075 177.71C44.9333 177.693 45.061 177.717 45.1728 177.777C45.2847 177.837 45.3749 177.931 45.4309 178.045C45.4869 178.16 45.5059 178.289 45.4851 178.415L45.156 180.284C45.1314 180.412 45.1483 180.544 45.2041 180.661C45.2599 180.777 45.3516 180.873 45.4657 180.934L47.1308 181.829C47.2448 181.888 47.3371 181.982 47.3941 182.098C47.4511 182.214 47.4698 182.345 47.4474 182.472C47.425 182.599 47.3628 182.715 47.2698 182.804C47.1768 182.893 47.058 182.949 46.9307 182.965L45.0592 183.231C44.9328 183.248 44.815 183.305 44.7232 183.393C44.6314 183.482 44.5704 183.598 44.5493 183.725L44.2202 185.594C44.184 185.706 44.116 185.805 44.0246 185.879C43.9331 185.953 43.8222 185.998 43.7056 186.009C43.5889 186.02 43.4716 185.996 43.3681 185.941C43.2646 185.886 43.1794 185.802 43.1231 185.698Z" fill="white" stroke="white" stroke-width="2" stroke-miterlimit="10"/>
<path d="M38.7023 182.855L39.0637 180.986C39.0894 180.86 39.0744 180.729 39.021 180.612C38.9676 180.495 38.8786 180.399 38.7669 180.336L37.1147 179.421C37.004 179.358 36.9158 179.262 36.8626 179.146C36.8094 179.029 36.7938 178.899 36.818 178.774C36.8423 178.648 36.9052 178.533 36.9978 178.446C37.0904 178.358 37.2081 178.302 37.3342 178.285L39.2057 178.058C39.3323 178.043 39.4509 177.988 39.5438 177.9C39.6368 177.813 39.6993 177.697 39.722 177.571L40.0834 175.708C40.1084 175.582 40.1721 175.468 40.2655 175.381C40.3588 175.294 40.477 175.238 40.6034 175.223C40.7297 175.207 40.8578 175.231 40.9695 175.293C41.0812 175.354 41.1708 175.45 41.2257 175.565L42.0195 177.318C42.0744 177.439 42.1675 177.538 42.2841 177.6C42.4008 177.662 42.5346 177.684 42.6648 177.662L44.5428 177.435C44.6697 177.418 44.7988 177.442 44.9112 177.503C45.0235 177.565 45.1133 177.661 45.1674 177.778C45.2214 177.895 45.237 178.026 45.2117 178.152C45.1864 178.278 45.1216 178.393 45.0269 178.48L43.6458 179.778C43.5528 179.866 43.4897 179.981 43.4654 180.107C43.4411 180.233 43.4568 180.363 43.5103 180.479L44.3105 182.199C44.3636 182.316 44.3791 182.446 44.3546 182.571C44.3302 182.697 44.2672 182.812 44.1744 182.899C44.0817 182.987 43.9639 183.043 43.8378 183.059C43.7116 183.076 43.5835 183.052 43.4716 182.991L41.8194 182.07C41.7084 182.007 41.5805 181.981 41.454 181.996C41.3275 182.011 41.2092 182.067 41.116 182.154L39.7349 183.452C39.6427 183.559 39.5164 183.631 39.3775 183.655C39.2386 183.678 39.0959 183.653 38.9738 183.582C38.8517 183.511 38.7578 183.4 38.7083 183.268C38.6587 183.135 38.6566 182.989 38.7023 182.855Z" fill="white" stroke="white" stroke-width="2" stroke-miterlimit="10"/>
<path d="M50.8351 187.912L52.3581 186.795C52.4635 186.725 52.5869 186.688 52.7131 186.688C52.8393 186.688 52.9627 186.725 53.068 186.795L54.5975 187.912C54.6983 187.985 54.8189 188.024 54.943 188.025C55.067 188.026 55.1883 187.989 55.2902 187.917C55.3921 187.846 55.4695 187.745 55.5119 187.628C55.5543 187.511 55.5595 187.383 55.5269 187.263L54.9396 185.458C54.9056 185.335 54.9083 185.205 54.9473 185.084C54.9864 184.963 55.06 184.856 55.159 184.776L56.6885 183.66C56.7933 183.586 56.8717 183.479 56.9122 183.357C56.9527 183.235 56.9531 183.102 56.9134 182.98C56.8737 182.857 56.796 182.75 56.6917 182.675C56.5873 182.6 56.4618 182.561 56.3336 182.563H54.4491C54.3209 182.564 54.1957 182.524 54.0922 182.448C53.9886 182.372 53.9124 182.264 53.8747 182.141L53.2875 180.336C53.2467 180.216 53.1694 180.111 53.0664 180.037C52.9633 179.962 52.8398 179.922 52.7131 179.922C52.5864 179.922 52.4628 179.962 52.3598 180.037C52.2568 180.111 52.1795 180.216 52.1387 180.336L51.5579 182.141C51.5203 182.264 51.444 182.372 51.3405 182.448C51.2369 182.524 51.1117 182.564 50.9835 182.563H49.0991C48.9708 182.561 48.8453 182.6 48.741 182.675C48.6366 182.75 48.5589 182.857 48.5192 182.98C48.4795 183.102 48.4799 183.235 48.5204 183.357C48.5609 183.479 48.6393 183.586 48.7441 183.66L50.2672 184.776C50.3713 184.852 50.4488 184.958 50.4883 185.081C50.5277 185.204 50.5272 185.336 50.4866 185.458L49.9058 187.263C49.8731 187.383 49.8783 187.511 49.9207 187.628C49.9631 187.745 50.0405 187.846 50.1424 187.917C50.2443 187.989 50.3656 188.026 50.4897 188.025C50.6137 188.024 50.7344 187.985 50.8351 187.912Z" fill="white" stroke="white" stroke-width="2" stroke-miterlimit="10"/>
<path d="M57.192 187.321L58.3149 185.796C58.389 185.699 58.49 185.627 58.605 185.589C58.72 185.551 58.8438 185.548 58.9603 185.581L60.7479 186.185C60.8692 186.229 61.0012 186.232 61.1244 186.194C61.2477 186.157 61.3556 186.08 61.4323 185.976C61.509 185.872 61.5504 185.746 61.5503 185.616C61.5503 185.487 61.5088 185.361 61.432 185.257L60.3349 183.712C60.2655 183.606 60.2285 183.482 60.2285 183.355C60.2285 183.228 60.2655 183.104 60.3349 182.998L61.4578 181.472C61.5287 181.37 61.5668 181.249 61.5672 181.125C61.5676 181 61.5302 180.879 61.46 180.776C61.3898 180.674 61.2901 180.596 61.1744 180.552C61.0587 180.508 60.9324 180.501 60.8125 180.531L59.0119 181.102C58.8941 181.135 58.7692 181.131 58.6539 181.09C58.5386 181.05 58.4384 180.975 58.3666 180.875L57.2695 179.33C57.1949 179.227 57.09 179.15 56.9696 179.11C56.8492 179.07 56.7193 179.069 56.5982 179.107C56.4771 179.144 56.3709 179.22 56.2945 179.322C56.2181 179.423 56.1754 179.547 56.1723 179.674V181.576C56.17 181.704 56.1276 181.829 56.0511 181.931C55.9747 182.034 55.868 182.109 55.7464 182.147L53.9458 182.719C53.8259 182.76 53.7217 182.837 53.6479 182.941C53.5741 183.045 53.5344 183.169 53.5344 183.296C53.5344 183.424 53.5741 183.548 53.6479 183.652C53.7217 183.755 53.8259 183.833 53.9458 183.874L55.7335 184.478C55.8543 184.518 55.9594 184.595 56.0336 184.699C56.1079 184.803 56.1474 184.928 56.1465 185.056V186.958C56.1571 187.075 56.201 187.186 56.273 187.279C56.345 187.371 56.4421 187.441 56.5525 187.479C56.6629 187.518 56.782 187.523 56.8954 187.495C57.0089 187.467 57.1118 187.407 57.192 187.321Z" fill="white" stroke="white" stroke-width="2" stroke-miterlimit="10"/>
<path d="M62.2838 185.698L63.1098 183.991C63.1669 183.873 63.2608 183.776 63.3773 183.716C63.4937 183.657 63.6265 183.637 63.7552 183.66L65.6267 183.92C65.7533 183.938 65.8826 183.916 65.9956 183.855C66.1086 183.795 66.1995 183.7 66.255 183.584C66.3105 183.468 66.3277 183.337 66.3041 183.211C66.2804 183.084 66.2172 182.969 66.1237 182.881L64.7684 181.583C64.6812 181.491 64.6226 181.376 64.5996 181.252C64.5767 181.127 64.5905 180.998 64.6393 180.882L65.4654 179.174C65.5202 179.059 65.5375 178.929 65.515 178.803C65.4925 178.678 65.4313 178.562 65.3401 178.473C65.2488 178.384 65.132 178.326 65.0063 178.308C64.8806 178.289 64.7522 178.311 64.6393 178.369L62.9614 179.265C62.8488 179.325 62.7203 179.348 62.594 179.331C62.4678 179.313 62.3502 179.256 62.258 179.168L60.9027 177.87C60.8116 177.778 60.6936 177.718 60.5661 177.699C60.4387 177.68 60.3084 177.703 60.1948 177.764C60.0812 177.825 59.9901 177.921 59.9351 178.039C59.8801 178.156 59.8641 178.288 59.8895 178.415L60.2186 180.284C60.2431 180.412 60.2263 180.544 60.1705 180.66C60.1147 180.777 60.023 180.873 59.9088 180.933L58.2438 181.829C58.1297 181.888 58.0374 181.982 57.9805 182.098C57.9235 182.214 57.9048 182.344 57.9272 182.472C57.9495 182.599 58.0118 182.715 58.1048 182.804C58.1978 182.893 58.3166 182.949 58.4439 182.965L60.3154 183.231C60.4418 183.248 60.5596 183.305 60.6514 183.393C60.7432 183.482 60.8041 183.598 60.8253 183.725L61.1544 185.594C61.1844 185.716 61.2513 185.825 61.3459 185.907C61.4405 185.989 61.5581 186.039 61.6824 186.05C61.8066 186.062 61.9312 186.034 62.039 185.971C62.1468 185.908 62.2323 185.812 62.2838 185.698Z" fill="white" stroke="white" stroke-width="2" stroke-miterlimit="10"/>
<path d="M66.7047 182.855L66.3497 180.986C66.3241 180.86 66.339 180.729 66.3924 180.612C66.4458 180.495 66.5349 180.399 66.6466 180.336L68.2987 179.415C68.4094 179.352 68.4976 179.255 68.5508 179.139C68.6041 179.023 68.6197 178.893 68.5954 178.767C68.5712 178.642 68.5083 178.527 68.4157 178.439C68.323 178.352 68.2054 178.295 68.0793 178.279L66.2077 178.051C66.0803 178.037 65.9609 177.982 65.8668 177.894C65.7727 177.807 65.709 177.691 65.685 177.565L65.3236 175.702C65.3006 175.575 65.2381 175.46 65.1454 175.372C65.0526 175.283 64.9343 175.227 64.8077 175.211C64.6811 175.196 64.5527 175.221 64.4412 175.283C64.3298 175.346 64.241 175.442 64.1878 175.559L63.3875 177.318C63.3325 177.439 63.2395 177.538 63.1228 177.6C63.0062 177.662 62.8724 177.684 62.7421 177.662L60.8706 177.435C60.7437 177.417 60.6146 177.441 60.5023 177.503C60.3899 177.565 60.3001 177.661 60.2461 177.778C60.192 177.895 60.1765 178.026 60.2018 178.152C60.227 178.278 60.2918 178.393 60.3866 178.48L61.7677 179.778C61.8604 179.866 61.9229 179.981 61.9461 180.107C61.9693 180.233 61.952 180.364 61.8967 180.479L61.1029 182.199C61.0498 182.316 61.0344 182.446 61.0588 182.571C61.0832 182.697 61.1463 182.812 61.239 182.899C61.3318 182.987 61.4495 183.043 61.5757 183.059C61.7018 183.076 61.8299 183.052 61.9419 182.991L63.594 182.07C63.7053 182.008 63.833 181.983 63.9593 181.998C64.0855 182.013 64.2038 182.068 64.2975 182.154L65.6785 183.452C65.7686 183.564 65.8953 183.639 66.0358 183.665C66.1763 183.691 66.3214 183.666 66.4451 183.594C66.5687 183.522 66.6628 183.408 66.7104 183.273C66.7579 183.137 66.7559 182.989 66.7047 182.855Z" fill="white" stroke="white" stroke-width="2" stroke-miterlimit="10"/>
<path d="M52.1709 185.38C59.0784 185.38 64.678 182.558 64.678 179.077C64.678 175.596 59.0784 172.774 52.1709 172.774C45.2634 172.774 39.6638 175.596 39.6638 179.077C39.6638 182.558 45.2634 185.38 52.1709 185.38Z" fill="#3C3C3B" stroke="white" stroke-width="2" stroke-miterlimit="10"/>
</svg>
