<svg width="121" height="179" viewBox="0 0 121 179" fill="none" xmlns="http://www.w3.org/2000/svg">
<g clip-path="url(#clip0)">
<path d="M117.921 48.7195H3.07768C1.30732 48.7195 -0.0991948 50.3152 0.00494381 52.2073L7.30108 94.8625C7.39622 96.6052 8.74487 97.9662 10.3751 97.9662H12.0927L25.5922 177.942C25.7465 178.552 26.5436 178.999 27.4757 178.999H96.6314C97.5597 178.999 98.3529 178.557 98.5136 177.95L110.317 97.9662H110.414C112.045 97.9662 113.393 96.6052 113.488 94.8625L120.996 52.2073C121.098 50.3152 119.691 48.7195 117.921 48.7195Z" fill="#D6ECED"/>
<path d="M117.921 48.7195H59.9707V178.999H96.621C97.5493 178.999 98.3425 178.557 98.5032 177.95L110.317 97.9662H110.414C112.045 97.9662 113.392 96.6052 113.488 94.8625L120.996 52.2073C121.097 50.3152 119.691 48.7195 117.921 48.7195Z" fill="#BAE0E1"/>
<path d="M8.58669 49.0727H112.828C113.959 49.0727 114.817 49.7171 114.628 50.4183L98.2525 156.894C98.0995 157.443 95.8715 166.4 89.2529 166.4H34.6123C28.2624 166.4 26.1604 158.126 26.0138 157.573L6.79063 50.4106C6.60421 49.7107 7.46431 49.0727 8.58669 49.0727Z" fill="white"/>
<path d="M114.912 0.893057L109.169 0.00579834L84.5535 160.154L90.2969 161.041L114.912 0.893057Z" fill="#322F38"/>
<g opacity="0.76">
<path opacity="0.76" d="M8.53307 49.0727H112.774C113.906 49.0727 114.763 49.7171 114.574 50.4183L98.1989 156.894C98.0459 157.443 95.8179 166.4 89.1993 166.4H34.5587C28.2088 166.4 26.1081 158.126 25.9602 157.573L6.73701 50.4106C6.55058 49.7107 7.40683 49.0727 8.53307 49.0727Z" fill="#FDD59E"/>
<path opacity="0.55" d="M16.6494 105.658L25.9627 157.573C26.1106 158.126 28.2114 166.4 34.5612 166.4H89.2018C95.8166 166.4 98.0446 157.443 98.2015 156.894L106.075 105.658H16.6494Z" fill="#A36A14"/>
<path opacity="0.47" d="M22.0737 135.896L25.9629 157.573C26.1107 158.126 28.2115 166.4 34.5614 166.4H89.202C95.8167 166.4 98.0447 157.443 98.2016 156.894L101.431 135.896H22.0737Z" fill="#F6A316"/>
<path opacity="0.72" d="M25.1191 152.873L25.9625 157.573C26.1104 158.126 28.2112 166.4 34.561 166.4H89.2016C95.8163 166.4 98.0444 157.443 98.2012 156.894L98.8196 152.873H25.1191Z" fill="#F6A316"/>
</g>
<g opacity="0.83">
<path opacity="0.34" d="M46.9869 161.595L65.6583 143.104C65.9017 142.863 65.9041 142.47 65.6636 142.226L45.6098 121.874C45.3693 121.63 44.9769 121.627 44.7334 121.869L26.0621 140.36C25.8186 140.601 25.8162 140.994 26.0567 141.238L46.1105 161.59C46.3511 161.834 46.7434 161.836 46.9869 161.595Z" fill="white"/>
<path opacity="0.41" d="M49.8823 158.722L51.8404 156.788C48.9991 153.807 46.0395 150.929 43.5414 147.656C40.7734 144.029 38.5659 139.815 38.1417 135.267C37.8652 132.344 38.4309 129.278 39.8323 126.727L28.9646 137.489C28.5266 137.923 28.1781 138.438 27.9389 139.007C27.6998 139.575 27.5747 140.185 27.5709 140.802C27.5671 141.419 27.6846 142.031 27.9166 142.602C28.1487 143.174 28.4909 143.694 28.9235 144.132L43.2612 158.686C44.1346 159.57 45.3227 160.071 46.5643 160.078C47.8059 160.084 48.9993 159.597 49.8823 158.722Z" fill="white"/>
</g>
<g opacity="0.7">
<path opacity="0.34" d="M37.7376 102.282L64.9786 80.2532C65.245 80.0378 65.2867 79.6467 65.0719 79.3796L42.9117 51.837C42.6969 51.5699 42.3067 51.5281 42.0404 51.7435L14.7994 73.7719C14.533 73.9873 14.4912 74.3784 14.7061 74.6455L36.8662 102.188C37.0811 102.455 37.4712 102.497 37.7376 102.282Z" fill="white"/>
<path opacity="0.41" d="M42.0639 98.7744L44.8924 96.4904C41.7952 92.4948 38.5284 88.6281 35.9185 84.2883C33.0244 79.4845 30.9468 73.9873 31.1859 68.2169C31.3493 64.3976 32.6076 60.7065 34.8102 57.5859L19.1277 70.2624C16.4715 72.4097 15.9341 76.1591 17.9282 78.6403L33.6454 98.175C35.6382 100.654 39.4077 100.922 42.0639 98.7744Z" fill="white"/>
</g>
<g opacity="0.55">
<path opacity="0.34" d="M107.032 95.8243L82.1751 74.6237C81.9144 74.4014 81.5233 74.433 81.3016 74.6943L59.5229 100.358C59.3011 100.619 59.3327 101.011 59.5933 101.234L84.45 122.434C84.7107 122.657 85.1018 122.625 85.3235 122.364L107.102 96.7001C107.324 96.4388 107.292 96.0467 107.032 95.8243Z" fill="white"/>
<path opacity="0.41" d="M103.097 92.4715L100.514 90.2804C97.3323 93.8893 94.2866 97.6491 90.7086 100.878C86.7436 104.458 81.9995 107.409 76.619 108.256C73.1593 108.799 69.4193 108.346 66.1743 106.853L80.5146 119.085C82.9432 121.157 86.5032 120.956 88.4612 118.649L103.937 100.416C105.904 98.1028 105.526 94.548 103.097 92.4715Z" fill="white"/>
</g>
</g>
<defs>
<clipPath id="clip0">
<rect width="121" height="179" fill="white"/>
</clipPath>
</defs>
</svg>
